G04 #@! TF.FileFunction,Soldermask,Top*
%FSLAX46Y46*%
G04 Gerber Fmt 4.6, Leading zero omitted, Abs format (unit mm)*
G04 Created by KiCad (PCBNEW 4.0.0-rc1-stable) date 18.12.2015 2:10:39*
%MOMM*%
G01*
G04 APERTURE LIST*
%ADD10C,0.100000*%
%ADD11R,2.000860X2.000860*%
%ADD12C,2.000860*%
%ADD13R,1.216000X1.089000*%
%ADD14R,1.597000X1.343000*%
%ADD15R,1.343000X1.597000*%
%ADD16R,1.089000X1.216000*%
%ADD17R,1.200760X1.200760*%
%ADD18R,0.901040X1.099160*%
%ADD19O,0.901040X1.099160*%
%ADD20R,0.835000X1.300000*%
%ADD21O,0.835000X1.300000*%
%ADD22R,1.400000X0.470000*%
%ADD23O,1.400000X0.470000*%
%ADD24O,0.470000X1.400000*%
%ADD25R,1.400000X2.800000*%
%ADD26R,1.300000X1.800000*%
%ADD27R,1.200000X1.100000*%
%ADD28R,1.100000X1.200000*%
%ADD29R,1.200760X1.299820*%
%ADD30C,1.200000*%
%ADD31R,1.700000X1.700000*%
%ADD32C,1.700000*%
%ADD33R,7.299300X1.449680*%
%ADD34R,6.699860X1.449680*%
%ADD35R,1.398880X2.099920*%
G04 APERTURE END LIST*
D10*
D11*
X173999440Y-118500000D03*
D12*
X122000560Y-118500000D03*
D13*
X175500000Y-115662000D03*
X175500000Y-114138000D03*
D14*
X173500000Y-115516000D03*
X173500000Y-113484000D03*
D15*
X164423000Y-123829000D03*
X166455000Y-123829000D03*
D13*
X174528000Y-125460000D03*
X174528000Y-123936000D03*
D16*
X163338000Y-125809000D03*
X164862000Y-125809000D03*
X162401000Y-115844000D03*
X163925000Y-115844000D03*
X155067000Y-114065000D03*
X156591000Y-114065000D03*
D15*
X152737000Y-114313000D03*
X150705000Y-114313000D03*
D16*
X168238000Y-121400000D03*
X169762000Y-121400000D03*
X152805000Y-116260000D03*
X151281000Y-116260000D03*
X167851000Y-111419000D03*
X166327000Y-111419000D03*
D14*
X164214000Y-113288000D03*
X164214000Y-111256000D03*
D15*
X141784000Y-113800000D03*
X143816000Y-113800000D03*
D16*
X140326000Y-111788000D03*
X141850000Y-111788000D03*
X148468000Y-123428000D03*
X146944000Y-123428000D03*
D13*
X133300000Y-112438000D03*
X133300000Y-113962000D03*
D16*
X146950000Y-115090000D03*
X148474000Y-115090000D03*
D13*
X122600000Y-125762000D03*
X122600000Y-124238000D03*
X126100000Y-112438000D03*
X126100000Y-113962000D03*
D17*
X166935400Y-114701420D03*
X166935400Y-117302380D03*
D18*
X171230240Y-123815040D03*
D19*
X169929760Y-123815040D03*
X169929760Y-125714960D03*
X171230240Y-125714960D03*
D20*
X171228000Y-113214000D03*
D21*
X170278000Y-113214000D03*
X169328000Y-113214000D03*
X169328000Y-115814000D03*
X171228000Y-115814000D03*
D22*
X153199000Y-117782000D03*
D23*
X153199000Y-118282000D03*
X153199000Y-118782000D03*
X153199000Y-119282000D03*
X153199000Y-119782000D03*
X153199000Y-120282000D03*
X153199000Y-120782000D03*
X153199000Y-121282000D03*
X153199000Y-121782000D03*
X153199000Y-122282000D03*
X153199000Y-122782000D03*
X153199000Y-123282000D03*
D24*
X154699000Y-124782000D03*
X155199000Y-124782000D03*
X155699000Y-124782000D03*
X156199000Y-124782000D03*
X156699000Y-124782000D03*
X157199000Y-124782000D03*
X157699000Y-124782000D03*
X158199000Y-124782000D03*
X158699000Y-124782000D03*
X159199000Y-124782000D03*
X159699000Y-124782000D03*
X160199000Y-124782000D03*
D23*
X161699000Y-123282000D03*
X161699000Y-122782000D03*
X161699000Y-122282000D03*
X161699000Y-121782000D03*
X161699000Y-121282000D03*
X161699000Y-120782000D03*
X161699000Y-120282000D03*
X161699000Y-119782000D03*
X161699000Y-119282000D03*
X161699000Y-118782000D03*
X161699000Y-118282000D03*
X161699000Y-117782000D03*
D24*
X160199000Y-116282000D03*
X159699000Y-116282000D03*
X159199000Y-116282000D03*
X158699000Y-116282000D03*
X158199000Y-116282000D03*
X157699000Y-116282000D03*
X157199000Y-116282000D03*
X156699000Y-116282000D03*
X156199000Y-116282000D03*
X155699000Y-116282000D03*
X155199000Y-116282000D03*
X154699000Y-116282000D03*
D25*
X169049000Y-118516000D03*
X171549000Y-118516000D03*
D26*
X138500000Y-116000000D03*
X135300000Y-116000000D03*
X138500000Y-111000000D03*
X135300000Y-111000000D03*
X131300000Y-116000000D03*
X128100000Y-116000000D03*
X131300000Y-111000000D03*
X128100000Y-111000000D03*
D27*
X120800000Y-124250000D03*
X120800000Y-125750000D03*
D26*
X140692000Y-116109000D03*
X142292000Y-116109000D03*
X143892000Y-116109000D03*
X140692000Y-121109000D03*
X142292000Y-121109000D03*
X143892000Y-121109000D03*
X124100000Y-116000000D03*
X120900000Y-116000000D03*
X124100000Y-111000000D03*
X120900000Y-111000000D03*
D27*
X150955000Y-120724000D03*
X150955000Y-119224000D03*
X124400000Y-125750000D03*
X124400000Y-124250000D03*
X142200000Y-123650000D03*
X142200000Y-125150000D03*
X140400000Y-123650000D03*
X140400000Y-125150000D03*
X144000000Y-123650000D03*
X144000000Y-125150000D03*
D28*
X173050000Y-121400000D03*
X174550000Y-121400000D03*
D27*
X172780000Y-123947000D03*
X172780000Y-125447000D03*
D28*
X170416000Y-111478000D03*
X171916000Y-111478000D03*
D29*
X130448740Y-118109880D03*
X130448740Y-121808120D03*
X124449260Y-121808120D03*
X124449260Y-118109880D03*
D30*
X151040000Y-122294000D03*
D31*
X155600000Y-111300000D03*
D32*
X158140000Y-111300000D03*
X160680000Y-111300000D03*
D31*
X177800000Y-114700000D03*
D32*
X177800000Y-117240000D03*
X177800000Y-119780000D03*
X177800000Y-122320000D03*
D31*
X151800000Y-111300000D03*
D32*
X149260000Y-111300000D03*
X146720000Y-111300000D03*
X144180000Y-111300000D03*
D33*
X182650920Y-114999880D03*
D34*
X182351200Y-117499240D03*
X182351200Y-119500760D03*
D33*
X182650920Y-122000120D03*
D32*
X137160000Y-125400000D03*
D31*
X127000000Y-125400000D03*
D32*
X129540000Y-125400000D03*
X132080000Y-125400000D03*
X134620000Y-125400000D03*
D35*
X149001820Y-121141120D03*
X149001820Y-117442880D03*
X146802180Y-117442880D03*
X146802180Y-121141120D03*
M02*
