G04 #@! TF.FileFunction,Legend,Top*
%FSLAX46Y46*%
G04 Gerber Fmt 4.6, Leading zero omitted, Abs format (unit mm)*
G04 Created by KiCad (PCBNEW 4.0.0-rc1-stable) date 18.12.2015 2:10:39*
%MOMM*%
G01*
G04 APERTURE LIST*
%ADD10C,0.100000*%
%ADD11C,0.150000*%
%ADD12C,0.149860*%
G04 APERTURE END LIST*
D10*
D11*
X175500000Y-116400000D02*
X174700000Y-116400000D01*
X174700000Y-116400000D02*
X174700000Y-113400000D01*
X174700000Y-113400000D02*
X176300000Y-113400000D01*
X176300000Y-113400000D02*
X176300000Y-116400000D01*
X176300000Y-116400000D02*
X175500000Y-116400000D01*
X172500000Y-116400000D02*
X172500000Y-112600000D01*
X172500000Y-112600000D02*
X174500000Y-112600000D01*
X174500000Y-112600000D02*
X174500000Y-116400000D01*
X174500000Y-116400000D02*
X172500000Y-116400000D01*
X163539000Y-122829000D02*
X167339000Y-122829000D01*
X167339000Y-122829000D02*
X167339000Y-124829000D01*
X167339000Y-124829000D02*
X163539000Y-124829000D01*
X163539000Y-124829000D02*
X163539000Y-122829000D01*
X174528000Y-126198000D02*
X173728000Y-126198000D01*
X173728000Y-126198000D02*
X173728000Y-123198000D01*
X173728000Y-123198000D02*
X175328000Y-123198000D01*
X175328000Y-123198000D02*
X175328000Y-126198000D01*
X175328000Y-126198000D02*
X174528000Y-126198000D01*
X162600000Y-125809000D02*
X162600000Y-125009000D01*
X162600000Y-125009000D02*
X165600000Y-125009000D01*
X165600000Y-125009000D02*
X165600000Y-126609000D01*
X165600000Y-126609000D02*
X162600000Y-126609000D01*
X162600000Y-126609000D02*
X162600000Y-125809000D01*
X161663000Y-115844000D02*
X161663000Y-115044000D01*
X161663000Y-115044000D02*
X164663000Y-115044000D01*
X164663000Y-115044000D02*
X164663000Y-116644000D01*
X164663000Y-116644000D02*
X161663000Y-116644000D01*
X161663000Y-116644000D02*
X161663000Y-115844000D01*
X154329000Y-114065000D02*
X154329000Y-113265000D01*
X154329000Y-113265000D02*
X157329000Y-113265000D01*
X157329000Y-113265000D02*
X157329000Y-114865000D01*
X157329000Y-114865000D02*
X154329000Y-114865000D01*
X154329000Y-114865000D02*
X154329000Y-114065000D01*
X153621000Y-115313000D02*
X149821000Y-115313000D01*
X149821000Y-115313000D02*
X149821000Y-113313000D01*
X149821000Y-113313000D02*
X153621000Y-113313000D01*
X153621000Y-113313000D02*
X153621000Y-115313000D01*
X167500000Y-121400000D02*
X167500000Y-120600000D01*
X167500000Y-120600000D02*
X170500000Y-120600000D01*
X170500000Y-120600000D02*
X170500000Y-122200000D01*
X170500000Y-122200000D02*
X167500000Y-122200000D01*
X167500000Y-122200000D02*
X167500000Y-121400000D01*
X153543000Y-116260000D02*
X153543000Y-117060000D01*
X153543000Y-117060000D02*
X150543000Y-117060000D01*
X150543000Y-117060000D02*
X150543000Y-115460000D01*
X150543000Y-115460000D02*
X153543000Y-115460000D01*
X153543000Y-115460000D02*
X153543000Y-116260000D01*
X168589000Y-111419000D02*
X168589000Y-112219000D01*
X168589000Y-112219000D02*
X165589000Y-112219000D01*
X165589000Y-112219000D02*
X165589000Y-110619000D01*
X165589000Y-110619000D02*
X168589000Y-110619000D01*
X168589000Y-110619000D02*
X168589000Y-111419000D01*
X163214000Y-114172000D02*
X163214000Y-110372000D01*
X163214000Y-110372000D02*
X165214000Y-110372000D01*
X165214000Y-110372000D02*
X165214000Y-114172000D01*
X165214000Y-114172000D02*
X163214000Y-114172000D01*
X140900000Y-112800000D02*
X144700000Y-112800000D01*
X144700000Y-112800000D02*
X144700000Y-114800000D01*
X144700000Y-114800000D02*
X140900000Y-114800000D01*
X140900000Y-114800000D02*
X140900000Y-112800000D01*
X139588000Y-111788000D02*
X139588000Y-110988000D01*
X139588000Y-110988000D02*
X142588000Y-110988000D01*
X142588000Y-110988000D02*
X142588000Y-112588000D01*
X142588000Y-112588000D02*
X139588000Y-112588000D01*
X139588000Y-112588000D02*
X139588000Y-111788000D01*
X149206000Y-123428000D02*
X149206000Y-124228000D01*
X149206000Y-124228000D02*
X146206000Y-124228000D01*
X146206000Y-124228000D02*
X146206000Y-122628000D01*
X146206000Y-122628000D02*
X149206000Y-122628000D01*
X149206000Y-122628000D02*
X149206000Y-123428000D01*
X133300000Y-111700000D02*
X134100000Y-111700000D01*
X134100000Y-111700000D02*
X134100000Y-114700000D01*
X134100000Y-114700000D02*
X132500000Y-114700000D01*
X132500000Y-114700000D02*
X132500000Y-111700000D01*
X132500000Y-111700000D02*
X133300000Y-111700000D01*
X146212000Y-115090000D02*
X146212000Y-114290000D01*
X146212000Y-114290000D02*
X149212000Y-114290000D01*
X149212000Y-114290000D02*
X149212000Y-115890000D01*
X149212000Y-115890000D02*
X146212000Y-115890000D01*
X146212000Y-115890000D02*
X146212000Y-115090000D01*
X122600000Y-126500000D02*
X121800000Y-126500000D01*
X121800000Y-126500000D02*
X121800000Y-123500000D01*
X121800000Y-123500000D02*
X123400000Y-123500000D01*
X123400000Y-123500000D02*
X123400000Y-126500000D01*
X123400000Y-126500000D02*
X122600000Y-126500000D01*
X126100000Y-111700000D02*
X126900000Y-111700000D01*
X126900000Y-111700000D02*
X126900000Y-114700000D01*
X126900000Y-114700000D02*
X125300000Y-114700000D01*
X125300000Y-114700000D02*
X125300000Y-111700000D01*
X125300000Y-111700000D02*
X126100000Y-111700000D01*
X167635400Y-114001900D02*
X167635400Y-113901900D01*
X167635400Y-113901900D02*
X166235400Y-113901900D01*
X166235400Y-113901900D02*
X166235400Y-114001900D01*
X167635400Y-114001900D02*
X167635400Y-118001900D01*
X167635400Y-118001900D02*
X166235400Y-118001900D01*
X166235400Y-118001900D02*
X166235400Y-114001900D01*
X166235400Y-114001900D02*
X167635400Y-114001900D01*
X166554400Y-115620900D02*
X167316400Y-115620900D01*
X166935400Y-116382900D02*
X167316400Y-116382900D01*
X167316400Y-116382900D02*
X166935400Y-115620900D01*
X166935400Y-115620900D02*
X166554400Y-116382900D01*
X166554400Y-116382900D02*
X166935400Y-116382900D01*
X170680000Y-123165000D02*
X170680000Y-124465000D01*
X170680000Y-124465000D02*
X171780000Y-124465000D01*
X171780000Y-123165000D02*
X171780000Y-126365000D01*
X171780000Y-126365000D02*
X169380000Y-126365000D01*
X169380000Y-126365000D02*
X169380000Y-123165000D01*
X169380000Y-123165000D02*
X171780000Y-123165000D01*
X171378000Y-113714000D02*
X171378000Y-115314000D01*
D12*
X171728340Y-113713900D02*
X171728340Y-115314100D01*
X171728340Y-115314100D02*
X168827660Y-115314100D01*
X168827660Y-115314100D02*
X168827660Y-113713900D01*
X168827660Y-113713900D02*
X171728340Y-113713900D01*
D11*
X153999000Y-117782000D02*
X154699000Y-117082000D01*
X157449000Y-117082000D02*
X160899000Y-117082000D01*
X160899000Y-117082000D02*
X160899000Y-123982000D01*
X160899000Y-123982000D02*
X153999000Y-123982000D01*
X153999000Y-123982000D02*
X153999000Y-117082000D01*
X153999000Y-117082000D02*
X157449000Y-117082000D01*
X172399000Y-116916000D02*
X172399000Y-120116000D01*
X172399000Y-120116000D02*
X168199000Y-120116000D01*
X168199000Y-120116000D02*
X168199000Y-116916000D01*
X168199000Y-116916000D02*
X172399000Y-116916000D01*
X133900000Y-114900000D02*
X133900000Y-116500000D01*
X133900000Y-116500000D02*
X134700000Y-116500000D01*
X134400000Y-115000000D02*
X135400000Y-116000000D01*
D12*
X139099640Y-113500000D02*
G75*
G03X139099640Y-113500000I-2199640J0D01*
G01*
X139399360Y-115999360D02*
X134400640Y-115999360D01*
X134400640Y-115999360D02*
X134400640Y-111000640D01*
X134400640Y-111000640D02*
X139399360Y-111000640D01*
X139399360Y-111000640D02*
X139399360Y-115999360D01*
D11*
X126700000Y-114900000D02*
X126700000Y-116500000D01*
X126700000Y-116500000D02*
X127500000Y-116500000D01*
X127200000Y-115000000D02*
X128200000Y-116000000D01*
D12*
X131899640Y-113500000D02*
G75*
G03X131899640Y-113500000I-2199640J0D01*
G01*
X132199360Y-115999360D02*
X127200640Y-115999360D01*
X127200640Y-115999360D02*
X127200640Y-111000640D01*
X127200640Y-111000640D02*
X132199360Y-111000640D01*
X132199360Y-111000640D02*
X132199360Y-115999360D01*
D11*
X120800000Y-123500000D02*
X121600000Y-123500000D01*
X121600000Y-123500000D02*
X121600000Y-126500000D01*
X121600000Y-126500000D02*
X120000000Y-126500000D01*
X120000000Y-126500000D02*
X120000000Y-123500000D01*
X120000000Y-123500000D02*
X120800000Y-123500000D01*
D12*
X144491640Y-118609000D02*
G75*
G03X144491640Y-118609000I-2199640J0D01*
G01*
X139792640Y-116109640D02*
X144791360Y-116109640D01*
X144791360Y-116109640D02*
X144791360Y-121108360D01*
X144791360Y-121108360D02*
X139792640Y-121108360D01*
X139792640Y-121108360D02*
X139792640Y-116109640D01*
D11*
X119500000Y-114900000D02*
X119500000Y-116500000D01*
X119500000Y-116500000D02*
X120300000Y-116500000D01*
X120000000Y-115000000D02*
X121000000Y-116000000D01*
D12*
X124699640Y-113500000D02*
G75*
G03X124699640Y-113500000I-2199640J0D01*
G01*
X124999360Y-115999360D02*
X120000640Y-115999360D01*
X120000640Y-115999360D02*
X120000640Y-111000640D01*
X120000640Y-111000640D02*
X124999360Y-111000640D01*
X124999360Y-111000640D02*
X124999360Y-115999360D01*
D11*
X150955000Y-121474000D02*
X150155000Y-121474000D01*
X150155000Y-121474000D02*
X150155000Y-118474000D01*
X150155000Y-118474000D02*
X151755000Y-118474000D01*
X151755000Y-118474000D02*
X151755000Y-121474000D01*
X151755000Y-121474000D02*
X150955000Y-121474000D01*
X124400000Y-126500000D02*
X123600000Y-126500000D01*
X123600000Y-126500000D02*
X123600000Y-123500000D01*
X123600000Y-123500000D02*
X125200000Y-123500000D01*
X125200000Y-123500000D02*
X125200000Y-126500000D01*
X125200000Y-126500000D02*
X124400000Y-126500000D01*
X142200000Y-122900000D02*
X143000000Y-122900000D01*
X143000000Y-122900000D02*
X143000000Y-125900000D01*
X143000000Y-125900000D02*
X141400000Y-125900000D01*
X141400000Y-125900000D02*
X141400000Y-122900000D01*
X141400000Y-122900000D02*
X142200000Y-122900000D01*
X140400000Y-122900000D02*
X141200000Y-122900000D01*
X141200000Y-122900000D02*
X141200000Y-125900000D01*
X141200000Y-125900000D02*
X139600000Y-125900000D01*
X139600000Y-125900000D02*
X139600000Y-122900000D01*
X139600000Y-122900000D02*
X140400000Y-122900000D01*
X144000000Y-122900000D02*
X144800000Y-122900000D01*
X144800000Y-122900000D02*
X144800000Y-125900000D01*
X144800000Y-125900000D02*
X143200000Y-125900000D01*
X143200000Y-125900000D02*
X143200000Y-122900000D01*
X143200000Y-122900000D02*
X144000000Y-122900000D01*
X172300000Y-121400000D02*
X172300000Y-120600000D01*
X172300000Y-120600000D02*
X175300000Y-120600000D01*
X175300000Y-120600000D02*
X175300000Y-122200000D01*
X175300000Y-122200000D02*
X172300000Y-122200000D01*
X172300000Y-122200000D02*
X172300000Y-121400000D01*
X172780000Y-123197000D02*
X173580000Y-123197000D01*
X173580000Y-123197000D02*
X173580000Y-126197000D01*
X173580000Y-126197000D02*
X171980000Y-126197000D01*
X171980000Y-126197000D02*
X171980000Y-123197000D01*
X171980000Y-123197000D02*
X172780000Y-123197000D01*
X169666000Y-111478000D02*
X169666000Y-110678000D01*
X169666000Y-110678000D02*
X172666000Y-110678000D01*
X172666000Y-110678000D02*
X172666000Y-112278000D01*
X172666000Y-112278000D02*
X169666000Y-112278000D01*
X169666000Y-112278000D02*
X169666000Y-111478000D01*
D12*
X129353790Y-119959000D02*
G75*
G03X129353790Y-119959000I-1904790J0D01*
G01*
X124848040Y-117358040D02*
X124848040Y-122559960D01*
X124848040Y-122559960D02*
X130049960Y-122559960D01*
X130049960Y-122559960D02*
X130049960Y-117358040D01*
X130049960Y-117358040D02*
X124848040Y-117358040D01*
D11*
X154330000Y-112570000D02*
X161950000Y-112570000D01*
X154330000Y-110030000D02*
X161950000Y-110030000D01*
X154330000Y-112570000D02*
X154076000Y-112570000D01*
X154076000Y-112570000D02*
X154076000Y-110030000D01*
X154076000Y-110030000D02*
X154330000Y-110030000D01*
X154330000Y-110030000D02*
X154203000Y-110030000D01*
X154203000Y-110030000D02*
X154203000Y-112570000D01*
X161950000Y-110030000D02*
X161950000Y-112570000D01*
X154330000Y-112570000D02*
X154330000Y-110030000D01*
X176530000Y-113430000D02*
X176530000Y-113176000D01*
X176530000Y-113176000D02*
X179070000Y-113176000D01*
X179070000Y-113176000D02*
X179070000Y-113430000D01*
X179070000Y-113430000D02*
X179070000Y-113303000D01*
X179070000Y-113303000D02*
X176530000Y-113303000D01*
X179070000Y-113430000D02*
X179070000Y-123590000D01*
X179070000Y-123590000D02*
X176530000Y-123590000D01*
X176530000Y-123590000D02*
X176530000Y-113430000D01*
X176530000Y-113430000D02*
X179070000Y-113430000D01*
X153070000Y-110030000D02*
X153324000Y-110030000D01*
X153324000Y-110030000D02*
X153324000Y-112570000D01*
X153324000Y-112570000D02*
X153070000Y-112570000D01*
X153070000Y-112570000D02*
X153197000Y-112570000D01*
X153197000Y-112570000D02*
X153197000Y-110030000D01*
X153070000Y-112570000D02*
X142910000Y-112570000D01*
X142910000Y-112570000D02*
X142910000Y-110030000D01*
X142910000Y-110030000D02*
X153070000Y-110030000D01*
X153070000Y-110030000D02*
X153070000Y-112570000D01*
X138430000Y-126670000D02*
X135890000Y-126670000D01*
X135890000Y-124130000D02*
X138430000Y-124130000D01*
X125730000Y-126670000D02*
X125476000Y-126670000D01*
X125476000Y-126670000D02*
X125476000Y-124130000D01*
X125476000Y-124130000D02*
X125730000Y-124130000D01*
X125730000Y-124130000D02*
X125603000Y-124130000D01*
X125603000Y-124130000D02*
X125603000Y-126670000D01*
X125730000Y-124130000D02*
X135890000Y-124130000D01*
X138430000Y-124130000D02*
X138430000Y-126670000D01*
X135890000Y-126670000D02*
X125730000Y-126670000D01*
X125730000Y-126670000D02*
X125730000Y-124130000D01*
X145997000Y-119292000D02*
X145997000Y-116244000D01*
X145997000Y-116244000D02*
X149807000Y-116244000D01*
X149807000Y-116244000D02*
X149807000Y-122340000D01*
X149807000Y-122340000D02*
X145997000Y-122340000D01*
X145997000Y-122340000D02*
X145997000Y-119292000D01*
X175814286Y-114900000D02*
X175842857Y-114928571D01*
X175871429Y-115014285D01*
X175871429Y-115071428D01*
X175842857Y-115157143D01*
X175785714Y-115214285D01*
X175728571Y-115242857D01*
X175614286Y-115271428D01*
X175528571Y-115271428D01*
X175414286Y-115242857D01*
X175357143Y-115214285D01*
X175300000Y-115157143D01*
X175271429Y-115071428D01*
X175271429Y-115014285D01*
X175300000Y-114928571D01*
X175328571Y-114900000D01*
X175871429Y-114328571D02*
X175871429Y-114671428D01*
X175871429Y-114500000D02*
X175271429Y-114500000D01*
X175357143Y-114557143D01*
X175414286Y-114614285D01*
X175442857Y-114671428D01*
X175571429Y-113028571D02*
X175571429Y-112971428D01*
X175600000Y-112914285D01*
X175628571Y-112885714D01*
X175685714Y-112857143D01*
X175800000Y-112828571D01*
X175942857Y-112828571D01*
X176057143Y-112857143D01*
X176114286Y-112885714D01*
X176142857Y-112914285D01*
X176171429Y-112971428D01*
X176171429Y-113028571D01*
X176142857Y-113085714D01*
X176114286Y-113114285D01*
X176057143Y-113142857D01*
X175942857Y-113171428D01*
X175800000Y-113171428D01*
X175685714Y-113142857D01*
X175628571Y-113114285D01*
X175600000Y-113085714D01*
X175571429Y-113028571D01*
X176114286Y-112571428D02*
X176142857Y-112542856D01*
X176171429Y-112571428D01*
X176142857Y-112599999D01*
X176114286Y-112571428D01*
X176171429Y-112571428D01*
X176171429Y-111971428D02*
X176171429Y-112314285D01*
X176171429Y-112142857D02*
X175571429Y-112142857D01*
X175657143Y-112200000D01*
X175714286Y-112257142D01*
X175742857Y-112314285D01*
X175771429Y-111457142D02*
X176171429Y-111457142D01*
X175771429Y-111714285D02*
X176085714Y-111714285D01*
X176142857Y-111685713D01*
X176171429Y-111628571D01*
X176171429Y-111542856D01*
X176142857Y-111485713D01*
X176114286Y-111457142D01*
X173814286Y-114700000D02*
X173842857Y-114728571D01*
X173871429Y-114814285D01*
X173871429Y-114871428D01*
X173842857Y-114957143D01*
X173785714Y-115014285D01*
X173728571Y-115042857D01*
X173614286Y-115071428D01*
X173528571Y-115071428D01*
X173414286Y-115042857D01*
X173357143Y-115014285D01*
X173300000Y-114957143D01*
X173271429Y-114871428D01*
X173271429Y-114814285D01*
X173300000Y-114728571D01*
X173328571Y-114700000D01*
X173328571Y-114471428D02*
X173300000Y-114442857D01*
X173271429Y-114385714D01*
X173271429Y-114242857D01*
X173300000Y-114185714D01*
X173328571Y-114157143D01*
X173385714Y-114128571D01*
X173442857Y-114128571D01*
X173528571Y-114157143D01*
X173871429Y-114500000D01*
X173871429Y-114128571D01*
X174271429Y-112085714D02*
X174271429Y-112428571D01*
X174271429Y-112257143D02*
X173671429Y-112257143D01*
X173757143Y-112314286D01*
X173814286Y-112371428D01*
X173842857Y-112428571D01*
X173671429Y-111714285D02*
X173671429Y-111657142D01*
X173700000Y-111599999D01*
X173728571Y-111571428D01*
X173785714Y-111542857D01*
X173900000Y-111514285D01*
X174042857Y-111514285D01*
X174157143Y-111542857D01*
X174214286Y-111571428D01*
X174242857Y-111599999D01*
X174271429Y-111657142D01*
X174271429Y-111714285D01*
X174242857Y-111771428D01*
X174214286Y-111799999D01*
X174157143Y-111828571D01*
X174042857Y-111857142D01*
X173900000Y-111857142D01*
X173785714Y-111828571D01*
X173728571Y-111799999D01*
X173700000Y-111771428D01*
X173671429Y-111714285D01*
X173871429Y-110999999D02*
X174271429Y-110999999D01*
X173871429Y-111257142D02*
X174185714Y-111257142D01*
X174242857Y-111228570D01*
X174271429Y-111171428D01*
X174271429Y-111085713D01*
X174242857Y-111028570D01*
X174214286Y-110999999D01*
X165300000Y-124014286D02*
X165271429Y-124042857D01*
X165185715Y-124071429D01*
X165128572Y-124071429D01*
X165042857Y-124042857D01*
X164985715Y-123985714D01*
X164957143Y-123928571D01*
X164928572Y-123814286D01*
X164928572Y-123728571D01*
X164957143Y-123614286D01*
X164985715Y-123557143D01*
X165042857Y-123500000D01*
X165128572Y-123471429D01*
X165185715Y-123471429D01*
X165271429Y-123500000D01*
X165300000Y-123528571D01*
X165500000Y-123471429D02*
X165871429Y-123471429D01*
X165671429Y-123700000D01*
X165757143Y-123700000D01*
X165814286Y-123728571D01*
X165842857Y-123757143D01*
X165871429Y-123814286D01*
X165871429Y-123957143D01*
X165842857Y-124014286D01*
X165814286Y-124042857D01*
X165757143Y-124071429D01*
X165585715Y-124071429D01*
X165528572Y-124042857D01*
X165500000Y-124014286D01*
X165114286Y-122571429D02*
X164771429Y-122571429D01*
X164942857Y-122571429D02*
X164942857Y-121971429D01*
X164885714Y-122057143D01*
X164828572Y-122114286D01*
X164771429Y-122142857D01*
X165485715Y-121971429D02*
X165542858Y-121971429D01*
X165600001Y-122000000D01*
X165628572Y-122028571D01*
X165657143Y-122085714D01*
X165685715Y-122200000D01*
X165685715Y-122342857D01*
X165657143Y-122457143D01*
X165628572Y-122514286D01*
X165600001Y-122542857D01*
X165542858Y-122571429D01*
X165485715Y-122571429D01*
X165428572Y-122542857D01*
X165400001Y-122514286D01*
X165371429Y-122457143D01*
X165342858Y-122342857D01*
X165342858Y-122200000D01*
X165371429Y-122085714D01*
X165400001Y-122028571D01*
X165428572Y-122000000D01*
X165485715Y-121971429D01*
X166200001Y-122171429D02*
X166200001Y-122571429D01*
X165942858Y-122171429D02*
X165942858Y-122485714D01*
X165971430Y-122542857D01*
X166028572Y-122571429D01*
X166114287Y-122571429D01*
X166171430Y-122542857D01*
X166200001Y-122514286D01*
X174614286Y-124700000D02*
X174642857Y-124728571D01*
X174671429Y-124814285D01*
X174671429Y-124871428D01*
X174642857Y-124957143D01*
X174585714Y-125014285D01*
X174528571Y-125042857D01*
X174414286Y-125071428D01*
X174328571Y-125071428D01*
X174214286Y-125042857D01*
X174157143Y-125014285D01*
X174100000Y-124957143D01*
X174071429Y-124871428D01*
X174071429Y-124814285D01*
X174100000Y-124728571D01*
X174128571Y-124700000D01*
X174271429Y-124185714D02*
X174671429Y-124185714D01*
X174042857Y-124328571D02*
X174471429Y-124471428D01*
X174471429Y-124100000D01*
X174171429Y-122371429D02*
X174228572Y-122371429D01*
X174285715Y-122400000D01*
X174314286Y-122428571D01*
X174342857Y-122485714D01*
X174371429Y-122600000D01*
X174371429Y-122742857D01*
X174342857Y-122857143D01*
X174314286Y-122914286D01*
X174285715Y-122942857D01*
X174228572Y-122971429D01*
X174171429Y-122971429D01*
X174114286Y-122942857D01*
X174085715Y-122914286D01*
X174057143Y-122857143D01*
X174028572Y-122742857D01*
X174028572Y-122600000D01*
X174057143Y-122485714D01*
X174085715Y-122428571D01*
X174114286Y-122400000D01*
X174171429Y-122371429D01*
X174628572Y-122914286D02*
X174657144Y-122942857D01*
X174628572Y-122971429D01*
X174600001Y-122942857D01*
X174628572Y-122914286D01*
X174628572Y-122971429D01*
X175228572Y-122971429D02*
X174885715Y-122971429D01*
X175057143Y-122971429D02*
X175057143Y-122371429D01*
X175000000Y-122457143D01*
X174942858Y-122514286D01*
X174885715Y-122542857D01*
X175742858Y-122571429D02*
X175742858Y-122971429D01*
X175485715Y-122571429D02*
X175485715Y-122885714D01*
X175514287Y-122942857D01*
X175571429Y-122971429D01*
X175657144Y-122971429D01*
X175714287Y-122942857D01*
X175742858Y-122914286D01*
X163900000Y-126114286D02*
X163871429Y-126142857D01*
X163785715Y-126171429D01*
X163728572Y-126171429D01*
X163642857Y-126142857D01*
X163585715Y-126085714D01*
X163557143Y-126028571D01*
X163528572Y-125914286D01*
X163528572Y-125828571D01*
X163557143Y-125714286D01*
X163585715Y-125657143D01*
X163642857Y-125600000D01*
X163728572Y-125571429D01*
X163785715Y-125571429D01*
X163871429Y-125600000D01*
X163900000Y-125628571D01*
X164442857Y-125571429D02*
X164157143Y-125571429D01*
X164128572Y-125857143D01*
X164157143Y-125828571D01*
X164214286Y-125800000D01*
X164357143Y-125800000D01*
X164414286Y-125828571D01*
X164442857Y-125857143D01*
X164471429Y-125914286D01*
X164471429Y-126057143D01*
X164442857Y-126114286D01*
X164414286Y-126142857D01*
X164357143Y-126171429D01*
X164214286Y-126171429D01*
X164157143Y-126142857D01*
X164128572Y-126114286D01*
X160671429Y-125771429D02*
X160728572Y-125771429D01*
X160785715Y-125800000D01*
X160814286Y-125828571D01*
X160842857Y-125885714D01*
X160871429Y-126000000D01*
X160871429Y-126142857D01*
X160842857Y-126257143D01*
X160814286Y-126314286D01*
X160785715Y-126342857D01*
X160728572Y-126371429D01*
X160671429Y-126371429D01*
X160614286Y-126342857D01*
X160585715Y-126314286D01*
X160557143Y-126257143D01*
X160528572Y-126142857D01*
X160528572Y-126000000D01*
X160557143Y-125885714D01*
X160585715Y-125828571D01*
X160614286Y-125800000D01*
X160671429Y-125771429D01*
X161128572Y-126314286D02*
X161157144Y-126342857D01*
X161128572Y-126371429D01*
X161100001Y-126342857D01*
X161128572Y-126314286D01*
X161128572Y-126371429D01*
X161728572Y-126371429D02*
X161385715Y-126371429D01*
X161557143Y-126371429D02*
X161557143Y-125771429D01*
X161500000Y-125857143D01*
X161442858Y-125914286D01*
X161385715Y-125942857D01*
X162242858Y-125971429D02*
X162242858Y-126371429D01*
X161985715Y-125971429D02*
X161985715Y-126285714D01*
X162014287Y-126342857D01*
X162071429Y-126371429D01*
X162157144Y-126371429D01*
X162214287Y-126342857D01*
X162242858Y-126314286D01*
X163100000Y-116014286D02*
X163071429Y-116042857D01*
X162985715Y-116071429D01*
X162928572Y-116071429D01*
X162842857Y-116042857D01*
X162785715Y-115985714D01*
X162757143Y-115928571D01*
X162728572Y-115814286D01*
X162728572Y-115728571D01*
X162757143Y-115614286D01*
X162785715Y-115557143D01*
X162842857Y-115500000D01*
X162928572Y-115471429D01*
X162985715Y-115471429D01*
X163071429Y-115500000D01*
X163100000Y-115528571D01*
X163614286Y-115471429D02*
X163500000Y-115471429D01*
X163442857Y-115500000D01*
X163414286Y-115528571D01*
X163357143Y-115614286D01*
X163328572Y-115728571D01*
X163328572Y-115957143D01*
X163357143Y-116014286D01*
X163385715Y-116042857D01*
X163442857Y-116071429D01*
X163557143Y-116071429D01*
X163614286Y-116042857D01*
X163642857Y-116014286D01*
X163671429Y-115957143D01*
X163671429Y-115814286D01*
X163642857Y-115757143D01*
X163614286Y-115728571D01*
X163557143Y-115700000D01*
X163442857Y-115700000D01*
X163385715Y-115728571D01*
X163357143Y-115757143D01*
X163328572Y-115814286D01*
X161371429Y-114171429D02*
X161428572Y-114171429D01*
X161485715Y-114200000D01*
X161514286Y-114228571D01*
X161542857Y-114285714D01*
X161571429Y-114400000D01*
X161571429Y-114542857D01*
X161542857Y-114657143D01*
X161514286Y-114714286D01*
X161485715Y-114742857D01*
X161428572Y-114771429D01*
X161371429Y-114771429D01*
X161314286Y-114742857D01*
X161285715Y-114714286D01*
X161257143Y-114657143D01*
X161228572Y-114542857D01*
X161228572Y-114400000D01*
X161257143Y-114285714D01*
X161285715Y-114228571D01*
X161314286Y-114200000D01*
X161371429Y-114171429D01*
X161828572Y-114714286D02*
X161857144Y-114742857D01*
X161828572Y-114771429D01*
X161800001Y-114742857D01*
X161828572Y-114714286D01*
X161828572Y-114771429D01*
X162428572Y-114771429D02*
X162085715Y-114771429D01*
X162257143Y-114771429D02*
X162257143Y-114171429D01*
X162200000Y-114257143D01*
X162142858Y-114314286D01*
X162085715Y-114342857D01*
X162942858Y-114371429D02*
X162942858Y-114771429D01*
X162685715Y-114371429D02*
X162685715Y-114685714D01*
X162714287Y-114742857D01*
X162771429Y-114771429D01*
X162857144Y-114771429D01*
X162914287Y-114742857D01*
X162942858Y-114714286D01*
X155700000Y-114314286D02*
X155671429Y-114342857D01*
X155585715Y-114371429D01*
X155528572Y-114371429D01*
X155442857Y-114342857D01*
X155385715Y-114285714D01*
X155357143Y-114228571D01*
X155328572Y-114114286D01*
X155328572Y-114028571D01*
X155357143Y-113914286D01*
X155385715Y-113857143D01*
X155442857Y-113800000D01*
X155528572Y-113771429D01*
X155585715Y-113771429D01*
X155671429Y-113800000D01*
X155700000Y-113828571D01*
X155900000Y-113771429D02*
X156300000Y-113771429D01*
X156042857Y-114371429D01*
X157671429Y-113771429D02*
X157728572Y-113771429D01*
X157785715Y-113800000D01*
X157814286Y-113828571D01*
X157842857Y-113885714D01*
X157871429Y-114000000D01*
X157871429Y-114142857D01*
X157842857Y-114257143D01*
X157814286Y-114314286D01*
X157785715Y-114342857D01*
X157728572Y-114371429D01*
X157671429Y-114371429D01*
X157614286Y-114342857D01*
X157585715Y-114314286D01*
X157557143Y-114257143D01*
X157528572Y-114142857D01*
X157528572Y-114000000D01*
X157557143Y-113885714D01*
X157585715Y-113828571D01*
X157614286Y-113800000D01*
X157671429Y-113771429D01*
X158128572Y-114314286D02*
X158157144Y-114342857D01*
X158128572Y-114371429D01*
X158100001Y-114342857D01*
X158128572Y-114314286D01*
X158128572Y-114371429D01*
X158728572Y-114371429D02*
X158385715Y-114371429D01*
X158557143Y-114371429D02*
X158557143Y-113771429D01*
X158500000Y-113857143D01*
X158442858Y-113914286D01*
X158385715Y-113942857D01*
X159242858Y-113971429D02*
X159242858Y-114371429D01*
X158985715Y-113971429D02*
X158985715Y-114285714D01*
X159014287Y-114342857D01*
X159071429Y-114371429D01*
X159157144Y-114371429D01*
X159214287Y-114342857D01*
X159242858Y-114314286D01*
X151600000Y-114314286D02*
X151571429Y-114342857D01*
X151485715Y-114371429D01*
X151428572Y-114371429D01*
X151342857Y-114342857D01*
X151285715Y-114285714D01*
X151257143Y-114228571D01*
X151228572Y-114114286D01*
X151228572Y-114028571D01*
X151257143Y-113914286D01*
X151285715Y-113857143D01*
X151342857Y-113800000D01*
X151428572Y-113771429D01*
X151485715Y-113771429D01*
X151571429Y-113800000D01*
X151600000Y-113828571D01*
X151942857Y-114028571D02*
X151885715Y-114000000D01*
X151857143Y-113971429D01*
X151828572Y-113914286D01*
X151828572Y-113885714D01*
X151857143Y-113828571D01*
X151885715Y-113800000D01*
X151942857Y-113771429D01*
X152057143Y-113771429D01*
X152114286Y-113800000D01*
X152142857Y-113828571D01*
X152171429Y-113885714D01*
X152171429Y-113914286D01*
X152142857Y-113971429D01*
X152114286Y-114000000D01*
X152057143Y-114028571D01*
X151942857Y-114028571D01*
X151885715Y-114057143D01*
X151857143Y-114085714D01*
X151828572Y-114142857D01*
X151828572Y-114257143D01*
X151857143Y-114314286D01*
X151885715Y-114342857D01*
X151942857Y-114371429D01*
X152057143Y-114371429D01*
X152114286Y-114342857D01*
X152142857Y-114314286D01*
X152171429Y-114257143D01*
X152171429Y-114142857D01*
X152142857Y-114085714D01*
X152114286Y-114057143D01*
X152057143Y-114028571D01*
X150414286Y-113071429D02*
X150071429Y-113071429D01*
X150242857Y-113071429D02*
X150242857Y-112471429D01*
X150185714Y-112557143D01*
X150128572Y-112614286D01*
X150071429Y-112642857D01*
X150785715Y-112471429D02*
X150842858Y-112471429D01*
X150900001Y-112500000D01*
X150928572Y-112528571D01*
X150957143Y-112585714D01*
X150985715Y-112700000D01*
X150985715Y-112842857D01*
X150957143Y-112957143D01*
X150928572Y-113014286D01*
X150900001Y-113042857D01*
X150842858Y-113071429D01*
X150785715Y-113071429D01*
X150728572Y-113042857D01*
X150700001Y-113014286D01*
X150671429Y-112957143D01*
X150642858Y-112842857D01*
X150642858Y-112700000D01*
X150671429Y-112585714D01*
X150700001Y-112528571D01*
X150728572Y-112500000D01*
X150785715Y-112471429D01*
X151500001Y-112671429D02*
X151500001Y-113071429D01*
X151242858Y-112671429D02*
X151242858Y-112985714D01*
X151271430Y-113042857D01*
X151328572Y-113071429D01*
X151414287Y-113071429D01*
X151471430Y-113042857D01*
X151500001Y-113014286D01*
X168900000Y-121614286D02*
X168871429Y-121642857D01*
X168785715Y-121671429D01*
X168728572Y-121671429D01*
X168642857Y-121642857D01*
X168585715Y-121585714D01*
X168557143Y-121528571D01*
X168528572Y-121414286D01*
X168528572Y-121328571D01*
X168557143Y-121214286D01*
X168585715Y-121157143D01*
X168642857Y-121100000D01*
X168728572Y-121071429D01*
X168785715Y-121071429D01*
X168871429Y-121100000D01*
X168900000Y-121128571D01*
X169185715Y-121671429D02*
X169300000Y-121671429D01*
X169357143Y-121642857D01*
X169385715Y-121614286D01*
X169442857Y-121528571D01*
X169471429Y-121414286D01*
X169471429Y-121185714D01*
X169442857Y-121128571D01*
X169414286Y-121100000D01*
X169357143Y-121071429D01*
X169242857Y-121071429D01*
X169185715Y-121100000D01*
X169157143Y-121128571D01*
X169128572Y-121185714D01*
X169128572Y-121328571D01*
X169157143Y-121385714D01*
X169185715Y-121414286D01*
X169242857Y-121442857D01*
X169357143Y-121442857D01*
X169414286Y-121414286D01*
X169442857Y-121385714D01*
X169471429Y-121328571D01*
X166700000Y-121371429D02*
X166357143Y-121371429D01*
X166528571Y-121371429D02*
X166528571Y-120771429D01*
X166471428Y-120857143D01*
X166414286Y-120914286D01*
X166357143Y-120942857D01*
X167214286Y-120971429D02*
X167214286Y-121371429D01*
X166957143Y-120971429D02*
X166957143Y-121285714D01*
X166985715Y-121342857D01*
X167042857Y-121371429D01*
X167128572Y-121371429D01*
X167185715Y-121342857D01*
X167214286Y-121314286D01*
X151614285Y-116514286D02*
X151585714Y-116542857D01*
X151500000Y-116571429D01*
X151442857Y-116571429D01*
X151357142Y-116542857D01*
X151300000Y-116485714D01*
X151271428Y-116428571D01*
X151242857Y-116314286D01*
X151242857Y-116228571D01*
X151271428Y-116114286D01*
X151300000Y-116057143D01*
X151357142Y-116000000D01*
X151442857Y-115971429D01*
X151500000Y-115971429D01*
X151585714Y-116000000D01*
X151614285Y-116028571D01*
X152185714Y-116571429D02*
X151842857Y-116571429D01*
X152014285Y-116571429D02*
X152014285Y-115971429D01*
X151957142Y-116057143D01*
X151900000Y-116114286D01*
X151842857Y-116142857D01*
X152557143Y-115971429D02*
X152614286Y-115971429D01*
X152671429Y-116000000D01*
X152700000Y-116028571D01*
X152728571Y-116085714D01*
X152757143Y-116200000D01*
X152757143Y-116342857D01*
X152728571Y-116457143D01*
X152700000Y-116514286D01*
X152671429Y-116542857D01*
X152614286Y-116571429D01*
X152557143Y-116571429D01*
X152500000Y-116542857D01*
X152471429Y-116514286D01*
X152442857Y-116457143D01*
X152414286Y-116342857D01*
X152414286Y-116200000D01*
X152442857Y-116085714D01*
X152471429Y-116028571D01*
X152500000Y-116000000D01*
X152557143Y-115971429D01*
X150571429Y-117171429D02*
X150628572Y-117171429D01*
X150685715Y-117200000D01*
X150714286Y-117228571D01*
X150742857Y-117285714D01*
X150771429Y-117400000D01*
X150771429Y-117542857D01*
X150742857Y-117657143D01*
X150714286Y-117714286D01*
X150685715Y-117742857D01*
X150628572Y-117771429D01*
X150571429Y-117771429D01*
X150514286Y-117742857D01*
X150485715Y-117714286D01*
X150457143Y-117657143D01*
X150428572Y-117542857D01*
X150428572Y-117400000D01*
X150457143Y-117285714D01*
X150485715Y-117228571D01*
X150514286Y-117200000D01*
X150571429Y-117171429D01*
X151028572Y-117714286D02*
X151057144Y-117742857D01*
X151028572Y-117771429D01*
X151000001Y-117742857D01*
X151028572Y-117714286D01*
X151028572Y-117771429D01*
X151628572Y-117771429D02*
X151285715Y-117771429D01*
X151457143Y-117771429D02*
X151457143Y-117171429D01*
X151400000Y-117257143D01*
X151342858Y-117314286D01*
X151285715Y-117342857D01*
X152142858Y-117371429D02*
X152142858Y-117771429D01*
X151885715Y-117371429D02*
X151885715Y-117685714D01*
X151914287Y-117742857D01*
X151971429Y-117771429D01*
X152057144Y-117771429D01*
X152114287Y-117742857D01*
X152142858Y-117714286D01*
X166814285Y-111614286D02*
X166785714Y-111642857D01*
X166700000Y-111671429D01*
X166642857Y-111671429D01*
X166557142Y-111642857D01*
X166500000Y-111585714D01*
X166471428Y-111528571D01*
X166442857Y-111414286D01*
X166442857Y-111328571D01*
X166471428Y-111214286D01*
X166500000Y-111157143D01*
X166557142Y-111100000D01*
X166642857Y-111071429D01*
X166700000Y-111071429D01*
X166785714Y-111100000D01*
X166814285Y-111128571D01*
X167385714Y-111671429D02*
X167042857Y-111671429D01*
X167214285Y-111671429D02*
X167214285Y-111071429D01*
X167157142Y-111157143D01*
X167100000Y-111214286D01*
X167042857Y-111242857D01*
X167957143Y-111671429D02*
X167614286Y-111671429D01*
X167785714Y-111671429D02*
X167785714Y-111071429D01*
X167728571Y-111157143D01*
X167671429Y-111214286D01*
X167614286Y-111242857D01*
X166471429Y-109871429D02*
X166528572Y-109871429D01*
X166585715Y-109900000D01*
X166614286Y-109928571D01*
X166642857Y-109985714D01*
X166671429Y-110100000D01*
X166671429Y-110242857D01*
X166642857Y-110357143D01*
X166614286Y-110414286D01*
X166585715Y-110442857D01*
X166528572Y-110471429D01*
X166471429Y-110471429D01*
X166414286Y-110442857D01*
X166385715Y-110414286D01*
X166357143Y-110357143D01*
X166328572Y-110242857D01*
X166328572Y-110100000D01*
X166357143Y-109985714D01*
X166385715Y-109928571D01*
X166414286Y-109900000D01*
X166471429Y-109871429D01*
X166928572Y-110414286D02*
X166957144Y-110442857D01*
X166928572Y-110471429D01*
X166900001Y-110442857D01*
X166928572Y-110414286D01*
X166928572Y-110471429D01*
X167528572Y-110471429D02*
X167185715Y-110471429D01*
X167357143Y-110471429D02*
X167357143Y-109871429D01*
X167300000Y-109957143D01*
X167242858Y-110014286D01*
X167185715Y-110042857D01*
X168042858Y-110071429D02*
X168042858Y-110471429D01*
X167785715Y-110071429D02*
X167785715Y-110385714D01*
X167814287Y-110442857D01*
X167871429Y-110471429D01*
X167957144Y-110471429D01*
X168014287Y-110442857D01*
X168042858Y-110414286D01*
X164314286Y-112585715D02*
X164342857Y-112614286D01*
X164371429Y-112700000D01*
X164371429Y-112757143D01*
X164342857Y-112842858D01*
X164285714Y-112900000D01*
X164228571Y-112928572D01*
X164114286Y-112957143D01*
X164028571Y-112957143D01*
X163914286Y-112928572D01*
X163857143Y-112900000D01*
X163800000Y-112842858D01*
X163771429Y-112757143D01*
X163771429Y-112700000D01*
X163800000Y-112614286D01*
X163828571Y-112585715D01*
X164371429Y-112014286D02*
X164371429Y-112357143D01*
X164371429Y-112185715D02*
X163771429Y-112185715D01*
X163857143Y-112242858D01*
X163914286Y-112300000D01*
X163942857Y-112357143D01*
X163828571Y-111785714D02*
X163800000Y-111757143D01*
X163771429Y-111700000D01*
X163771429Y-111557143D01*
X163800000Y-111500000D01*
X163828571Y-111471429D01*
X163885714Y-111442857D01*
X163942857Y-111442857D01*
X164028571Y-111471429D01*
X164371429Y-111814286D01*
X164371429Y-111442857D01*
X162871429Y-112485714D02*
X162871429Y-112828571D01*
X162871429Y-112657143D02*
X162271429Y-112657143D01*
X162357143Y-112714286D01*
X162414286Y-112771428D01*
X162442857Y-112828571D01*
X162271429Y-112114285D02*
X162271429Y-112057142D01*
X162300000Y-111999999D01*
X162328571Y-111971428D01*
X162385714Y-111942857D01*
X162500000Y-111914285D01*
X162642857Y-111914285D01*
X162757143Y-111942857D01*
X162814286Y-111971428D01*
X162842857Y-111999999D01*
X162871429Y-112057142D01*
X162871429Y-112114285D01*
X162842857Y-112171428D01*
X162814286Y-112199999D01*
X162757143Y-112228571D01*
X162642857Y-112257142D01*
X162500000Y-112257142D01*
X162385714Y-112228571D01*
X162328571Y-112199999D01*
X162300000Y-112171428D01*
X162271429Y-112114285D01*
X162471429Y-111399999D02*
X162871429Y-111399999D01*
X162471429Y-111657142D02*
X162785714Y-111657142D01*
X162842857Y-111628570D01*
X162871429Y-111571428D01*
X162871429Y-111485713D01*
X162842857Y-111428570D01*
X162814286Y-111399999D01*
X142414285Y-114114286D02*
X142385714Y-114142857D01*
X142300000Y-114171429D01*
X142242857Y-114171429D01*
X142157142Y-114142857D01*
X142100000Y-114085714D01*
X142071428Y-114028571D01*
X142042857Y-113914286D01*
X142042857Y-113828571D01*
X142071428Y-113714286D01*
X142100000Y-113657143D01*
X142157142Y-113600000D01*
X142242857Y-113571429D01*
X142300000Y-113571429D01*
X142385714Y-113600000D01*
X142414285Y-113628571D01*
X142985714Y-114171429D02*
X142642857Y-114171429D01*
X142814285Y-114171429D02*
X142814285Y-113571429D01*
X142757142Y-113657143D01*
X142700000Y-113714286D01*
X142642857Y-113742857D01*
X143185714Y-113571429D02*
X143557143Y-113571429D01*
X143357143Y-113800000D01*
X143442857Y-113800000D01*
X143500000Y-113828571D01*
X143528571Y-113857143D01*
X143557143Y-113914286D01*
X143557143Y-114057143D01*
X143528571Y-114114286D01*
X143500000Y-114142857D01*
X143442857Y-114171429D01*
X143271429Y-114171429D01*
X143214286Y-114142857D01*
X143185714Y-114114286D01*
X140671429Y-114185714D02*
X140671429Y-114528571D01*
X140671429Y-114357143D02*
X140071429Y-114357143D01*
X140157143Y-114414286D01*
X140214286Y-114471428D01*
X140242857Y-114528571D01*
X140071429Y-113814285D02*
X140071429Y-113757142D01*
X140100000Y-113699999D01*
X140128571Y-113671428D01*
X140185714Y-113642857D01*
X140300000Y-113614285D01*
X140442857Y-113614285D01*
X140557143Y-113642857D01*
X140614286Y-113671428D01*
X140642857Y-113699999D01*
X140671429Y-113757142D01*
X140671429Y-113814285D01*
X140642857Y-113871428D01*
X140614286Y-113899999D01*
X140557143Y-113928571D01*
X140442857Y-113957142D01*
X140300000Y-113957142D01*
X140185714Y-113928571D01*
X140128571Y-113899999D01*
X140100000Y-113871428D01*
X140071429Y-113814285D01*
X140271429Y-113099999D02*
X140671429Y-113099999D01*
X140271429Y-113357142D02*
X140585714Y-113357142D01*
X140642857Y-113328570D01*
X140671429Y-113271428D01*
X140671429Y-113185713D01*
X140642857Y-113128570D01*
X140614286Y-113099999D01*
X140614285Y-112014286D02*
X140585714Y-112042857D01*
X140500000Y-112071429D01*
X140442857Y-112071429D01*
X140357142Y-112042857D01*
X140300000Y-111985714D01*
X140271428Y-111928571D01*
X140242857Y-111814286D01*
X140242857Y-111728571D01*
X140271428Y-111614286D01*
X140300000Y-111557143D01*
X140357142Y-111500000D01*
X140442857Y-111471429D01*
X140500000Y-111471429D01*
X140585714Y-111500000D01*
X140614285Y-111528571D01*
X141185714Y-112071429D02*
X140842857Y-112071429D01*
X141014285Y-112071429D02*
X141014285Y-111471429D01*
X140957142Y-111557143D01*
X140900000Y-111614286D01*
X140842857Y-111642857D01*
X141700000Y-111671429D02*
X141700000Y-112071429D01*
X141557143Y-111442857D02*
X141414286Y-111871429D01*
X141785714Y-111871429D01*
X140371429Y-110171429D02*
X140428572Y-110171429D01*
X140485715Y-110200000D01*
X140514286Y-110228571D01*
X140542857Y-110285714D01*
X140571429Y-110400000D01*
X140571429Y-110542857D01*
X140542857Y-110657143D01*
X140514286Y-110714286D01*
X140485715Y-110742857D01*
X140428572Y-110771429D01*
X140371429Y-110771429D01*
X140314286Y-110742857D01*
X140285715Y-110714286D01*
X140257143Y-110657143D01*
X140228572Y-110542857D01*
X140228572Y-110400000D01*
X140257143Y-110285714D01*
X140285715Y-110228571D01*
X140314286Y-110200000D01*
X140371429Y-110171429D01*
X140828572Y-110714286D02*
X140857144Y-110742857D01*
X140828572Y-110771429D01*
X140800001Y-110742857D01*
X140828572Y-110714286D01*
X140828572Y-110771429D01*
X141428572Y-110771429D02*
X141085715Y-110771429D01*
X141257143Y-110771429D02*
X141257143Y-110171429D01*
X141200000Y-110257143D01*
X141142858Y-110314286D01*
X141085715Y-110342857D01*
X141942858Y-110371429D02*
X141942858Y-110771429D01*
X141685715Y-110371429D02*
X141685715Y-110685714D01*
X141714287Y-110742857D01*
X141771429Y-110771429D01*
X141857144Y-110771429D01*
X141914287Y-110742857D01*
X141942858Y-110714286D01*
X147414285Y-123714286D02*
X147385714Y-123742857D01*
X147300000Y-123771429D01*
X147242857Y-123771429D01*
X147157142Y-123742857D01*
X147100000Y-123685714D01*
X147071428Y-123628571D01*
X147042857Y-123514286D01*
X147042857Y-123428571D01*
X147071428Y-123314286D01*
X147100000Y-123257143D01*
X147157142Y-123200000D01*
X147242857Y-123171429D01*
X147300000Y-123171429D01*
X147385714Y-123200000D01*
X147414285Y-123228571D01*
X147985714Y-123771429D02*
X147642857Y-123771429D01*
X147814285Y-123771429D02*
X147814285Y-123171429D01*
X147757142Y-123257143D01*
X147700000Y-123314286D01*
X147642857Y-123342857D01*
X148528571Y-123171429D02*
X148242857Y-123171429D01*
X148214286Y-123457143D01*
X148242857Y-123428571D01*
X148300000Y-123400000D01*
X148442857Y-123400000D01*
X148500000Y-123428571D01*
X148528571Y-123457143D01*
X148557143Y-123514286D01*
X148557143Y-123657143D01*
X148528571Y-123714286D01*
X148500000Y-123742857D01*
X148442857Y-123771429D01*
X148300000Y-123771429D01*
X148242857Y-123742857D01*
X148214286Y-123714286D01*
X146714286Y-124428571D02*
X146742857Y-124400000D01*
X146800000Y-124371429D01*
X146942857Y-124371429D01*
X147000000Y-124400000D01*
X147028571Y-124428571D01*
X147057143Y-124485714D01*
X147057143Y-124542857D01*
X147028571Y-124628571D01*
X146685714Y-124971429D01*
X147057143Y-124971429D01*
X147428572Y-124371429D02*
X147485715Y-124371429D01*
X147542858Y-124400000D01*
X147571429Y-124428571D01*
X147600000Y-124485714D01*
X147628572Y-124600000D01*
X147628572Y-124742857D01*
X147600000Y-124857143D01*
X147571429Y-124914286D01*
X147542858Y-124942857D01*
X147485715Y-124971429D01*
X147428572Y-124971429D01*
X147371429Y-124942857D01*
X147342858Y-124914286D01*
X147314286Y-124857143D01*
X147285715Y-124742857D01*
X147285715Y-124600000D01*
X147314286Y-124485714D01*
X147342858Y-124428571D01*
X147371429Y-124400000D01*
X147428572Y-124371429D01*
X147885715Y-124571429D02*
X147885715Y-125171429D01*
X147885715Y-124600000D02*
X147942858Y-124571429D01*
X148057144Y-124571429D01*
X148114287Y-124600000D01*
X148142858Y-124628571D01*
X148171429Y-124685714D01*
X148171429Y-124857143D01*
X148142858Y-124914286D01*
X148114287Y-124942857D01*
X148057144Y-124971429D01*
X147942858Y-124971429D01*
X147885715Y-124942857D01*
X148628572Y-124657143D02*
X148428572Y-124657143D01*
X148428572Y-124971429D02*
X148428572Y-124371429D01*
X148714286Y-124371429D01*
X133514286Y-113585715D02*
X133542857Y-113614286D01*
X133571429Y-113700000D01*
X133571429Y-113757143D01*
X133542857Y-113842858D01*
X133485714Y-113900000D01*
X133428571Y-113928572D01*
X133314286Y-113957143D01*
X133228571Y-113957143D01*
X133114286Y-113928572D01*
X133057143Y-113900000D01*
X133000000Y-113842858D01*
X132971429Y-113757143D01*
X132971429Y-113700000D01*
X133000000Y-113614286D01*
X133028571Y-113585715D01*
X133571429Y-113014286D02*
X133571429Y-113357143D01*
X133571429Y-113185715D02*
X132971429Y-113185715D01*
X133057143Y-113242858D01*
X133114286Y-113300000D01*
X133142857Y-113357143D01*
X132971429Y-112500000D02*
X132971429Y-112614286D01*
X133000000Y-112671429D01*
X133028571Y-112700000D01*
X133114286Y-112757143D01*
X133228571Y-112785714D01*
X133457143Y-112785714D01*
X133514286Y-112757143D01*
X133542857Y-112728571D01*
X133571429Y-112671429D01*
X133571429Y-112557143D01*
X133542857Y-112500000D01*
X133514286Y-112471429D01*
X133457143Y-112442857D01*
X133314286Y-112442857D01*
X133257143Y-112471429D01*
X133228571Y-112500000D01*
X133200000Y-112557143D01*
X133200000Y-112671429D01*
X133228571Y-112728571D01*
X133257143Y-112757143D01*
X133314286Y-112785714D01*
X132871429Y-116728571D02*
X132871429Y-116671428D01*
X132900000Y-116614285D01*
X132928571Y-116585714D01*
X132985714Y-116557143D01*
X133100000Y-116528571D01*
X133242857Y-116528571D01*
X133357143Y-116557143D01*
X133414286Y-116585714D01*
X133442857Y-116614285D01*
X133471429Y-116671428D01*
X133471429Y-116728571D01*
X133442857Y-116785714D01*
X133414286Y-116814285D01*
X133357143Y-116842857D01*
X133242857Y-116871428D01*
X133100000Y-116871428D01*
X132985714Y-116842857D01*
X132928571Y-116814285D01*
X132900000Y-116785714D01*
X132871429Y-116728571D01*
X133414286Y-116271428D02*
X133442857Y-116242856D01*
X133471429Y-116271428D01*
X133442857Y-116299999D01*
X133414286Y-116271428D01*
X133471429Y-116271428D01*
X133471429Y-115671428D02*
X133471429Y-116014285D01*
X133471429Y-115842857D02*
X132871429Y-115842857D01*
X132957143Y-115900000D01*
X133014286Y-115957142D01*
X133042857Y-116014285D01*
X133071429Y-115157142D02*
X133471429Y-115157142D01*
X133071429Y-115414285D02*
X133385714Y-115414285D01*
X133442857Y-115385713D01*
X133471429Y-115328571D01*
X133471429Y-115242856D01*
X133442857Y-115185713D01*
X133414286Y-115157142D01*
X147314285Y-115314286D02*
X147285714Y-115342857D01*
X147200000Y-115371429D01*
X147142857Y-115371429D01*
X147057142Y-115342857D01*
X147000000Y-115285714D01*
X146971428Y-115228571D01*
X146942857Y-115114286D01*
X146942857Y-115028571D01*
X146971428Y-114914286D01*
X147000000Y-114857143D01*
X147057142Y-114800000D01*
X147142857Y-114771429D01*
X147200000Y-114771429D01*
X147285714Y-114800000D01*
X147314285Y-114828571D01*
X147885714Y-115371429D02*
X147542857Y-115371429D01*
X147714285Y-115371429D02*
X147714285Y-114771429D01*
X147657142Y-114857143D01*
X147600000Y-114914286D01*
X147542857Y-114942857D01*
X148085714Y-114771429D02*
X148485714Y-114771429D01*
X148228571Y-115371429D01*
X147014286Y-113528571D02*
X147042857Y-113500000D01*
X147100000Y-113471429D01*
X147242857Y-113471429D01*
X147300000Y-113500000D01*
X147328571Y-113528571D01*
X147357143Y-113585714D01*
X147357143Y-113642857D01*
X147328571Y-113728571D01*
X146985714Y-114071429D01*
X147357143Y-114071429D01*
X147728572Y-113471429D02*
X147785715Y-113471429D01*
X147842858Y-113500000D01*
X147871429Y-113528571D01*
X147900000Y-113585714D01*
X147928572Y-113700000D01*
X147928572Y-113842857D01*
X147900000Y-113957143D01*
X147871429Y-114014286D01*
X147842858Y-114042857D01*
X147785715Y-114071429D01*
X147728572Y-114071429D01*
X147671429Y-114042857D01*
X147642858Y-114014286D01*
X147614286Y-113957143D01*
X147585715Y-113842857D01*
X147585715Y-113700000D01*
X147614286Y-113585714D01*
X147642858Y-113528571D01*
X147671429Y-113500000D01*
X147728572Y-113471429D01*
X148185715Y-113671429D02*
X148185715Y-114271429D01*
X148185715Y-113700000D02*
X148242858Y-113671429D01*
X148357144Y-113671429D01*
X148414287Y-113700000D01*
X148442858Y-113728571D01*
X148471429Y-113785714D01*
X148471429Y-113957143D01*
X148442858Y-114014286D01*
X148414287Y-114042857D01*
X148357144Y-114071429D01*
X148242858Y-114071429D01*
X148185715Y-114042857D01*
X148928572Y-113757143D02*
X148728572Y-113757143D01*
X148728572Y-114071429D02*
X148728572Y-113471429D01*
X149014286Y-113471429D01*
X122814286Y-125385715D02*
X122842857Y-125414286D01*
X122871429Y-125500000D01*
X122871429Y-125557143D01*
X122842857Y-125642858D01*
X122785714Y-125700000D01*
X122728571Y-125728572D01*
X122614286Y-125757143D01*
X122528571Y-125757143D01*
X122414286Y-125728572D01*
X122357143Y-125700000D01*
X122300000Y-125642858D01*
X122271429Y-125557143D01*
X122271429Y-125500000D01*
X122300000Y-125414286D01*
X122328571Y-125385715D01*
X122871429Y-124814286D02*
X122871429Y-125157143D01*
X122871429Y-124985715D02*
X122271429Y-124985715D01*
X122357143Y-125042858D01*
X122414286Y-125100000D01*
X122442857Y-125157143D01*
X122528571Y-124471429D02*
X122500000Y-124528571D01*
X122471429Y-124557143D01*
X122414286Y-124585714D01*
X122385714Y-124585714D01*
X122328571Y-124557143D01*
X122300000Y-124528571D01*
X122271429Y-124471429D01*
X122271429Y-124357143D01*
X122300000Y-124300000D01*
X122328571Y-124271429D01*
X122385714Y-124242857D01*
X122414286Y-124242857D01*
X122471429Y-124271429D01*
X122500000Y-124300000D01*
X122528571Y-124357143D01*
X122528571Y-124471429D01*
X122557143Y-124528571D01*
X122585714Y-124557143D01*
X122642857Y-124585714D01*
X122757143Y-124585714D01*
X122814286Y-124557143D01*
X122842857Y-124528571D01*
X122871429Y-124471429D01*
X122871429Y-124357143D01*
X122842857Y-124300000D01*
X122814286Y-124271429D01*
X122757143Y-124242857D01*
X122642857Y-124242857D01*
X122585714Y-124271429D01*
X122557143Y-124300000D01*
X122528571Y-124357143D01*
X122271429Y-123028571D02*
X122271429Y-122971428D01*
X122300000Y-122914285D01*
X122328571Y-122885714D01*
X122385714Y-122857143D01*
X122500000Y-122828571D01*
X122642857Y-122828571D01*
X122757143Y-122857143D01*
X122814286Y-122885714D01*
X122842857Y-122914285D01*
X122871429Y-122971428D01*
X122871429Y-123028571D01*
X122842857Y-123085714D01*
X122814286Y-123114285D01*
X122757143Y-123142857D01*
X122642857Y-123171428D01*
X122500000Y-123171428D01*
X122385714Y-123142857D01*
X122328571Y-123114285D01*
X122300000Y-123085714D01*
X122271429Y-123028571D01*
X122814286Y-122571428D02*
X122842857Y-122542856D01*
X122871429Y-122571428D01*
X122842857Y-122599999D01*
X122814286Y-122571428D01*
X122871429Y-122571428D01*
X122871429Y-121971428D02*
X122871429Y-122314285D01*
X122871429Y-122142857D02*
X122271429Y-122142857D01*
X122357143Y-122200000D01*
X122414286Y-122257142D01*
X122442857Y-122314285D01*
X122471429Y-121457142D02*
X122871429Y-121457142D01*
X122471429Y-121714285D02*
X122785714Y-121714285D01*
X122842857Y-121685713D01*
X122871429Y-121628571D01*
X122871429Y-121542856D01*
X122842857Y-121485713D01*
X122814286Y-121457142D01*
X126314286Y-113485715D02*
X126342857Y-113514286D01*
X126371429Y-113600000D01*
X126371429Y-113657143D01*
X126342857Y-113742858D01*
X126285714Y-113800000D01*
X126228571Y-113828572D01*
X126114286Y-113857143D01*
X126028571Y-113857143D01*
X125914286Y-113828572D01*
X125857143Y-113800000D01*
X125800000Y-113742858D01*
X125771429Y-113657143D01*
X125771429Y-113600000D01*
X125800000Y-113514286D01*
X125828571Y-113485715D01*
X126371429Y-112914286D02*
X126371429Y-113257143D01*
X126371429Y-113085715D02*
X125771429Y-113085715D01*
X125857143Y-113142858D01*
X125914286Y-113200000D01*
X125942857Y-113257143D01*
X126371429Y-112628571D02*
X126371429Y-112514286D01*
X126342857Y-112457143D01*
X126314286Y-112428571D01*
X126228571Y-112371429D01*
X126114286Y-112342857D01*
X125885714Y-112342857D01*
X125828571Y-112371429D01*
X125800000Y-112400000D01*
X125771429Y-112457143D01*
X125771429Y-112571429D01*
X125800000Y-112628571D01*
X125828571Y-112657143D01*
X125885714Y-112685714D01*
X126028571Y-112685714D01*
X126085714Y-112657143D01*
X126114286Y-112628571D01*
X126142857Y-112571429D01*
X126142857Y-112457143D01*
X126114286Y-112400000D01*
X126085714Y-112371429D01*
X126028571Y-112342857D01*
X125571429Y-116628571D02*
X125571429Y-116571428D01*
X125600000Y-116514285D01*
X125628571Y-116485714D01*
X125685714Y-116457143D01*
X125800000Y-116428571D01*
X125942857Y-116428571D01*
X126057143Y-116457143D01*
X126114286Y-116485714D01*
X126142857Y-116514285D01*
X126171429Y-116571428D01*
X126171429Y-116628571D01*
X126142857Y-116685714D01*
X126114286Y-116714285D01*
X126057143Y-116742857D01*
X125942857Y-116771428D01*
X125800000Y-116771428D01*
X125685714Y-116742857D01*
X125628571Y-116714285D01*
X125600000Y-116685714D01*
X125571429Y-116628571D01*
X126114286Y-116171428D02*
X126142857Y-116142856D01*
X126171429Y-116171428D01*
X126142857Y-116199999D01*
X126114286Y-116171428D01*
X126171429Y-116171428D01*
X126171429Y-115571428D02*
X126171429Y-115914285D01*
X126171429Y-115742857D02*
X125571429Y-115742857D01*
X125657143Y-115800000D01*
X125714286Y-115857142D01*
X125742857Y-115914285D01*
X125771429Y-115057142D02*
X126171429Y-115057142D01*
X125771429Y-115314285D02*
X126085714Y-115314285D01*
X126142857Y-115285713D01*
X126171429Y-115228571D01*
X126171429Y-115142856D01*
X126142857Y-115085713D01*
X126114286Y-115057142D01*
D12*
X165442243Y-117843883D02*
X165470788Y-117758249D01*
X165499332Y-117729704D01*
X165556422Y-117701159D01*
X165642056Y-117701159D01*
X165699146Y-117729704D01*
X165727690Y-117758249D01*
X165756235Y-117815338D01*
X165756235Y-118043696D01*
X165156795Y-118043696D01*
X165156795Y-117843883D01*
X165185340Y-117786793D01*
X165213885Y-117758249D01*
X165270974Y-117729704D01*
X165328064Y-117729704D01*
X165385153Y-117758249D01*
X165413698Y-117786793D01*
X165442243Y-117843883D01*
X165442243Y-118043696D01*
X165584967Y-117472801D02*
X165584967Y-117187353D01*
X165756235Y-117529890D02*
X165156795Y-117330077D01*
X165756235Y-117130264D01*
X165156795Y-117016084D02*
X165156795Y-116673547D01*
X165756235Y-116844816D02*
X165156795Y-116844816D01*
X165156795Y-116188287D02*
X165156795Y-116473734D01*
X165442243Y-116502279D01*
X165413698Y-116473734D01*
X165385153Y-116416645D01*
X165385153Y-116273921D01*
X165413698Y-116216831D01*
X165442243Y-116188287D01*
X165499332Y-116159742D01*
X165642056Y-116159742D01*
X165699146Y-116188287D01*
X165727690Y-116216831D01*
X165756235Y-116273921D01*
X165756235Y-116416645D01*
X165727690Y-116473734D01*
X165699146Y-116502279D01*
X165356609Y-115645936D02*
X165756235Y-115645936D01*
X165128250Y-115788660D02*
X165556422Y-115931384D01*
X165556422Y-115560302D01*
X165156795Y-115389034D02*
X165756235Y-115246310D01*
X165328064Y-115132131D01*
X165756235Y-115017952D01*
X165156795Y-114875228D01*
X165727690Y-114675415D02*
X165756235Y-114589781D01*
X165756235Y-114447057D01*
X165727690Y-114389967D01*
X165699146Y-114361423D01*
X165642056Y-114332878D01*
X165584967Y-114332878D01*
X165527877Y-114361423D01*
X165499332Y-114389967D01*
X165470788Y-114447057D01*
X165442243Y-114561236D01*
X165413698Y-114618325D01*
X165385153Y-114646870D01*
X165328064Y-114675415D01*
X165270974Y-114675415D01*
X165213885Y-114646870D01*
X165185340Y-114618325D01*
X165156795Y-114561236D01*
X165156795Y-114418512D01*
X165185340Y-114332878D01*
D11*
X170771429Y-125300000D02*
X170171429Y-125300000D01*
X170171429Y-125157143D01*
X170200000Y-125071428D01*
X170257143Y-125014286D01*
X170314286Y-124985714D01*
X170428571Y-124957143D01*
X170514286Y-124957143D01*
X170628571Y-124985714D01*
X170685714Y-125014286D01*
X170742857Y-125071428D01*
X170771429Y-125157143D01*
X170771429Y-125300000D01*
X170600000Y-124728571D02*
X170600000Y-124442857D01*
X170771429Y-124785714D02*
X170171429Y-124585714D01*
X170771429Y-124385714D01*
X170771429Y-123871428D02*
X170771429Y-124214285D01*
X170771429Y-124042857D02*
X170171429Y-124042857D01*
X170257143Y-124100000D01*
X170314286Y-124157142D01*
X170342857Y-124214285D01*
X168971429Y-126828572D02*
X168371429Y-126828572D01*
X168971429Y-126485715D01*
X168371429Y-126485715D01*
X168914286Y-125857144D02*
X168942857Y-125885715D01*
X168971429Y-125971429D01*
X168971429Y-126028572D01*
X168942857Y-126114287D01*
X168885714Y-126171429D01*
X168828571Y-126200001D01*
X168714286Y-126228572D01*
X168628571Y-126228572D01*
X168514286Y-126200001D01*
X168457143Y-126171429D01*
X168400000Y-126114287D01*
X168371429Y-126028572D01*
X168371429Y-125971429D01*
X168400000Y-125885715D01*
X168428571Y-125857144D01*
X168971429Y-125600001D02*
X168371429Y-125600001D01*
X168371429Y-125371429D01*
X168400000Y-125314287D01*
X168428571Y-125285715D01*
X168485714Y-125257144D01*
X168571429Y-125257144D01*
X168628571Y-125285715D01*
X168657143Y-125314287D01*
X168685714Y-125371429D01*
X168685714Y-125600001D01*
X168371429Y-124714287D02*
X168371429Y-125000001D01*
X168657143Y-125028572D01*
X168628571Y-125000001D01*
X168600000Y-124942858D01*
X168600000Y-124800001D01*
X168628571Y-124742858D01*
X168657143Y-124714287D01*
X168714286Y-124685715D01*
X168857143Y-124685715D01*
X168914286Y-124714287D01*
X168942857Y-124742858D01*
X168971429Y-124800001D01*
X168971429Y-124942858D01*
X168942857Y-125000001D01*
X168914286Y-125028572D01*
X168628571Y-124342858D02*
X168600000Y-124400000D01*
X168571429Y-124428572D01*
X168514286Y-124457143D01*
X168485714Y-124457143D01*
X168428571Y-124428572D01*
X168400000Y-124400000D01*
X168371429Y-124342858D01*
X168371429Y-124228572D01*
X168400000Y-124171429D01*
X168428571Y-124142858D01*
X168485714Y-124114286D01*
X168514286Y-124114286D01*
X168571429Y-124142858D01*
X168600000Y-124171429D01*
X168628571Y-124228572D01*
X168628571Y-124342858D01*
X168657143Y-124400000D01*
X168685714Y-124428572D01*
X168742857Y-124457143D01*
X168857143Y-124457143D01*
X168914286Y-124428572D01*
X168942857Y-124400000D01*
X168971429Y-124342858D01*
X168971429Y-124228572D01*
X168942857Y-124171429D01*
X168914286Y-124142858D01*
X168857143Y-124114286D01*
X168742857Y-124114286D01*
X168685714Y-124142858D01*
X168657143Y-124171429D01*
X168628571Y-124228572D01*
X168371429Y-123914286D02*
X168371429Y-123542857D01*
X168600000Y-123742857D01*
X168600000Y-123657143D01*
X168628571Y-123600000D01*
X168657143Y-123571429D01*
X168714286Y-123542857D01*
X168857143Y-123542857D01*
X168914286Y-123571429D01*
X168942857Y-123600000D01*
X168971429Y-123657143D01*
X168971429Y-123828571D01*
X168942857Y-123885714D01*
X168914286Y-123914286D01*
X168942857Y-123314285D02*
X168971429Y-123228571D01*
X168971429Y-123085714D01*
X168942857Y-123028571D01*
X168914286Y-123000000D01*
X168857143Y-122971428D01*
X168800000Y-122971428D01*
X168742857Y-123000000D01*
X168714286Y-123028571D01*
X168685714Y-123085714D01*
X168657143Y-123200000D01*
X168628571Y-123257142D01*
X168600000Y-123285714D01*
X168542857Y-123314285D01*
X168485714Y-123314285D01*
X168428571Y-123285714D01*
X168400000Y-123257142D01*
X168371429Y-123200000D01*
X168371429Y-123057142D01*
X168400000Y-122971428D01*
X169028571Y-122314285D02*
X169000000Y-122371428D01*
X168942857Y-122428571D01*
X168857143Y-122514285D01*
X168828571Y-122571428D01*
X168828571Y-122628571D01*
X168971429Y-122599999D02*
X168942857Y-122657142D01*
X168885714Y-122714285D01*
X168771429Y-122742856D01*
X168571429Y-122742856D01*
X168457143Y-122714285D01*
X168400000Y-122657142D01*
X168371429Y-122599999D01*
X168371429Y-122485713D01*
X168400000Y-122428571D01*
X168457143Y-122371428D01*
X168571429Y-122342856D01*
X168771429Y-122342856D01*
X168885714Y-122371428D01*
X168942857Y-122428571D01*
X168971429Y-122485713D01*
X168971429Y-122599999D01*
X171651429Y-122593571D02*
X171651429Y-122936428D01*
X171651429Y-122765000D02*
X171051429Y-122765000D01*
X171137143Y-122822143D01*
X171194286Y-122879285D01*
X171222857Y-122936428D01*
X169500000Y-114771429D02*
X169500000Y-114171429D01*
X169642857Y-114171429D01*
X169728572Y-114200000D01*
X169785714Y-114257143D01*
X169814286Y-114314286D01*
X169842857Y-114428571D01*
X169842857Y-114514286D01*
X169814286Y-114628571D01*
X169785714Y-114685714D01*
X169728572Y-114742857D01*
X169642857Y-114771429D01*
X169500000Y-114771429D01*
X170071429Y-114600000D02*
X170357143Y-114600000D01*
X170014286Y-114771429D02*
X170214286Y-114171429D01*
X170414286Y-114771429D01*
X170585715Y-114228571D02*
X170614286Y-114200000D01*
X170671429Y-114171429D01*
X170814286Y-114171429D01*
X170871429Y-114200000D01*
X170900000Y-114228571D01*
X170928572Y-114285714D01*
X170928572Y-114342857D01*
X170900000Y-114428571D01*
X170557143Y-114771429D01*
X170928572Y-114771429D01*
D12*
X168687262Y-116625953D02*
X168052262Y-116625953D01*
X168687262Y-116263095D01*
X168052262Y-116263095D01*
X168626786Y-115597857D02*
X168657024Y-115628095D01*
X168687262Y-115718810D01*
X168687262Y-115779286D01*
X168657024Y-115870000D01*
X168596548Y-115930476D01*
X168536071Y-115960715D01*
X168415119Y-115990953D01*
X168324405Y-115990953D01*
X168203452Y-115960715D01*
X168142976Y-115930476D01*
X168082500Y-115870000D01*
X168052262Y-115779286D01*
X168052262Y-115718810D01*
X168082500Y-115628095D01*
X168112738Y-115597857D01*
X168687262Y-115325715D02*
X168052262Y-115325715D01*
X168052262Y-115083810D01*
X168082500Y-115023334D01*
X168112738Y-114993095D01*
X168173214Y-114962857D01*
X168263929Y-114962857D01*
X168324405Y-114993095D01*
X168354643Y-115023334D01*
X168384881Y-115083810D01*
X168384881Y-115325715D01*
X168687262Y-114358095D02*
X168687262Y-114720953D01*
X168687262Y-114539524D02*
X168052262Y-114539524D01*
X168142976Y-114600000D01*
X168203452Y-114660476D01*
X168233690Y-114720953D01*
X168263929Y-113813810D02*
X168687262Y-113813810D01*
X168022024Y-113965000D02*
X168475595Y-114116191D01*
X168475595Y-113723095D01*
X168052262Y-113360238D02*
X168052262Y-113299762D01*
X168082500Y-113239286D01*
X168112738Y-113209048D01*
X168173214Y-113178810D01*
X168294167Y-113148571D01*
X168445357Y-113148571D01*
X168566310Y-113178810D01*
X168626786Y-113209048D01*
X168657024Y-113239286D01*
X168687262Y-113299762D01*
X168687262Y-113360238D01*
X168657024Y-113420714D01*
X168626786Y-113450952D01*
X168566310Y-113481191D01*
X168445357Y-113511429D01*
X168294167Y-113511429D01*
X168173214Y-113481191D01*
X168112738Y-113450952D01*
X168082500Y-113420714D01*
X168052262Y-113360238D01*
X168052262Y-112755476D02*
X168052262Y-112695000D01*
X168082500Y-112634524D01*
X168112738Y-112604286D01*
X168173214Y-112574048D01*
X168294167Y-112543809D01*
X168445357Y-112543809D01*
X168566310Y-112574048D01*
X168626786Y-112604286D01*
X168657024Y-112634524D01*
X168687262Y-112695000D01*
X168687262Y-112755476D01*
X168657024Y-112815952D01*
X168626786Y-112846190D01*
X168566310Y-112876429D01*
X168445357Y-112906667D01*
X168294167Y-112906667D01*
X168173214Y-112876429D01*
X168112738Y-112846190D01*
X168082500Y-112815952D01*
X168052262Y-112755476D01*
X156757837Y-123271175D02*
X156757837Y-122671735D01*
X156900561Y-122671735D01*
X156986195Y-122700280D01*
X157043284Y-122757370D01*
X157071829Y-122814459D01*
X157100374Y-122928638D01*
X157100374Y-123014272D01*
X157071829Y-123128451D01*
X157043284Y-123185541D01*
X156986195Y-123242630D01*
X156900561Y-123271175D01*
X156757837Y-123271175D01*
X157357277Y-123271175D02*
X157357277Y-122671735D01*
X157500001Y-122671735D01*
X157585635Y-122700280D01*
X157642724Y-122757370D01*
X157671269Y-122814459D01*
X157699814Y-122928638D01*
X157699814Y-123014272D01*
X157671269Y-123128451D01*
X157642724Y-123185541D01*
X157585635Y-123242630D01*
X157500001Y-123271175D01*
X157357277Y-123271175D01*
X158270709Y-123271175D02*
X157928172Y-123271175D01*
X158099441Y-123271175D02*
X158099441Y-122671735D01*
X158042351Y-122757370D01*
X157985262Y-122814459D01*
X157928172Y-122843004D01*
X154074630Y-121042630D02*
X154160264Y-121071175D01*
X154302988Y-121071175D01*
X154360078Y-121042630D01*
X154388622Y-121014086D01*
X154417167Y-120956996D01*
X154417167Y-120899907D01*
X154388622Y-120842817D01*
X154360078Y-120814272D01*
X154302988Y-120785728D01*
X154188809Y-120757183D01*
X154131720Y-120728638D01*
X154103175Y-120700093D01*
X154074630Y-120643004D01*
X154074630Y-120585914D01*
X154103175Y-120528825D01*
X154131720Y-120500280D01*
X154188809Y-120471735D01*
X154331533Y-120471735D01*
X154417167Y-120500280D01*
X154588436Y-120471735D02*
X154930973Y-120471735D01*
X154759704Y-121071175D02*
X154759704Y-120471735D01*
X155130786Y-121071175D02*
X155130786Y-120471735D01*
X155330599Y-120899907D01*
X155530412Y-120471735D01*
X155530412Y-121071175D01*
X155758770Y-120471735D02*
X156129852Y-120471735D01*
X155930039Y-120700093D01*
X156015673Y-120700093D01*
X156072763Y-120728638D01*
X156101307Y-120757183D01*
X156129852Y-120814272D01*
X156129852Y-120956996D01*
X156101307Y-121014086D01*
X156072763Y-121042630D01*
X156015673Y-121071175D01*
X155844405Y-121071175D01*
X155787315Y-121042630D01*
X155758770Y-121014086D01*
X156358210Y-120528825D02*
X156386755Y-120500280D01*
X156443844Y-120471735D01*
X156586568Y-120471735D01*
X156643658Y-120500280D01*
X156672202Y-120528825D01*
X156700747Y-120585914D01*
X156700747Y-120643004D01*
X156672202Y-120728638D01*
X156329665Y-121071175D01*
X156700747Y-121071175D01*
X157243097Y-121071175D02*
X156957650Y-121071175D01*
X156957650Y-120471735D01*
X157756903Y-121071175D02*
X157414366Y-121071175D01*
X157585635Y-121071175D02*
X157585635Y-120471735D01*
X157528545Y-120557370D01*
X157471456Y-120614459D01*
X157414366Y-120643004D01*
X158299253Y-120471735D02*
X158013806Y-120471735D01*
X157985261Y-120757183D01*
X158013806Y-120728638D01*
X158070895Y-120700093D01*
X158213619Y-120700093D01*
X158270709Y-120728638D01*
X158299253Y-120757183D01*
X158327798Y-120814272D01*
X158327798Y-120956996D01*
X158299253Y-121014086D01*
X158270709Y-121042630D01*
X158213619Y-121071175D01*
X158070895Y-121071175D01*
X158013806Y-121042630D01*
X157985261Y-121014086D01*
X158898693Y-121071175D02*
X158556156Y-121071175D01*
X158727425Y-121071175D02*
X158727425Y-120471735D01*
X158670335Y-120557370D01*
X158613246Y-120614459D01*
X158556156Y-120643004D01*
X159498133Y-121014086D02*
X159469588Y-121042630D01*
X159383954Y-121071175D01*
X159326864Y-121071175D01*
X159241230Y-121042630D01*
X159184141Y-120985541D01*
X159155596Y-120928451D01*
X159127051Y-120814272D01*
X159127051Y-120728638D01*
X159155596Y-120614459D01*
X159184141Y-120557370D01*
X159241230Y-120500280D01*
X159326864Y-120471735D01*
X159383954Y-120471735D01*
X159469588Y-120500280D01*
X159498133Y-120528825D01*
X159697946Y-121071175D02*
X160011939Y-120671549D01*
X159697946Y-120671549D02*
X160011939Y-121071175D01*
X160154663Y-120471735D02*
X160497200Y-120471735D01*
X160325931Y-121071175D02*
X160325931Y-120471735D01*
X160639923Y-121071175D02*
X160953916Y-120671549D01*
X160639923Y-120671549D02*
X160953916Y-121071175D01*
D11*
X153670715Y-117174381D02*
X153099286Y-117174381D01*
X153385000Y-117174381D02*
X153385000Y-116174381D01*
X153289762Y-116317238D01*
X153194524Y-116412476D01*
X153099286Y-116460095D01*
X170200000Y-118871429D02*
X169914286Y-118871429D01*
X169914286Y-118271429D01*
X170714286Y-118871429D02*
X170371429Y-118871429D01*
X170542857Y-118871429D02*
X170542857Y-118271429D01*
X170485714Y-118357143D01*
X170428572Y-118414286D01*
X170371429Y-118442857D01*
X165857143Y-118928571D02*
X165885714Y-118900000D01*
X165942857Y-118871429D01*
X166085714Y-118871429D01*
X166142857Y-118900000D01*
X166171428Y-118928571D01*
X166200000Y-118985714D01*
X166200000Y-119042857D01*
X166171428Y-119128571D01*
X165828571Y-119471429D01*
X166200000Y-119471429D01*
X166428572Y-118928571D02*
X166457143Y-118900000D01*
X166514286Y-118871429D01*
X166657143Y-118871429D01*
X166714286Y-118900000D01*
X166742857Y-118928571D01*
X166771429Y-118985714D01*
X166771429Y-119042857D01*
X166742857Y-119128571D01*
X166400000Y-119471429D01*
X166771429Y-119471429D01*
X167285715Y-119071429D02*
X167285715Y-119471429D01*
X167028572Y-119071429D02*
X167028572Y-119385714D01*
X167057144Y-119442857D01*
X167114286Y-119471429D01*
X167200001Y-119471429D01*
X167257144Y-119442857D01*
X167285715Y-119414286D01*
X167571429Y-119471429D02*
X167571429Y-118871429D01*
X167571429Y-119157143D02*
X167914286Y-119157143D01*
X167914286Y-119471429D02*
X167914286Y-118871429D01*
X136428571Y-113357143D02*
X136400000Y-113414286D01*
X136342857Y-113471429D01*
X136257143Y-113557143D01*
X136228571Y-113614286D01*
X136228571Y-113671429D01*
X136371429Y-113642857D02*
X136342857Y-113700000D01*
X136285714Y-113757143D01*
X136171429Y-113785714D01*
X135971429Y-113785714D01*
X135857143Y-113757143D01*
X135800000Y-113700000D01*
X135771429Y-113642857D01*
X135771429Y-113528571D01*
X135800000Y-113471429D01*
X135857143Y-113414286D01*
X135971429Y-113385714D01*
X136171429Y-113385714D01*
X136285714Y-113414286D01*
X136342857Y-113471429D01*
X136371429Y-113528571D01*
X136371429Y-113642857D01*
X136371429Y-112814286D02*
X136371429Y-113157143D01*
X136371429Y-112985715D02*
X135771429Y-112985715D01*
X135857143Y-113042858D01*
X135914286Y-113100000D01*
X135942857Y-113157143D01*
X129128571Y-113557143D02*
X129100000Y-113614286D01*
X129042857Y-113671429D01*
X128957143Y-113757143D01*
X128928571Y-113814286D01*
X128928571Y-113871429D01*
X129071429Y-113842857D02*
X129042857Y-113900000D01*
X128985714Y-113957143D01*
X128871429Y-113985714D01*
X128671429Y-113985714D01*
X128557143Y-113957143D01*
X128500000Y-113900000D01*
X128471429Y-113842857D01*
X128471429Y-113728571D01*
X128500000Y-113671429D01*
X128557143Y-113614286D01*
X128671429Y-113585714D01*
X128871429Y-113585714D01*
X128985714Y-113614286D01*
X129042857Y-113671429D01*
X129071429Y-113728571D01*
X129071429Y-113842857D01*
X128528571Y-113357143D02*
X128500000Y-113328572D01*
X128471429Y-113271429D01*
X128471429Y-113128572D01*
X128500000Y-113071429D01*
X128528571Y-113042858D01*
X128585714Y-113014286D01*
X128642857Y-113014286D01*
X128728571Y-113042858D01*
X129071429Y-113385715D01*
X129071429Y-113014286D01*
X121228571Y-124957143D02*
X121200000Y-125014286D01*
X121142857Y-125071429D01*
X121057143Y-125157143D01*
X121028571Y-125214286D01*
X121028571Y-125271429D01*
X121171429Y-125242857D02*
X121142857Y-125300000D01*
X121085714Y-125357143D01*
X120971429Y-125385714D01*
X120771429Y-125385714D01*
X120657143Y-125357143D01*
X120600000Y-125300000D01*
X120571429Y-125242857D01*
X120571429Y-125128571D01*
X120600000Y-125071429D01*
X120657143Y-125014286D01*
X120771429Y-124985714D01*
X120971429Y-124985714D01*
X121085714Y-125014286D01*
X121142857Y-125071429D01*
X121171429Y-125128571D01*
X121171429Y-125242857D01*
X120571429Y-124785715D02*
X120571429Y-124414286D01*
X120800000Y-124614286D01*
X120800000Y-124528572D01*
X120828571Y-124471429D01*
X120857143Y-124442858D01*
X120914286Y-124414286D01*
X121057143Y-124414286D01*
X121114286Y-124442858D01*
X121142857Y-124471429D01*
X121171429Y-124528572D01*
X121171429Y-124700000D01*
X121142857Y-124757143D01*
X121114286Y-124785715D01*
X119700000Y-126371429D02*
X119700000Y-126085715D01*
X119871429Y-126428572D02*
X119271429Y-126228572D01*
X119871429Y-126028572D01*
X119871429Y-125542858D02*
X119871429Y-125828572D01*
X119271429Y-125828572D01*
X119842857Y-125371429D02*
X119871429Y-125285715D01*
X119871429Y-125142858D01*
X119842857Y-125085715D01*
X119814286Y-125057144D01*
X119757143Y-125028572D01*
X119700000Y-125028572D01*
X119642857Y-125057144D01*
X119614286Y-125085715D01*
X119585714Y-125142858D01*
X119557143Y-125257144D01*
X119528571Y-125314286D01*
X119500000Y-125342858D01*
X119442857Y-125371429D01*
X119385714Y-125371429D01*
X119328571Y-125342858D01*
X119300000Y-125314286D01*
X119271429Y-125257144D01*
X119271429Y-125114286D01*
X119300000Y-125028572D01*
X119642857Y-124771429D02*
X119642857Y-124314286D01*
X119871429Y-124028572D02*
X119271429Y-124028572D01*
X119271429Y-123800000D01*
X119300000Y-123742858D01*
X119328571Y-123714286D01*
X119385714Y-123685715D01*
X119471429Y-123685715D01*
X119528571Y-123714286D01*
X119557143Y-123742858D01*
X119585714Y-123800000D01*
X119585714Y-124028572D01*
X119271429Y-123514286D02*
X119271429Y-123171429D01*
X119871429Y-123342858D02*
X119271429Y-123342858D01*
X119871429Y-122657143D02*
X119871429Y-123000000D01*
X119871429Y-122828572D02*
X119271429Y-122828572D01*
X119357143Y-122885715D01*
X119414286Y-122942857D01*
X119442857Y-123000000D01*
X119871429Y-122371428D02*
X119871429Y-122257143D01*
X119842857Y-122200000D01*
X119814286Y-122171428D01*
X119728571Y-122114286D01*
X119614286Y-122085714D01*
X119385714Y-122085714D01*
X119328571Y-122114286D01*
X119300000Y-122142857D01*
X119271429Y-122200000D01*
X119271429Y-122314286D01*
X119300000Y-122371428D01*
X119328571Y-122400000D01*
X119385714Y-122428571D01*
X119528571Y-122428571D01*
X119585714Y-122400000D01*
X119614286Y-122371428D01*
X119642857Y-122314286D01*
X119642857Y-122200000D01*
X119614286Y-122142857D01*
X119585714Y-122114286D01*
X119528571Y-122085714D01*
X119642857Y-121828571D02*
X119642857Y-121371428D01*
X119271429Y-121142857D02*
X119271429Y-120771428D01*
X119500000Y-120971428D01*
X119500000Y-120885714D01*
X119528571Y-120828571D01*
X119557143Y-120800000D01*
X119614286Y-120771428D01*
X119757143Y-120771428D01*
X119814286Y-120800000D01*
X119842857Y-120828571D01*
X119871429Y-120885714D01*
X119871429Y-121057142D01*
X119842857Y-121114285D01*
X119814286Y-121142857D01*
X119871429Y-120199999D02*
X119871429Y-120542856D01*
X119871429Y-120371428D02*
X119271429Y-120371428D01*
X119357143Y-120428571D01*
X119414286Y-120485713D01*
X119442857Y-120542856D01*
X119271429Y-119657142D02*
X119271429Y-119942856D01*
X119557143Y-119971427D01*
X119528571Y-119942856D01*
X119500000Y-119885713D01*
X119500000Y-119742856D01*
X119528571Y-119685713D01*
X119557143Y-119657142D01*
X119614286Y-119628570D01*
X119757143Y-119628570D01*
X119814286Y-119657142D01*
X119842857Y-119685713D01*
X119871429Y-119742856D01*
X119871429Y-119885713D01*
X119842857Y-119942856D01*
X119814286Y-119971427D01*
X119814286Y-119028570D02*
X119842857Y-119057141D01*
X119871429Y-119142855D01*
X119871429Y-119199998D01*
X119842857Y-119285713D01*
X119785714Y-119342855D01*
X119728571Y-119371427D01*
X119614286Y-119399998D01*
X119528571Y-119399998D01*
X119414286Y-119371427D01*
X119357143Y-119342855D01*
X119300000Y-119285713D01*
X119271429Y-119199998D01*
X119271429Y-119142855D01*
X119300000Y-119057141D01*
X119328571Y-119028570D01*
D12*
X142728265Y-118657090D02*
X142699720Y-118714179D01*
X142642630Y-118771269D01*
X142556996Y-118856903D01*
X142528451Y-118913992D01*
X142528451Y-118971082D01*
X142671175Y-118942537D02*
X142642630Y-118999627D01*
X142585541Y-119056716D01*
X142471362Y-119085261D01*
X142271549Y-119085261D01*
X142157370Y-119056716D01*
X142100280Y-118999627D01*
X142071735Y-118942537D01*
X142071735Y-118828358D01*
X142100280Y-118771269D01*
X142157370Y-118714179D01*
X142271549Y-118685634D01*
X142471362Y-118685634D01*
X142585541Y-118714179D01*
X142642630Y-118771269D01*
X142671175Y-118828358D01*
X142671175Y-118942537D01*
X142271549Y-118171828D02*
X142671175Y-118171828D01*
X142043190Y-118314552D02*
X142471362Y-118457276D01*
X142471362Y-118086194D01*
X139271175Y-120812872D02*
X139271175Y-121098319D01*
X138671735Y-121098319D01*
X138957183Y-120613058D02*
X138957183Y-120413245D01*
X139271175Y-120327611D02*
X139271175Y-120613058D01*
X138671735Y-120613058D01*
X138671735Y-120327611D01*
X139271175Y-120070708D02*
X138671735Y-120070708D01*
X138671735Y-119927984D01*
X138700280Y-119842350D01*
X138757370Y-119785261D01*
X138814459Y-119756716D01*
X138928638Y-119728171D01*
X139014272Y-119728171D01*
X139128451Y-119756716D01*
X139185541Y-119785261D01*
X139242630Y-119842350D01*
X139271175Y-119927984D01*
X139271175Y-120070708D01*
X139328265Y-119613992D02*
X139328265Y-119157276D01*
X139271175Y-118672015D02*
X138985728Y-118871828D01*
X139271175Y-119014552D02*
X138671735Y-119014552D01*
X138671735Y-118786194D01*
X138700280Y-118729105D01*
X138728825Y-118700560D01*
X138785914Y-118672015D01*
X138871549Y-118672015D01*
X138928638Y-118700560D01*
X138957183Y-118729105D01*
X138985728Y-118786194D01*
X138985728Y-119014552D01*
X138700280Y-118101120D02*
X138671735Y-118158209D01*
X138671735Y-118243844D01*
X138700280Y-118329478D01*
X138757370Y-118386567D01*
X138814459Y-118415112D01*
X138928638Y-118443657D01*
X139014272Y-118443657D01*
X139128451Y-118415112D01*
X139185541Y-118386567D01*
X139242630Y-118329478D01*
X139271175Y-118243844D01*
X139271175Y-118186754D01*
X139242630Y-118101120D01*
X139214086Y-118072575D01*
X139014272Y-118072575D01*
X139014272Y-118186754D01*
X138957183Y-117615859D02*
X138985728Y-117530225D01*
X139014272Y-117501680D01*
X139071362Y-117473135D01*
X139156996Y-117473135D01*
X139214086Y-117501680D01*
X139242630Y-117530225D01*
X139271175Y-117587314D01*
X139271175Y-117815672D01*
X138671735Y-117815672D01*
X138671735Y-117615859D01*
X138700280Y-117558769D01*
X138728825Y-117530225D01*
X138785914Y-117501680D01*
X138843004Y-117501680D01*
X138900093Y-117530225D01*
X138928638Y-117558769D01*
X138957183Y-117615859D01*
X138957183Y-117815672D01*
D11*
X139600000Y-122142857D02*
X139600000Y-121857143D01*
X139771429Y-122200000D02*
X139171429Y-122000000D01*
X139771429Y-121800000D01*
X122028571Y-113457143D02*
X122000000Y-113514286D01*
X121942857Y-113571429D01*
X121857143Y-113657143D01*
X121828571Y-113714286D01*
X121828571Y-113771429D01*
X121971429Y-113742857D02*
X121942857Y-113800000D01*
X121885714Y-113857143D01*
X121771429Y-113885714D01*
X121571429Y-113885714D01*
X121457143Y-113857143D01*
X121400000Y-113800000D01*
X121371429Y-113742857D01*
X121371429Y-113628571D01*
X121400000Y-113571429D01*
X121457143Y-113514286D01*
X121571429Y-113485714D01*
X121771429Y-113485714D01*
X121885714Y-113514286D01*
X121942857Y-113571429D01*
X121971429Y-113628571D01*
X121971429Y-113742857D01*
X121371429Y-112942858D02*
X121371429Y-113228572D01*
X121657143Y-113257143D01*
X121628571Y-113228572D01*
X121600000Y-113171429D01*
X121600000Y-113028572D01*
X121628571Y-112971429D01*
X121657143Y-112942858D01*
X121714286Y-112914286D01*
X121857143Y-112914286D01*
X121914286Y-112942858D01*
X121942857Y-112971429D01*
X121971429Y-113028572D01*
X121971429Y-113171429D01*
X121942857Y-113228572D01*
X121914286Y-113257143D01*
X151171429Y-119900000D02*
X150885714Y-120100000D01*
X151171429Y-120242857D02*
X150571429Y-120242857D01*
X150571429Y-120014285D01*
X150600000Y-119957143D01*
X150628571Y-119928571D01*
X150685714Y-119900000D01*
X150771429Y-119900000D01*
X150828571Y-119928571D01*
X150857143Y-119957143D01*
X150885714Y-120014285D01*
X150885714Y-120242857D01*
X151171429Y-119328571D02*
X151171429Y-119671428D01*
X151171429Y-119500000D02*
X150571429Y-119500000D01*
X150657143Y-119557143D01*
X150714286Y-119614285D01*
X150742857Y-119671428D01*
X150828571Y-125442857D02*
X150800000Y-125414286D01*
X150771429Y-125357143D01*
X150771429Y-125214286D01*
X150800000Y-125157143D01*
X150828571Y-125128572D01*
X150885714Y-125100000D01*
X150942857Y-125100000D01*
X151028571Y-125128572D01*
X151371429Y-125471429D01*
X151371429Y-125100000D01*
X150771429Y-124728571D02*
X150771429Y-124671428D01*
X150800000Y-124614285D01*
X150828571Y-124585714D01*
X150885714Y-124557143D01*
X151000000Y-124528571D01*
X151142857Y-124528571D01*
X151257143Y-124557143D01*
X151314286Y-124585714D01*
X151342857Y-124614285D01*
X151371429Y-124671428D01*
X151371429Y-124728571D01*
X151342857Y-124785714D01*
X151314286Y-124814285D01*
X151257143Y-124842857D01*
X151142857Y-124871428D01*
X151000000Y-124871428D01*
X150885714Y-124842857D01*
X150828571Y-124814285D01*
X150800000Y-124785714D01*
X150771429Y-124728571D01*
X150771429Y-124157142D02*
X150771429Y-124099999D01*
X150800000Y-124042856D01*
X150828571Y-124014285D01*
X150885714Y-123985714D01*
X151000000Y-123957142D01*
X151142857Y-123957142D01*
X151257143Y-123985714D01*
X151314286Y-124014285D01*
X151342857Y-124042856D01*
X151371429Y-124099999D01*
X151371429Y-124157142D01*
X151342857Y-124214285D01*
X151314286Y-124242856D01*
X151257143Y-124271428D01*
X151142857Y-124299999D01*
X151000000Y-124299999D01*
X150885714Y-124271428D01*
X150828571Y-124242856D01*
X150800000Y-124214285D01*
X150771429Y-124157142D01*
X151371429Y-123357142D02*
X151085714Y-123557142D01*
X151371429Y-123699999D02*
X150771429Y-123699999D01*
X150771429Y-123471427D01*
X150800000Y-123414285D01*
X150828571Y-123385713D01*
X150885714Y-123357142D01*
X150971429Y-123357142D01*
X151028571Y-123385713D01*
X151057143Y-123414285D01*
X151085714Y-123471427D01*
X151085714Y-123699999D01*
X124671429Y-125100000D02*
X124385714Y-125300000D01*
X124671429Y-125442857D02*
X124071429Y-125442857D01*
X124071429Y-125214285D01*
X124100000Y-125157143D01*
X124128571Y-125128571D01*
X124185714Y-125100000D01*
X124271429Y-125100000D01*
X124328571Y-125128571D01*
X124357143Y-125157143D01*
X124385714Y-125214285D01*
X124385714Y-125442857D01*
X124128571Y-124871428D02*
X124100000Y-124842857D01*
X124071429Y-124785714D01*
X124071429Y-124642857D01*
X124100000Y-124585714D01*
X124128571Y-124557143D01*
X124185714Y-124528571D01*
X124242857Y-124528571D01*
X124328571Y-124557143D01*
X124671429Y-124900000D01*
X124671429Y-124528571D01*
X124142857Y-123271429D02*
X123800000Y-123271429D01*
X123971428Y-123271429D02*
X123971428Y-122671429D01*
X123914285Y-122757143D01*
X123857143Y-122814286D01*
X123800000Y-122842857D01*
X124514286Y-122671429D02*
X124571429Y-122671429D01*
X124628572Y-122700000D01*
X124657143Y-122728571D01*
X124685714Y-122785714D01*
X124714286Y-122900000D01*
X124714286Y-123042857D01*
X124685714Y-123157143D01*
X124657143Y-123214286D01*
X124628572Y-123242857D01*
X124571429Y-123271429D01*
X124514286Y-123271429D01*
X124457143Y-123242857D01*
X124428572Y-123214286D01*
X124400000Y-123157143D01*
X124371429Y-123042857D01*
X124371429Y-122900000D01*
X124400000Y-122785714D01*
X124428572Y-122728571D01*
X124457143Y-122700000D01*
X124514286Y-122671429D01*
X124971429Y-123271429D02*
X124971429Y-122671429D01*
X125028572Y-123042857D02*
X125200001Y-123271429D01*
X125200001Y-122871429D02*
X124971429Y-123100000D01*
X142471429Y-124400000D02*
X142185714Y-124600000D01*
X142471429Y-124742857D02*
X141871429Y-124742857D01*
X141871429Y-124514285D01*
X141900000Y-124457143D01*
X141928571Y-124428571D01*
X141985714Y-124400000D01*
X142071429Y-124400000D01*
X142128571Y-124428571D01*
X142157143Y-124457143D01*
X142185714Y-124514285D01*
X142185714Y-124742857D01*
X141871429Y-124200000D02*
X141871429Y-123828571D01*
X142100000Y-124028571D01*
X142100000Y-123942857D01*
X142128571Y-123885714D01*
X142157143Y-123857143D01*
X142214286Y-123828571D01*
X142357143Y-123828571D01*
X142414286Y-123857143D01*
X142442857Y-123885714D01*
X142471429Y-123942857D01*
X142471429Y-124114285D01*
X142442857Y-124171428D01*
X142414286Y-124200000D01*
X141857142Y-126071429D02*
X141571428Y-126071429D01*
X141542857Y-126357143D01*
X141571428Y-126328571D01*
X141628571Y-126300000D01*
X141771428Y-126300000D01*
X141828571Y-126328571D01*
X141857142Y-126357143D01*
X141885714Y-126414286D01*
X141885714Y-126557143D01*
X141857142Y-126614286D01*
X141828571Y-126642857D01*
X141771428Y-126671429D01*
X141628571Y-126671429D01*
X141571428Y-126642857D01*
X141542857Y-126614286D01*
X142457143Y-126671429D02*
X142114286Y-126671429D01*
X142285714Y-126671429D02*
X142285714Y-126071429D01*
X142228571Y-126157143D01*
X142171429Y-126214286D01*
X142114286Y-126242857D01*
X143057143Y-126671429D02*
X142857143Y-126385714D01*
X142714286Y-126671429D02*
X142714286Y-126071429D01*
X142942858Y-126071429D01*
X143000000Y-126100000D01*
X143028572Y-126128571D01*
X143057143Y-126185714D01*
X143057143Y-126271429D01*
X143028572Y-126328571D01*
X143000000Y-126357143D01*
X142942858Y-126385714D01*
X142714286Y-126385714D01*
X140771429Y-124400000D02*
X140485714Y-124600000D01*
X140771429Y-124742857D02*
X140171429Y-124742857D01*
X140171429Y-124514285D01*
X140200000Y-124457143D01*
X140228571Y-124428571D01*
X140285714Y-124400000D01*
X140371429Y-124400000D01*
X140428571Y-124428571D01*
X140457143Y-124457143D01*
X140485714Y-124514285D01*
X140485714Y-124742857D01*
X140371429Y-123885714D02*
X140771429Y-123885714D01*
X140142857Y-124028571D02*
X140571429Y-124171428D01*
X140571429Y-123800000D01*
X138671889Y-124941918D02*
X138671889Y-125227632D01*
X138957603Y-125256203D01*
X138929031Y-125227632D01*
X138900460Y-125170489D01*
X138900460Y-125027632D01*
X138929031Y-124970489D01*
X138957603Y-124941918D01*
X139014746Y-124913346D01*
X139157603Y-124913346D01*
X139214746Y-124941918D01*
X139243317Y-124970489D01*
X139271889Y-125027632D01*
X139271889Y-125170489D01*
X139243317Y-125227632D01*
X139214746Y-125256203D01*
X139271889Y-124341917D02*
X139271889Y-124684774D01*
X139271889Y-124513346D02*
X138671889Y-124513346D01*
X138757603Y-124570489D01*
X138814746Y-124627631D01*
X138843317Y-124684774D01*
X139271889Y-123741917D02*
X138986174Y-123941917D01*
X139271889Y-124084774D02*
X138671889Y-124084774D01*
X138671889Y-123856202D01*
X138700460Y-123799060D01*
X138729031Y-123770488D01*
X138786174Y-123741917D01*
X138871889Y-123741917D01*
X138929031Y-123770488D01*
X138957603Y-123799060D01*
X138986174Y-123856202D01*
X138986174Y-124084774D01*
X144271429Y-124300000D02*
X143985714Y-124500000D01*
X144271429Y-124642857D02*
X143671429Y-124642857D01*
X143671429Y-124414285D01*
X143700000Y-124357143D01*
X143728571Y-124328571D01*
X143785714Y-124300000D01*
X143871429Y-124300000D01*
X143928571Y-124328571D01*
X143957143Y-124357143D01*
X143985714Y-124414285D01*
X143985714Y-124642857D01*
X143671429Y-123757143D02*
X143671429Y-124042857D01*
X143957143Y-124071428D01*
X143928571Y-124042857D01*
X143900000Y-123985714D01*
X143900000Y-123842857D01*
X143928571Y-123785714D01*
X143957143Y-123757143D01*
X144014286Y-123728571D01*
X144157143Y-123728571D01*
X144214286Y-123757143D01*
X144242857Y-123785714D01*
X144271429Y-123842857D01*
X144271429Y-123985714D01*
X144242857Y-124042857D01*
X144214286Y-124071428D01*
X145071429Y-125042858D02*
X145071429Y-125328572D01*
X145357143Y-125357143D01*
X145328571Y-125328572D01*
X145300000Y-125271429D01*
X145300000Y-125128572D01*
X145328571Y-125071429D01*
X145357143Y-125042858D01*
X145414286Y-125014286D01*
X145557143Y-125014286D01*
X145614286Y-125042858D01*
X145642857Y-125071429D01*
X145671429Y-125128572D01*
X145671429Y-125271429D01*
X145642857Y-125328572D01*
X145614286Y-125357143D01*
X145671429Y-124442857D02*
X145671429Y-124785714D01*
X145671429Y-124614286D02*
X145071429Y-124614286D01*
X145157143Y-124671429D01*
X145214286Y-124728571D01*
X145242857Y-124785714D01*
X145671429Y-123842857D02*
X145385714Y-124042857D01*
X145671429Y-124185714D02*
X145071429Y-124185714D01*
X145071429Y-123957142D01*
X145100000Y-123900000D01*
X145128571Y-123871428D01*
X145185714Y-123842857D01*
X145271429Y-123842857D01*
X145328571Y-123871428D01*
X145357143Y-123900000D01*
X145385714Y-123957142D01*
X145385714Y-124185714D01*
X173700000Y-121671429D02*
X173500000Y-121385714D01*
X173357143Y-121671429D02*
X173357143Y-121071429D01*
X173585715Y-121071429D01*
X173642857Y-121100000D01*
X173671429Y-121128571D01*
X173700000Y-121185714D01*
X173700000Y-121271429D01*
X173671429Y-121328571D01*
X173642857Y-121357143D01*
X173585715Y-121385714D01*
X173357143Y-121385714D01*
X174214286Y-121071429D02*
X174100000Y-121071429D01*
X174042857Y-121100000D01*
X174014286Y-121128571D01*
X173957143Y-121214286D01*
X173928572Y-121328571D01*
X173928572Y-121557143D01*
X173957143Y-121614286D01*
X173985715Y-121642857D01*
X174042857Y-121671429D01*
X174157143Y-121671429D01*
X174214286Y-121642857D01*
X174242857Y-121614286D01*
X174271429Y-121557143D01*
X174271429Y-121414286D01*
X174242857Y-121357143D01*
X174214286Y-121328571D01*
X174157143Y-121300000D01*
X174042857Y-121300000D01*
X173985715Y-121328571D01*
X173957143Y-121357143D01*
X173928572Y-121414286D01*
X173542857Y-120371429D02*
X173200000Y-120371429D01*
X173371428Y-120371429D02*
X173371428Y-119771429D01*
X173314285Y-119857143D01*
X173257143Y-119914286D01*
X173200000Y-119942857D01*
X173914286Y-119771429D02*
X173971429Y-119771429D01*
X174028572Y-119800000D01*
X174057143Y-119828571D01*
X174085714Y-119885714D01*
X174114286Y-120000000D01*
X174114286Y-120142857D01*
X174085714Y-120257143D01*
X174057143Y-120314286D01*
X174028572Y-120342857D01*
X173971429Y-120371429D01*
X173914286Y-120371429D01*
X173857143Y-120342857D01*
X173828572Y-120314286D01*
X173800000Y-120257143D01*
X173771429Y-120142857D01*
X173771429Y-120000000D01*
X173800000Y-119885714D01*
X173828572Y-119828571D01*
X173857143Y-119800000D01*
X173914286Y-119771429D01*
X174371429Y-120371429D02*
X174371429Y-119771429D01*
X174428572Y-120142857D02*
X174600001Y-120371429D01*
X174600001Y-119971429D02*
X174371429Y-120200000D01*
X173071429Y-124800000D02*
X172785714Y-125000000D01*
X173071429Y-125142857D02*
X172471429Y-125142857D01*
X172471429Y-124914285D01*
X172500000Y-124857143D01*
X172528571Y-124828571D01*
X172585714Y-124800000D01*
X172671429Y-124800000D01*
X172728571Y-124828571D01*
X172757143Y-124857143D01*
X172785714Y-124914285D01*
X172785714Y-125142857D01*
X172471429Y-124600000D02*
X172471429Y-124200000D01*
X173071429Y-124457143D01*
X172100000Y-122428571D02*
X172128571Y-122400000D01*
X172185714Y-122371429D01*
X172328571Y-122371429D01*
X172385714Y-122400000D01*
X172414285Y-122428571D01*
X172442857Y-122485714D01*
X172442857Y-122542857D01*
X172414285Y-122628571D01*
X172071428Y-122971429D01*
X172442857Y-122971429D01*
X172814286Y-122371429D02*
X172871429Y-122371429D01*
X172928572Y-122400000D01*
X172957143Y-122428571D01*
X172985714Y-122485714D01*
X173014286Y-122600000D01*
X173014286Y-122742857D01*
X172985714Y-122857143D01*
X172957143Y-122914286D01*
X172928572Y-122942857D01*
X172871429Y-122971429D01*
X172814286Y-122971429D01*
X172757143Y-122942857D01*
X172728572Y-122914286D01*
X172700000Y-122857143D01*
X172671429Y-122742857D01*
X172671429Y-122600000D01*
X172700000Y-122485714D01*
X172728572Y-122428571D01*
X172757143Y-122400000D01*
X172814286Y-122371429D01*
X173271429Y-122971429D02*
X173271429Y-122371429D01*
X173328572Y-122742857D02*
X173500001Y-122971429D01*
X173500001Y-122571429D02*
X173271429Y-122800000D01*
X171100000Y-111771429D02*
X170900000Y-111485714D01*
X170757143Y-111771429D02*
X170757143Y-111171429D01*
X170985715Y-111171429D01*
X171042857Y-111200000D01*
X171071429Y-111228571D01*
X171100000Y-111285714D01*
X171100000Y-111371429D01*
X171071429Y-111428571D01*
X171042857Y-111457143D01*
X170985715Y-111485714D01*
X170757143Y-111485714D01*
X171442857Y-111428571D02*
X171385715Y-111400000D01*
X171357143Y-111371429D01*
X171328572Y-111314286D01*
X171328572Y-111285714D01*
X171357143Y-111228571D01*
X171385715Y-111200000D01*
X171442857Y-111171429D01*
X171557143Y-111171429D01*
X171614286Y-111200000D01*
X171642857Y-111228571D01*
X171671429Y-111285714D01*
X171671429Y-111314286D01*
X171642857Y-111371429D01*
X171614286Y-111400000D01*
X171557143Y-111428571D01*
X171442857Y-111428571D01*
X171385715Y-111457143D01*
X171357143Y-111485714D01*
X171328572Y-111542857D01*
X171328572Y-111657143D01*
X171357143Y-111714286D01*
X171385715Y-111742857D01*
X171442857Y-111771429D01*
X171557143Y-111771429D01*
X171614286Y-111742857D01*
X171642857Y-111714286D01*
X171671429Y-111657143D01*
X171671429Y-111542857D01*
X171642857Y-111485714D01*
X171614286Y-111457143D01*
X171557143Y-111428571D01*
X170700000Y-110028571D02*
X170728571Y-110000000D01*
X170785714Y-109971429D01*
X170928571Y-109971429D01*
X170985714Y-110000000D01*
X171014285Y-110028571D01*
X171042857Y-110085714D01*
X171042857Y-110142857D01*
X171014285Y-110228571D01*
X170671428Y-110571429D01*
X171042857Y-110571429D01*
X171414286Y-109971429D02*
X171471429Y-109971429D01*
X171528572Y-110000000D01*
X171557143Y-110028571D01*
X171585714Y-110085714D01*
X171614286Y-110200000D01*
X171614286Y-110342857D01*
X171585714Y-110457143D01*
X171557143Y-110514286D01*
X171528572Y-110542857D01*
X171471429Y-110571429D01*
X171414286Y-110571429D01*
X171357143Y-110542857D01*
X171328572Y-110514286D01*
X171300000Y-110457143D01*
X171271429Y-110342857D01*
X171271429Y-110200000D01*
X171300000Y-110085714D01*
X171328572Y-110028571D01*
X171357143Y-110000000D01*
X171414286Y-109971429D01*
X171871429Y-110571429D02*
X171871429Y-109971429D01*
X171928572Y-110342857D02*
X172100001Y-110571429D01*
X172100001Y-110171429D02*
X171871429Y-110400000D01*
D12*
X126700747Y-119042630D02*
X126786381Y-119071175D01*
X126929105Y-119071175D01*
X126986195Y-119042630D01*
X127014739Y-119014086D01*
X127043284Y-118956996D01*
X127043284Y-118899907D01*
X127014739Y-118842817D01*
X126986195Y-118814272D01*
X126929105Y-118785728D01*
X126814926Y-118757183D01*
X126757837Y-118728638D01*
X126729292Y-118700093D01*
X126700747Y-118643004D01*
X126700747Y-118585914D01*
X126729292Y-118528825D01*
X126757837Y-118500280D01*
X126814926Y-118471735D01*
X126957650Y-118471735D01*
X127043284Y-118500280D01*
X127243097Y-118471735D02*
X127385821Y-119071175D01*
X127500000Y-118643004D01*
X127614179Y-119071175D01*
X127756903Y-118471735D01*
X128299253Y-119071175D02*
X127956716Y-119071175D01*
X128127985Y-119071175D02*
X128127985Y-118471735D01*
X128070895Y-118557370D01*
X128013806Y-118614459D01*
X127956716Y-118643004D01*
X126044124Y-120257183D02*
X126129758Y-120285728D01*
X126158303Y-120314272D01*
X126186848Y-120371362D01*
X126186848Y-120456996D01*
X126158303Y-120514086D01*
X126129758Y-120542630D01*
X126072669Y-120571175D01*
X125844311Y-120571175D01*
X125844311Y-119971735D01*
X126044124Y-119971735D01*
X126101214Y-120000280D01*
X126129758Y-120028825D01*
X126158303Y-120085914D01*
X126158303Y-120143004D01*
X126129758Y-120200093D01*
X126101214Y-120228638D01*
X126044124Y-120257183D01*
X125844311Y-120257183D01*
X126443751Y-119971735D02*
X126443751Y-120456996D01*
X126472296Y-120514086D01*
X126500840Y-120542630D01*
X126557930Y-120571175D01*
X126672109Y-120571175D01*
X126729198Y-120542630D01*
X126757743Y-120514086D01*
X126786288Y-120456996D01*
X126786288Y-119971735D01*
X126986102Y-119971735D02*
X127328639Y-119971735D01*
X127157370Y-120571175D02*
X127157370Y-119971735D01*
X127442818Y-119971735D02*
X127785355Y-119971735D01*
X127614086Y-120571175D02*
X127614086Y-119971735D01*
X128099347Y-119971735D02*
X128213526Y-119971735D01*
X128270615Y-120000280D01*
X128327705Y-120057370D01*
X128356250Y-120171549D01*
X128356250Y-120371362D01*
X128327705Y-120485541D01*
X128270615Y-120542630D01*
X128213526Y-120571175D01*
X128099347Y-120571175D01*
X128042257Y-120542630D01*
X127985168Y-120485541D01*
X127956623Y-120371362D01*
X127956623Y-120171549D01*
X127985168Y-120057370D01*
X128042257Y-120000280D01*
X128099347Y-119971735D01*
X128613153Y-120571175D02*
X128613153Y-119971735D01*
X128955690Y-120571175D01*
X128955690Y-119971735D01*
D11*
X156271428Y-111771429D02*
X156671428Y-112371429D01*
X156671428Y-111771429D02*
X156271428Y-112371429D01*
X157185714Y-112371429D02*
X156900000Y-112371429D01*
X156900000Y-111771429D01*
X157700000Y-112371429D02*
X157357143Y-112371429D01*
X157528571Y-112371429D02*
X157528571Y-111771429D01*
X157471428Y-111857143D01*
X157414286Y-111914286D01*
X157357143Y-111942857D01*
X153885715Y-111752381D02*
X153314286Y-111752381D01*
X153600000Y-111752381D02*
X153600000Y-110752381D01*
X153504762Y-110895238D01*
X153409524Y-110990476D01*
X153314286Y-111038095D01*
X178371429Y-119128572D02*
X178971429Y-118728572D01*
X178371429Y-118728572D02*
X178971429Y-119128572D01*
X178971429Y-118214286D02*
X178971429Y-118500000D01*
X178371429Y-118500000D01*
X178428571Y-118042857D02*
X178400000Y-118014286D01*
X178371429Y-117957143D01*
X178371429Y-117814286D01*
X178400000Y-117757143D01*
X178428571Y-117728572D01*
X178485714Y-117700000D01*
X178542857Y-117700000D01*
X178628571Y-117728572D01*
X178971429Y-118071429D01*
X178971429Y-117700000D01*
X180252381Y-113114285D02*
X180252381Y-113685714D01*
X180252381Y-113400000D02*
X179252381Y-113400000D01*
X179395238Y-113495238D01*
X179490476Y-113590476D01*
X179538095Y-113685714D01*
X147271428Y-111771429D02*
X147671428Y-112371429D01*
X147671428Y-111771429D02*
X147271428Y-112371429D01*
X148185714Y-112371429D02*
X147900000Y-112371429D01*
X147900000Y-111771429D01*
X148328571Y-111771429D02*
X148700000Y-111771429D01*
X148500000Y-112000000D01*
X148585714Y-112000000D01*
X148642857Y-112028571D01*
X148671428Y-112057143D01*
X148700000Y-112114286D01*
X148700000Y-112257143D01*
X148671428Y-112314286D01*
X148642857Y-112342857D01*
X148585714Y-112371429D01*
X148414286Y-112371429D01*
X148357143Y-112342857D01*
X148328571Y-112314286D01*
X154085715Y-111752381D02*
X153514286Y-111752381D01*
X153800000Y-111752381D02*
X153800000Y-110752381D01*
X153704762Y-110895238D01*
X153609524Y-110990476D01*
X153514286Y-111038095D01*
X127771428Y-124271429D02*
X128171428Y-124871429D01*
X128171428Y-124271429D02*
X127771428Y-124871429D01*
X128685714Y-124871429D02*
X128400000Y-124871429D01*
X128400000Y-124271429D01*
X128828571Y-124271429D02*
X129228571Y-124271429D01*
X128971428Y-124871429D01*
X127085715Y-123952381D02*
X126514286Y-123952381D01*
X126800000Y-123952381D02*
X126800000Y-122952381D01*
X126704762Y-123095238D01*
X126609524Y-123190476D01*
X126514286Y-123238095D01*
X147471429Y-120514286D02*
X148071429Y-120114286D01*
X147471429Y-120114286D02*
X148071429Y-120514286D01*
X147471429Y-119971428D02*
X147471429Y-119628571D01*
X148071429Y-119800000D02*
X147471429Y-119800000D01*
X147900000Y-119457142D02*
X147900000Y-119171428D01*
X148071429Y-119514285D02*
X147471429Y-119314285D01*
X148071429Y-119114285D01*
X148071429Y-118628571D02*
X148071429Y-118914285D01*
X147471429Y-118914285D01*
X148071429Y-118114285D02*
X148071429Y-118457142D01*
X148071429Y-118285714D02*
X147471429Y-118285714D01*
X147557143Y-118342857D01*
X147614286Y-118399999D01*
X147642857Y-118457142D01*
X145771429Y-120014285D02*
X145771429Y-120357142D01*
X145771429Y-120185714D02*
X145171429Y-120185714D01*
X145257143Y-120242857D01*
X145314286Y-120299999D01*
X145342857Y-120357142D01*
X145228571Y-119785713D02*
X145200000Y-119757142D01*
X145171429Y-119699999D01*
X145171429Y-119557142D01*
X145200000Y-119499999D01*
X145228571Y-119471428D01*
X145285714Y-119442856D01*
X145342857Y-119442856D01*
X145428571Y-119471428D01*
X145771429Y-119814285D01*
X145771429Y-119442856D01*
X145771429Y-119185713D02*
X145171429Y-119185713D01*
X145600000Y-118985713D01*
X145171429Y-118785713D01*
X145771429Y-118785713D01*
X145771429Y-118499999D02*
X145171429Y-118499999D01*
X145457143Y-118499999D02*
X145457143Y-118157142D01*
X145771429Y-118157142D02*
X145171429Y-118157142D01*
X145371429Y-117928571D02*
X145371429Y-117614285D01*
X145771429Y-117928571D01*
X145771429Y-117614285D01*
M02*
