M48
;DRILL file {KiCad 4.0.0-rc1-stable} date 18.12.2015 2:08:43
;FORMAT={-:-/ absolute / metric / decimal}
FMAT,2
METRIC,TZ
T1C0.300
T2C0.899
T3C0.900
%
G90
G05
M71
T1
X120.575Y-121.159
X122.95Y-123.201
X123.983Y-119.943
X126.417Y-123.301
X126.595Y-117.739
X126.85Y-111.444
X127.342Y-119.261
X128.948Y-122.717
X129.532Y-120.624
X132.192Y-123.346
X132.209Y-120.916
X132.228Y-114.611
X132.842Y-117.557
X133.294Y-111.393
X133.769Y-122.133
X133.822Y-119.128
X134.212Y-117.067
X136.688Y-121.208
X138.489Y-117.801
X138.973Y-119.478
X140.539Y-113.109
X141.297Y-117.899
X142.037Y-119.356
X145.352Y-117.46
X145.355Y-120.69
X145.5Y-124.849
X145.937Y-113.663
X147.044Y-119.591
X148.002Y-117.946
X149.912Y-122.705
X151.215Y-124.092
X152.776Y-124.657
X153.854Y-124.29
X154.461Y-120.532
X154.783Y-122.577
X156.417Y-121.297
X156.467Y-122.296
X156.533Y-117.482
X157.633Y-113.503
X157.958Y-115.12
X158.201Y-126.021
X158.589Y-119.587
X158.748Y-120.683
X159.153Y-117.488
X159.614Y-122.681
X159.642Y-125.98
X160.381Y-118.321
X160.496Y-119.353
X160.634Y-117.347
X160.879Y-124.038
X161.338Y-114.977
X162.28Y-113.271
X162.925Y-119.126
X163.044Y-112.199
X163.243Y-121.878
X164.022Y-119.051
X164.244Y-116.939
X165.877Y-122.232
X165.909Y-126.002
X166.859Y-122.523
X166.936Y-118.956
X167.771Y-113.175
X168.028Y-125.507
X168.047Y-116.652
X168.427Y-115.209
X169.4Y-122.927
X170.479Y-124.778
X170.506Y-122.837
X171.737Y-120.981
X172.979Y-112.317
X173.745Y-116.965
X174.603Y-122.891
X175.126Y-111.312
X175.511Y-117.671
T2
X122.001Y-118.5
X173.999Y-118.5
T3
X127.Y-125.4
X129.54Y-125.4
X132.08Y-125.4
X134.62Y-125.4
X137.16Y-125.4
X144.18Y-111.3
X146.72Y-111.3
X149.26Y-111.3
X151.8Y-111.3
X155.6Y-111.3
X158.14Y-111.3
X160.68Y-111.3
X177.8Y-114.7
X177.8Y-117.24
X177.8Y-119.78
X177.8Y-122.32
T0
M30
