G04 (created by PCBNEW (2013-03-19 BZR 4004)-stable) date 24/05/2013 23:59:16*
%MOIN*%
G04 Gerber Fmt 3.4, Leading zero omitted, Abs format*
%FSLAX34Y34*%
G01*
G70*
G90*
G04 APERTURE LIST*
%ADD10C,0.006*%
%ADD11C,0.0197*%
%ADD12R,0.02X0.03*%
%ADD13R,0.0386X0.045*%
%ADD14R,0.1181X0.1181*%
%ADD15C,0.1181*%
%ADD16R,0.055X0.055*%
%ADD17C,0.06*%
%ADD18R,0.0551X0.0551*%
%ADD19C,0.0551*%
%ADD20C,0.055*%
%ADD21R,0.035X0.04*%
%ADD22R,0.04X0.035*%
%ADD23C,0.0118*%
%ADD24R,0.1181X0.063*%
%ADD25R,0.066X0.066*%
%ADD26C,0.066*%
%ADD27R,0.06X0.105*%
%ADD28R,0.0394X0.0394*%
%ADD29R,0.045X0.055*%
%ADD30R,0.055X0.045*%
%ADD31C,0.0354331*%
%ADD32C,0.019685*%
%ADD33C,0.00787402*%
%ADD34C,0.01*%
G04 APERTURE END LIST*
G54D10*
G54D11*
X49606Y-41299D03*
G54D12*
X41516Y-39185D03*
X40766Y-39185D03*
X41516Y-40185D03*
X41141Y-39185D03*
X40766Y-40185D03*
G54D13*
X38271Y-37992D03*
X38735Y-37992D03*
G54D14*
X38110Y-39724D03*
G54D15*
X56023Y-39763D03*
X59094Y-39763D03*
G54D16*
X52287Y-41535D03*
G54D17*
X53287Y-41535D03*
X54287Y-41535D03*
X55287Y-41535D03*
X56287Y-41535D03*
X57287Y-41535D03*
X58287Y-41535D03*
X59287Y-41535D03*
G54D18*
X41098Y-37952D03*
G54D19*
X42098Y-37952D03*
X43098Y-37952D03*
X44098Y-37952D03*
G54D16*
X44897Y-41535D03*
G54D20*
X43897Y-41535D03*
X42897Y-41535D03*
G54D16*
X37976Y-37992D03*
G54D20*
X38976Y-37992D03*
X39976Y-37992D03*
G54D21*
X51314Y-39685D03*
X51914Y-39685D03*
X45251Y-37795D03*
X45851Y-37795D03*
X51314Y-38937D03*
X51914Y-38937D03*
X51314Y-40433D03*
X51914Y-40433D03*
G54D22*
X37795Y-41156D03*
X37795Y-41756D03*
X39488Y-41756D03*
X39488Y-41156D03*
G54D10*
G36*
X48775Y-41837D02*
X48691Y-41921D01*
X48358Y-41587D01*
X48441Y-41503D01*
X48775Y-41837D01*
X48775Y-41837D01*
G37*
G54D23*
X48830Y-41699D02*
X48580Y-41448D01*
X48969Y-41559D02*
X48719Y-41309D01*
X49109Y-41420D02*
X48858Y-41170D01*
X49248Y-41281D02*
X48998Y-41030D01*
X49387Y-41141D02*
X49137Y-40891D01*
X49527Y-41002D02*
X49276Y-40752D01*
X49666Y-40863D02*
X49416Y-40613D01*
X49804Y-40724D02*
X49554Y-40474D01*
X49944Y-40585D02*
X49693Y-40335D01*
X50083Y-40446D02*
X49833Y-40195D01*
X50223Y-40307D02*
X49973Y-40057D01*
X50222Y-39220D02*
X49971Y-39470D01*
X50083Y-39081D02*
X49833Y-39331D01*
X49944Y-38942D02*
X49693Y-39192D01*
X49804Y-38802D02*
X49554Y-39053D01*
X49665Y-38663D02*
X49415Y-38913D01*
X49526Y-38524D02*
X49276Y-38774D01*
X49387Y-38384D02*
X49136Y-38635D01*
X49248Y-38246D02*
X48998Y-38496D01*
X49109Y-38107D02*
X48858Y-38357D01*
X48969Y-37967D02*
X48719Y-38218D01*
X48831Y-37829D02*
X48580Y-38079D01*
X48691Y-37689D02*
X48441Y-37940D01*
X47856Y-37939D02*
X47606Y-37689D01*
X47717Y-38078D02*
X47467Y-37828D01*
X47578Y-38218D02*
X47327Y-37967D01*
X47438Y-38357D02*
X47188Y-38107D01*
X47299Y-38496D02*
X47049Y-38246D01*
X47160Y-38635D02*
X46910Y-38385D01*
X47021Y-38775D02*
X46770Y-38524D01*
X46882Y-38913D02*
X46632Y-38663D01*
X46743Y-39053D02*
X46492Y-38802D01*
X46603Y-39192D02*
X46353Y-38942D01*
X46464Y-39331D02*
X46214Y-39081D01*
X46325Y-39471D02*
X46074Y-39220D01*
X46325Y-40055D02*
X46075Y-40306D01*
X46465Y-40195D02*
X46214Y-40445D01*
X46604Y-40334D02*
X46354Y-40584D01*
X46743Y-40473D02*
X46493Y-40724D01*
X46883Y-40613D02*
X46632Y-40863D01*
X47022Y-40752D02*
X46772Y-41002D01*
X47161Y-40890D02*
X46910Y-41141D01*
X47300Y-41030D02*
X47050Y-41280D01*
X47439Y-41169D02*
X47189Y-41419D01*
X47578Y-41308D02*
X47328Y-41559D01*
X47718Y-41448D02*
X47467Y-41698D01*
X47857Y-41587D02*
X47607Y-41837D01*
G54D24*
X55039Y-38937D03*
X55039Y-39724D03*
X55039Y-40511D03*
X52913Y-38937D03*
X52913Y-39724D03*
X52913Y-40511D03*
G54D25*
X53437Y-39724D03*
G54D26*
X54437Y-39724D03*
G54D27*
X41899Y-41377D03*
X40699Y-41377D03*
G54D28*
X42165Y-39212D03*
X42165Y-40236D03*
G54D29*
X39237Y-40008D03*
X40037Y-40008D03*
G54D30*
X43661Y-39324D03*
X43661Y-40124D03*
G54D21*
X39176Y-39095D03*
X39776Y-39095D03*
G54D22*
X42874Y-39424D03*
X42874Y-40024D03*
G54D21*
X49700Y-37795D03*
X50300Y-37795D03*
X45496Y-39291D03*
X44896Y-39291D03*
X46402Y-41732D03*
X45802Y-41732D03*
X49857Y-41732D03*
X50457Y-41732D03*
X50684Y-41102D03*
X51284Y-41102D03*
G54D22*
X38779Y-41756D03*
X38779Y-41156D03*
G54D31*
X49720Y-38263D03*
X49968Y-41141D03*
X38350Y-40657D03*
X41893Y-38759D03*
X46283Y-41007D03*
X47874Y-40866D03*
X48330Y-40751D03*
X48236Y-40291D03*
X46759Y-39921D03*
X45708Y-39858D03*
X46129Y-38669D03*
X47137Y-39440D03*
X48271Y-38244D03*
X50748Y-37720D03*
X39149Y-40751D03*
X40181Y-40566D03*
X44212Y-40011D03*
X44035Y-38826D03*
X49688Y-39838D03*
X49133Y-40397D03*
X46881Y-37937D03*
X45822Y-41236D03*
X48145Y-41795D03*
X43248Y-38838D03*
X48897Y-39610D03*
X48460Y-39425D03*
X41141Y-39925D03*
X42877Y-40547D03*
X50897Y-39314D03*
X51374Y-41594D03*
X45653Y-38767D03*
X57236Y-38053D03*
X58503Y-38351D03*
X53976Y-37700D03*
X57484Y-40732D03*
X48641Y-38929D03*
X46322Y-37870D03*
X47669Y-38937D03*
X40098Y-41633D03*
G54D32*
X42066Y-39212D02*
X42165Y-39212D01*
X41968Y-39212D02*
X42066Y-39212D01*
X41886Y-39212D02*
X41968Y-39212D01*
X41678Y-39185D02*
X41886Y-39212D01*
X41616Y-39185D02*
X41678Y-39185D01*
X41518Y-39185D02*
X41616Y-39185D01*
X41516Y-39185D02*
X41518Y-39185D01*
X41516Y-39133D02*
X41516Y-39185D01*
X41516Y-39035D02*
X41516Y-39133D01*
X41516Y-38993D02*
X41516Y-39035D01*
X41458Y-38935D02*
X41516Y-38993D01*
X41283Y-38935D02*
X41458Y-38935D01*
X41200Y-38935D02*
X41283Y-38935D01*
X41141Y-38993D02*
X41200Y-38935D01*
X41141Y-39035D02*
X41141Y-38993D01*
X41141Y-39133D02*
X41141Y-39035D01*
X41141Y-39185D02*
X41141Y-39133D01*
X37912Y-40781D02*
X38350Y-40657D01*
X37795Y-40898D02*
X37912Y-40781D01*
X37795Y-40981D02*
X37795Y-40898D01*
X37795Y-41080D02*
X37795Y-40981D01*
X37795Y-41156D02*
X37795Y-41080D01*
X43484Y-39332D02*
X43661Y-39324D01*
X43386Y-39332D02*
X43484Y-39332D01*
X43296Y-39332D02*
X43386Y-39332D01*
X43146Y-39424D02*
X43296Y-39332D01*
X43074Y-39424D02*
X43146Y-39424D01*
X42975Y-39424D02*
X43074Y-39424D01*
X42874Y-39424D02*
X42975Y-39424D01*
X49442Y-37795D02*
X49059Y-37669D01*
X49525Y-37795D02*
X49442Y-37795D01*
X49623Y-37795D02*
X49525Y-37795D01*
X49700Y-37795D02*
X49623Y-37795D01*
X45754Y-39291D02*
X45874Y-39409D01*
X45671Y-39291D02*
X45754Y-39291D01*
X45573Y-39291D02*
X45671Y-39291D01*
X45496Y-39291D02*
X45573Y-39291D01*
X46402Y-41459D02*
X46283Y-41007D01*
X46402Y-41532D02*
X46402Y-41459D01*
X46402Y-41630D02*
X46402Y-41532D01*
X46402Y-41732D02*
X46402Y-41630D01*
X46577Y-41732D02*
X47240Y-41858D01*
X46478Y-41732D02*
X46577Y-41732D01*
X46402Y-41732D02*
X46478Y-41732D01*
X50400Y-40735D02*
X50137Y-40783D01*
X50436Y-40727D02*
X50400Y-40735D01*
X50581Y-40727D02*
X50436Y-40727D01*
X50684Y-40829D02*
X50581Y-40727D01*
X50684Y-40902D02*
X50684Y-40829D01*
X50684Y-41000D02*
X50684Y-40902D01*
X50684Y-41102D02*
X50684Y-41000D01*
G54D33*
X48912Y-41896D02*
X49055Y-41862D01*
X48799Y-41896D02*
X48912Y-41896D01*
X48750Y-41896D02*
X48799Y-41896D01*
X48733Y-41879D02*
X48750Y-41896D01*
X48705Y-41851D02*
X48733Y-41879D01*
X48566Y-41712D02*
X48705Y-41851D01*
X49862Y-40782D02*
X50137Y-40783D01*
X49804Y-40724D02*
X49862Y-40782D01*
X49679Y-40599D02*
X49804Y-40724D01*
X48912Y-37632D02*
X49059Y-37669D01*
X48749Y-37632D02*
X48912Y-37632D01*
X48691Y-37689D02*
X48749Y-37632D01*
X48566Y-37815D02*
X48691Y-37689D01*
X46074Y-39220D02*
X45874Y-39409D01*
X46200Y-39345D02*
X46074Y-39220D01*
X47386Y-41895D02*
X47240Y-41858D01*
X47549Y-41895D02*
X47386Y-41895D01*
X47607Y-41837D02*
X47549Y-41895D01*
X47732Y-41712D02*
X47607Y-41837D01*
G54D32*
X42772Y-39424D02*
X42874Y-39424D01*
X42674Y-39424D02*
X42772Y-39424D01*
X42604Y-39416D02*
X42674Y-39424D01*
X42431Y-39242D02*
X42604Y-39416D01*
X42362Y-39212D02*
X42431Y-39242D01*
X42263Y-39212D02*
X42362Y-39212D01*
X42165Y-39212D02*
X42263Y-39212D01*
X44632Y-39707D02*
X45275Y-39814D01*
X44026Y-39332D02*
X44632Y-39707D01*
X43936Y-39332D02*
X44026Y-39332D01*
X43837Y-39332D02*
X43936Y-39332D01*
X43661Y-39324D02*
X43837Y-39332D01*
X45314Y-40021D02*
X45275Y-39814D01*
X46283Y-41007D02*
X45314Y-40021D01*
X42165Y-39113D02*
X42165Y-39212D01*
X42165Y-39015D02*
X42165Y-39113D01*
X42165Y-38933D02*
X42165Y-39015D01*
X42049Y-38818D02*
X42165Y-38933D01*
X41893Y-38759D02*
X42049Y-38818D01*
X49857Y-41630D02*
X49857Y-41732D01*
X49857Y-41532D02*
X49857Y-41630D01*
X49857Y-41459D02*
X49857Y-41532D01*
X49888Y-41416D02*
X49857Y-41459D01*
X49968Y-41141D02*
X49888Y-41416D01*
X50607Y-41102D02*
X50684Y-41102D01*
X50509Y-41102D02*
X50607Y-41102D01*
X50426Y-41102D02*
X50509Y-41102D01*
X49968Y-41141D02*
X50426Y-41102D01*
X49700Y-37896D02*
X49700Y-37795D01*
X49700Y-37995D02*
X49700Y-37896D01*
X49700Y-38067D02*
X49700Y-37995D01*
X49720Y-38263D02*
X49700Y-38067D01*
X49780Y-41732D02*
X49857Y-41732D01*
X49682Y-41732D02*
X49780Y-41732D01*
X49055Y-41862D02*
X49682Y-41732D01*
X45496Y-39392D02*
X45496Y-39291D01*
X45496Y-39491D02*
X45496Y-39392D01*
X45496Y-39563D02*
X45496Y-39491D01*
X45353Y-39711D02*
X45496Y-39563D01*
X45275Y-39814D02*
X45353Y-39711D01*
X38928Y-37992D02*
X38976Y-37992D01*
X38830Y-37992D02*
X38928Y-37992D01*
X38735Y-37992D02*
X38830Y-37992D01*
X39145Y-38127D02*
X39346Y-38559D01*
X39018Y-38000D02*
X39145Y-38127D01*
X38976Y-37992D02*
X39018Y-38000D01*
X41463Y-38444D02*
X39346Y-38559D01*
X41746Y-38405D02*
X41463Y-38444D01*
X42040Y-38405D02*
X41746Y-38405D01*
X42894Y-38444D02*
X42040Y-38405D01*
X43302Y-38444D02*
X42894Y-38444D01*
X43874Y-38438D02*
X43302Y-38444D01*
X44299Y-38438D02*
X43874Y-38438D01*
X44993Y-37795D02*
X44299Y-38438D01*
X45076Y-37795D02*
X44993Y-37795D01*
X45174Y-37795D02*
X45076Y-37795D01*
X45251Y-37795D02*
X45174Y-37795D01*
X39229Y-39832D02*
X39237Y-40008D01*
X39229Y-39733D02*
X39229Y-39832D01*
X39229Y-39644D02*
X39229Y-39733D01*
X39176Y-39368D02*
X39229Y-39644D01*
X39176Y-39295D02*
X39176Y-39368D01*
X39176Y-39197D02*
X39176Y-39295D01*
X39176Y-39095D02*
X39176Y-39197D01*
X40497Y-41069D02*
X40699Y-41377D01*
X40399Y-41069D02*
X40497Y-41069D01*
X40309Y-41069D02*
X40399Y-41069D01*
X40017Y-40960D02*
X40309Y-41069D01*
X39494Y-40483D02*
X40017Y-40960D01*
X39494Y-40483D02*
X39494Y-40483D01*
X39384Y-40471D02*
X39494Y-40483D01*
X39275Y-40361D02*
X39384Y-40471D01*
X39246Y-40283D02*
X39275Y-40361D01*
X39246Y-40185D02*
X39246Y-40283D01*
X39237Y-40008D02*
X39246Y-40185D01*
X39176Y-38994D02*
X39176Y-39095D01*
X39176Y-38895D02*
X39176Y-38994D01*
X39176Y-38823D02*
X39176Y-38895D01*
X39346Y-38559D02*
X39176Y-38823D01*
G54D33*
X47602Y-40775D02*
X47874Y-40866D01*
X47276Y-40775D02*
X47602Y-40775D01*
X47161Y-40890D02*
X47276Y-40775D01*
X47035Y-41016D02*
X47161Y-40890D01*
X48098Y-40622D02*
X48330Y-40751D01*
X48011Y-40534D02*
X48098Y-40622D01*
X47736Y-40534D02*
X48011Y-40534D01*
X47215Y-40579D02*
X47736Y-40534D01*
X47180Y-40593D02*
X47215Y-40579D01*
X47022Y-40752D02*
X47180Y-40593D01*
X46897Y-40877D02*
X47022Y-40752D01*
X46825Y-40276D02*
X48236Y-40291D01*
X46662Y-40276D02*
X46825Y-40276D01*
X46604Y-40334D02*
X46662Y-40276D01*
X46479Y-40459D02*
X46604Y-40334D01*
X56771Y-40019D02*
X56287Y-41535D01*
X56771Y-39508D02*
X56771Y-40019D01*
X56733Y-39415D02*
X56771Y-39508D01*
X56371Y-39054D02*
X56733Y-39415D01*
X55695Y-38464D02*
X56371Y-39054D01*
X54730Y-38464D02*
X55695Y-38464D01*
X54600Y-38464D02*
X54730Y-38464D01*
X54391Y-38484D02*
X54600Y-38464D01*
X54381Y-38494D02*
X54391Y-38484D01*
X54251Y-38548D02*
X54381Y-38494D01*
X53700Y-38548D02*
X54251Y-38548D01*
X53571Y-38494D02*
X53700Y-38548D01*
X53561Y-38484D02*
X53571Y-38494D01*
X53411Y-38464D02*
X53561Y-38484D01*
X52388Y-38464D02*
X53411Y-38464D01*
X52257Y-38464D02*
X52388Y-38464D01*
X51079Y-38592D02*
X52257Y-38464D01*
X50140Y-39024D02*
X51079Y-38592D01*
X50083Y-39081D02*
X50140Y-39024D01*
X49958Y-39206D02*
X50083Y-39081D01*
X57149Y-40870D02*
X57287Y-41535D01*
X56968Y-39469D02*
X57149Y-40870D01*
X56900Y-39304D02*
X56968Y-39469D01*
X56483Y-38887D02*
X56900Y-39304D01*
X55776Y-38267D02*
X56483Y-38887D01*
X54812Y-38267D02*
X55776Y-38267D01*
X54518Y-38267D02*
X54812Y-38267D01*
X54318Y-38306D02*
X54518Y-38267D01*
X54280Y-38344D02*
X54318Y-38306D01*
X54216Y-38370D02*
X54280Y-38344D01*
X53736Y-38370D02*
X54216Y-38370D01*
X53672Y-38344D02*
X53736Y-38370D01*
X53634Y-38306D02*
X53672Y-38344D01*
X53493Y-38267D02*
X53634Y-38306D01*
X52469Y-38267D02*
X53493Y-38267D01*
X52176Y-38267D02*
X52469Y-38267D01*
X51149Y-38382D02*
X52176Y-38267D01*
X51003Y-38409D02*
X51149Y-38382D01*
X50062Y-38835D02*
X51003Y-38409D01*
X50010Y-38886D02*
X50062Y-38835D01*
X49944Y-38942D02*
X50010Y-38886D01*
X49819Y-39067D02*
X49944Y-38942D01*
X57818Y-40593D02*
X58287Y-41535D01*
X57067Y-39192D02*
X57818Y-40593D01*
X56594Y-38720D02*
X57067Y-39192D01*
X55866Y-38079D02*
X56594Y-38720D01*
X55846Y-38071D02*
X55866Y-38079D01*
X54881Y-38071D02*
X55846Y-38071D01*
X54448Y-38071D02*
X54881Y-38071D01*
X54244Y-38129D02*
X54448Y-38071D01*
X54180Y-38193D02*
X54244Y-38129D01*
X53772Y-38193D02*
X54180Y-38193D01*
X53708Y-38129D02*
X53772Y-38193D01*
X53562Y-38071D02*
X53708Y-38129D01*
X52539Y-38071D02*
X53562Y-38071D01*
X52106Y-38071D02*
X52539Y-38071D01*
X51080Y-38185D02*
X52106Y-38071D01*
X50955Y-38225D02*
X51080Y-38185D01*
X50930Y-38225D02*
X50955Y-38225D01*
X50924Y-38227D02*
X50930Y-38225D01*
X49983Y-38674D02*
X50924Y-38227D01*
X49917Y-38740D02*
X49983Y-38674D01*
X49864Y-38748D02*
X49917Y-38740D01*
X49804Y-38802D02*
X49864Y-38748D01*
X49679Y-38927D02*
X49804Y-38802D01*
X57234Y-39081D02*
X59287Y-41535D01*
X56706Y-38553D02*
X57234Y-39081D01*
X55978Y-37912D02*
X56706Y-38553D01*
X55885Y-37874D02*
X55978Y-37912D01*
X54921Y-37874D02*
X55885Y-37874D01*
X54409Y-37874D02*
X54921Y-37874D01*
X54208Y-37951D02*
X54409Y-37874D01*
X54144Y-37978D02*
X54208Y-37951D01*
X54106Y-38016D02*
X54144Y-37978D01*
X53845Y-38016D02*
X54106Y-38016D01*
X53808Y-37978D02*
X53845Y-38016D01*
X53694Y-37912D02*
X53808Y-37978D01*
X53602Y-37874D02*
X53694Y-37912D01*
X52578Y-37874D02*
X53602Y-37874D01*
X52067Y-37874D02*
X52578Y-37874D01*
X51041Y-37988D02*
X52067Y-37874D01*
X50894Y-38041D02*
X51041Y-37988D01*
X50820Y-38072D02*
X50894Y-38041D01*
X50337Y-38288D02*
X50820Y-38072D01*
X49887Y-38530D02*
X50337Y-38288D01*
X49860Y-38558D02*
X49887Y-38530D01*
X49847Y-38570D02*
X49860Y-38558D01*
X49792Y-38575D02*
X49847Y-38570D01*
X49723Y-38605D02*
X49792Y-38575D01*
X49665Y-38663D02*
X49723Y-38605D01*
X49540Y-38788D02*
X49665Y-38663D01*
G54D32*
X38152Y-37992D02*
X37976Y-37992D01*
X38251Y-37992D02*
X38152Y-37992D01*
X38078Y-37992D02*
X38251Y-37992D01*
X38177Y-37992D02*
X38078Y-37992D01*
X38271Y-37992D02*
X38177Y-37992D01*
X38034Y-38168D02*
X37976Y-37992D01*
X38034Y-38267D02*
X38034Y-38168D01*
X38034Y-39133D02*
X38034Y-38267D01*
X38034Y-39232D02*
X38034Y-39133D01*
X38110Y-39724D02*
X38034Y-39232D01*
X38177Y-37992D02*
X38271Y-37992D01*
X38078Y-37992D02*
X38177Y-37992D01*
X37976Y-37992D02*
X38078Y-37992D01*
X38251Y-37992D02*
X38271Y-37992D01*
X38152Y-37992D02*
X38251Y-37992D01*
X37976Y-37992D02*
X38152Y-37992D01*
X41937Y-40852D02*
X41937Y-40641D01*
X41937Y-40951D02*
X41937Y-40852D01*
X41899Y-41377D02*
X41937Y-40951D01*
X42165Y-40335D02*
X42165Y-40236D01*
X42165Y-40433D02*
X42165Y-40335D01*
X42165Y-40515D02*
X42165Y-40433D01*
X42049Y-40630D02*
X42165Y-40515D01*
X41937Y-40641D02*
X42049Y-40630D01*
X41516Y-40236D02*
X41516Y-40185D01*
X41516Y-40335D02*
X41516Y-40236D01*
X41516Y-40376D02*
X41516Y-40335D01*
X41575Y-40435D02*
X41516Y-40376D01*
X41882Y-40641D02*
X41575Y-40435D01*
X41937Y-40641D02*
X41882Y-40641D01*
G54D33*
X47021Y-38775D02*
X46895Y-38650D01*
X47078Y-38832D02*
X47021Y-38775D01*
X47078Y-38995D02*
X47078Y-38832D01*
X46959Y-39142D02*
X47078Y-38995D01*
X46803Y-39302D02*
X46959Y-39142D01*
X46759Y-39921D02*
X46803Y-39302D01*
X46116Y-40265D02*
X46200Y-40180D01*
X45708Y-39858D02*
X46116Y-40265D01*
X46295Y-38884D02*
X46129Y-38669D01*
X46353Y-38942D02*
X46295Y-38884D01*
X46478Y-39067D02*
X46353Y-38942D01*
X47160Y-38635D02*
X47035Y-38510D01*
X47275Y-38751D02*
X47160Y-38635D01*
X47275Y-39076D02*
X47275Y-38751D01*
X47137Y-39440D02*
X47275Y-39076D01*
G54D32*
X55846Y-40916D02*
X56023Y-39763D01*
X55719Y-41042D02*
X55846Y-40916D01*
X55540Y-41042D02*
X55719Y-41042D01*
X55494Y-41030D02*
X55540Y-41042D01*
X55080Y-41030D02*
X55494Y-41030D01*
X54877Y-41042D02*
X55080Y-41030D01*
X54697Y-41042D02*
X54877Y-41042D01*
X54575Y-41042D02*
X54697Y-41042D01*
X54494Y-41030D02*
X54575Y-41042D01*
X53494Y-41030D02*
X54494Y-41030D01*
X53080Y-41030D02*
X53494Y-41030D01*
X53077Y-41032D02*
X53080Y-41030D01*
X52784Y-41325D02*
X53077Y-41032D01*
X52782Y-41328D02*
X52784Y-41325D01*
X52774Y-41348D02*
X52782Y-41328D01*
X52650Y-41472D02*
X52774Y-41348D01*
X52562Y-41477D02*
X52650Y-41472D01*
X52463Y-41477D02*
X52562Y-41477D01*
X52287Y-41535D02*
X52463Y-41477D01*
X39256Y-40781D02*
X39149Y-40751D01*
X39370Y-40781D02*
X39256Y-40781D01*
X39488Y-40898D02*
X39370Y-40781D01*
X39488Y-40981D02*
X39488Y-40898D01*
X39488Y-41080D02*
X39488Y-40981D01*
X39488Y-41156D02*
X39488Y-41080D01*
X40029Y-39832D02*
X40037Y-40008D01*
X40029Y-39733D02*
X40029Y-39832D01*
X40029Y-39644D02*
X40029Y-39733D01*
X39776Y-39368D02*
X40029Y-39644D01*
X39776Y-39295D02*
X39776Y-39368D01*
X39776Y-39197D02*
X39776Y-39295D01*
X39776Y-39095D02*
X39776Y-39197D01*
X41327Y-39818D02*
X41141Y-39925D01*
X41506Y-39818D02*
X41327Y-39818D01*
X41706Y-39818D02*
X41506Y-39818D01*
X42255Y-39822D02*
X41706Y-39818D01*
X42435Y-39862D02*
X42255Y-39822D01*
X42601Y-40024D02*
X42435Y-39862D01*
X42674Y-40024D02*
X42601Y-40024D01*
X42772Y-40024D02*
X42674Y-40024D01*
X42874Y-40024D02*
X42772Y-40024D01*
X42874Y-40282D02*
X42877Y-40547D01*
X42874Y-40199D02*
X42874Y-40282D01*
X42874Y-40100D02*
X42874Y-40199D01*
X42874Y-40024D02*
X42874Y-40100D01*
X43484Y-40115D02*
X43661Y-40124D01*
X43386Y-40115D02*
X43484Y-40115D01*
X43296Y-40115D02*
X43386Y-40115D01*
X43146Y-40024D02*
X43296Y-40115D01*
X43074Y-40024D02*
X43146Y-40024D01*
X42975Y-40024D02*
X43074Y-40024D01*
X42874Y-40024D02*
X42975Y-40024D01*
X45802Y-41459D02*
X45822Y-41236D01*
X45802Y-41532D02*
X45802Y-41459D01*
X45802Y-41630D02*
X45802Y-41532D01*
X45802Y-41732D02*
X45802Y-41630D01*
X50715Y-41732D02*
X51374Y-41594D01*
X50632Y-41732D02*
X50715Y-41732D01*
X50534Y-41732D02*
X50632Y-41732D01*
X50457Y-41732D02*
X50534Y-41732D01*
X39386Y-41156D02*
X39488Y-41156D01*
X39288Y-41156D02*
X39386Y-41156D01*
X38979Y-41156D02*
X39288Y-41156D01*
X38881Y-41156D02*
X38979Y-41156D01*
X38779Y-41156D02*
X38881Y-41156D01*
G54D33*
X48523Y-38137D02*
X48271Y-38244D01*
X48580Y-38079D02*
X48523Y-38137D01*
X48706Y-37954D02*
X48580Y-38079D01*
X45991Y-39003D02*
X45653Y-38767D01*
X46156Y-39023D02*
X45991Y-39003D01*
X46214Y-39081D02*
X46156Y-39023D01*
X46339Y-39206D02*
X46214Y-39081D01*
X47741Y-41186D02*
X47877Y-41244D01*
X47662Y-41107D02*
X47741Y-41186D01*
X47521Y-40972D02*
X47662Y-41107D01*
X47358Y-40972D02*
X47521Y-40972D01*
X47300Y-41030D02*
X47358Y-40972D01*
X47175Y-41155D02*
X47300Y-41030D01*
G54D32*
X55039Y-39507D02*
X55039Y-39724D01*
X55039Y-39409D02*
X55039Y-39507D01*
X55039Y-39252D02*
X55039Y-39409D01*
X55039Y-39153D02*
X55039Y-39252D01*
X55039Y-38937D02*
X55039Y-39153D01*
X54448Y-39724D02*
X54437Y-39724D01*
X54547Y-39724D02*
X54448Y-39724D01*
X55039Y-39724D02*
X54547Y-39724D01*
X55039Y-40294D02*
X55039Y-40511D01*
X55039Y-40196D02*
X55039Y-40294D01*
X55039Y-40039D02*
X55039Y-40196D01*
X55039Y-39940D02*
X55039Y-40039D01*
X55039Y-39724D02*
X55039Y-39940D01*
X55629Y-39763D02*
X56023Y-39763D01*
X55531Y-39763D02*
X55629Y-39763D01*
X55039Y-39724D02*
X55531Y-39763D01*
X40765Y-40185D02*
X40766Y-40185D01*
X40666Y-40185D02*
X40765Y-40185D01*
X40604Y-40185D02*
X40666Y-40185D01*
X40352Y-40067D02*
X40604Y-40185D01*
X40262Y-40067D02*
X40352Y-40067D01*
X40164Y-40067D02*
X40262Y-40067D01*
X40037Y-40008D02*
X40164Y-40067D01*
X44026Y-40115D02*
X44212Y-40011D01*
X43936Y-40115D02*
X44026Y-40115D01*
X43837Y-40115D02*
X43936Y-40115D01*
X43661Y-40124D02*
X43837Y-40115D01*
X44896Y-39189D02*
X44896Y-39291D01*
X44896Y-39091D02*
X44896Y-39189D01*
X44896Y-39018D02*
X44896Y-39091D01*
X44999Y-38916D02*
X44896Y-39018D01*
X45653Y-38767D02*
X44999Y-38916D01*
X46485Y-38263D02*
X46881Y-37937D01*
X45966Y-38275D02*
X46485Y-38263D01*
X45736Y-38506D02*
X45966Y-38275D01*
X45653Y-38767D02*
X45736Y-38506D01*
X51284Y-41203D02*
X51284Y-41102D01*
X51284Y-41302D02*
X51284Y-41203D01*
X51284Y-41374D02*
X51284Y-41302D01*
X51374Y-41594D02*
X51284Y-41374D01*
X52110Y-41593D02*
X52287Y-41535D01*
X52012Y-41593D02*
X52110Y-41593D01*
X51922Y-41593D02*
X52012Y-41593D01*
X51374Y-41594D02*
X51922Y-41593D01*
X42877Y-40547D02*
X42897Y-41535D01*
X40768Y-40185D02*
X40766Y-40185D01*
X40866Y-40185D02*
X40768Y-40185D01*
X40928Y-40185D02*
X40866Y-40185D01*
X41016Y-40097D02*
X40928Y-40185D01*
X41141Y-39925D02*
X41016Y-40097D01*
X43248Y-38838D02*
X44035Y-38826D01*
X48133Y-41473D02*
X48122Y-41366D01*
X48145Y-41795D02*
X48133Y-41473D01*
X43719Y-40250D02*
X43661Y-40124D01*
X43719Y-40349D02*
X43719Y-40250D01*
X43719Y-40439D02*
X43719Y-40349D01*
X43846Y-40565D02*
X43719Y-40439D01*
X45262Y-41043D02*
X43846Y-40565D01*
X45822Y-41236D02*
X45262Y-41043D01*
X49133Y-40397D02*
X48897Y-39610D01*
X49133Y-40397D02*
X49688Y-39838D01*
G54D33*
X49416Y-40612D02*
X49541Y-40738D01*
X49358Y-40555D02*
X49416Y-40612D01*
X49133Y-40397D02*
X49358Y-40555D01*
G54D32*
X48493Y-41145D02*
X48122Y-41366D01*
X48724Y-40915D02*
X48493Y-41145D01*
X49133Y-40397D02*
X48724Y-40915D01*
X44820Y-39291D02*
X44896Y-39291D01*
X44721Y-39291D02*
X44820Y-39291D01*
X44639Y-39291D02*
X44721Y-39291D01*
X44035Y-38826D02*
X44639Y-39291D01*
X40765Y-40185D02*
X40766Y-40185D01*
X40666Y-40185D02*
X40765Y-40185D01*
X40604Y-40185D02*
X40666Y-40185D01*
X40516Y-40272D02*
X40604Y-40185D01*
X40464Y-40367D02*
X40516Y-40272D01*
X40346Y-40485D02*
X40464Y-40367D01*
X40181Y-40566D02*
X40346Y-40485D01*
X50376Y-37795D02*
X50300Y-37795D01*
X50475Y-37795D02*
X50376Y-37795D01*
X50557Y-37795D02*
X50475Y-37795D01*
X50748Y-37720D02*
X50557Y-37795D01*
G54D33*
X47718Y-41448D02*
X47593Y-41573D01*
X47775Y-41390D02*
X47718Y-41448D01*
X47877Y-41244D02*
X47775Y-41390D01*
G54D32*
X48122Y-41366D02*
X47877Y-41244D01*
G54D33*
X51178Y-38979D02*
X51314Y-38937D01*
X51139Y-38979D02*
X51178Y-38979D01*
X51073Y-38979D02*
X51139Y-38979D01*
X50759Y-38980D02*
X51073Y-38979D01*
X50222Y-39220D02*
X50759Y-38980D01*
X50096Y-39345D02*
X50222Y-39220D01*
X51178Y-39727D02*
X51314Y-39685D01*
X51139Y-39727D02*
X51178Y-39727D01*
X51073Y-39727D02*
X51139Y-39727D01*
X50223Y-40307D02*
X51073Y-39727D01*
X50098Y-40182D02*
X50223Y-40307D01*
X51178Y-40474D02*
X51314Y-40433D01*
X51139Y-40474D02*
X51178Y-40474D01*
X50331Y-40474D02*
X51139Y-40474D01*
X50304Y-40501D02*
X50331Y-40474D01*
X50143Y-40501D02*
X50304Y-40501D01*
X50083Y-40446D02*
X50143Y-40501D01*
X49958Y-40320D02*
X50083Y-40446D01*
X52362Y-39704D02*
X52913Y-39724D01*
X52322Y-39704D02*
X52362Y-39704D01*
X52089Y-39704D02*
X52322Y-39704D01*
X52049Y-39704D02*
X52089Y-39704D01*
X51914Y-39685D02*
X52049Y-39704D01*
X52362Y-38937D02*
X52913Y-38937D01*
X52322Y-38937D02*
X52362Y-38937D01*
X52089Y-38937D02*
X52322Y-38937D01*
X52049Y-38937D02*
X52089Y-38937D01*
X51914Y-38937D02*
X52049Y-38937D01*
X49160Y-38889D02*
X48641Y-38929D01*
X49276Y-38774D02*
X49160Y-38889D01*
X49401Y-38649D02*
X49276Y-38774D01*
X45986Y-37837D02*
X45851Y-37795D01*
X46026Y-37837D02*
X45986Y-37837D01*
X46091Y-37837D02*
X46026Y-37837D01*
X46322Y-37870D02*
X46091Y-37837D01*
X49584Y-41060D02*
X49606Y-41299D01*
X49527Y-41002D02*
X49584Y-41060D01*
X49401Y-40877D02*
X49527Y-41002D01*
X38940Y-41756D02*
X38779Y-41756D01*
X38979Y-41756D02*
X38940Y-41756D01*
X39288Y-41756D02*
X38979Y-41756D01*
X39327Y-41756D02*
X39288Y-41756D01*
X39488Y-41756D02*
X39327Y-41756D01*
X37955Y-41756D02*
X37795Y-41756D01*
X37995Y-41756D02*
X37955Y-41756D01*
X38579Y-41756D02*
X37995Y-41756D01*
X38618Y-41756D02*
X38579Y-41756D01*
X38779Y-41756D02*
X38618Y-41756D01*
X48503Y-38594D02*
X47669Y-38937D01*
X48780Y-38594D02*
X48503Y-38594D01*
X48916Y-38692D02*
X48780Y-38594D01*
X49079Y-38692D02*
X48916Y-38692D01*
X49136Y-38635D02*
X49079Y-38692D01*
X49261Y-38510D02*
X49136Y-38635D01*
X39648Y-41739D02*
X39488Y-41756D01*
X39688Y-41739D02*
X39648Y-41739D01*
X39753Y-41739D02*
X39688Y-41739D01*
X40098Y-41633D02*
X39753Y-41739D01*
X52362Y-40472D02*
X52913Y-40511D01*
X52322Y-40472D02*
X52362Y-40472D01*
X52089Y-40472D02*
X52322Y-40472D01*
X52049Y-40472D02*
X52089Y-40472D01*
X51914Y-40433D02*
X52049Y-40472D01*
G54D10*
G36*
X39505Y-41165D02*
X39497Y-41165D01*
X39497Y-41173D01*
X39479Y-41173D01*
X39479Y-41165D01*
X39162Y-41165D01*
X39133Y-41193D01*
X39105Y-41165D01*
X38788Y-41165D01*
X38788Y-41173D01*
X38770Y-41173D01*
X38770Y-41165D01*
X38453Y-41165D01*
X38411Y-41207D01*
X38411Y-41364D01*
X38436Y-41426D01*
X38466Y-41456D01*
X38437Y-41486D01*
X38411Y-41548D01*
X38411Y-41549D01*
X38163Y-41549D01*
X38163Y-41548D01*
X38137Y-41486D01*
X38108Y-41456D01*
X38137Y-41427D01*
X38163Y-41365D01*
X38163Y-41298D01*
X38163Y-40987D01*
X38212Y-40973D01*
X38281Y-41002D01*
X38411Y-41002D01*
X38411Y-41105D01*
X38453Y-41147D01*
X38770Y-41147D01*
X38770Y-40855D01*
X38728Y-40813D01*
X38659Y-40813D01*
X38695Y-40726D01*
X38695Y-40589D01*
X38651Y-40483D01*
X38734Y-40483D01*
X38795Y-40457D01*
X38843Y-40410D01*
X38863Y-40362D01*
X38870Y-40378D01*
X38917Y-40426D01*
X38979Y-40451D01*
X39024Y-40451D01*
X39025Y-40454D01*
X39027Y-40458D01*
X39028Y-40463D01*
X39054Y-40501D01*
X39079Y-40542D01*
X39083Y-40545D01*
X39086Y-40549D01*
X39196Y-40659D01*
X39227Y-40680D01*
X39256Y-40704D01*
X39270Y-40709D01*
X39282Y-40717D01*
X39319Y-40724D01*
X39355Y-40736D01*
X39379Y-40738D01*
X39479Y-40829D01*
X39479Y-40855D01*
X39437Y-40813D01*
X39321Y-40813D01*
X39254Y-40813D01*
X39192Y-40839D01*
X39145Y-40886D01*
X39133Y-40914D01*
X39122Y-40886D01*
X39074Y-40839D01*
X39013Y-40813D01*
X38946Y-40813D01*
X38830Y-40813D01*
X38788Y-40855D01*
X38788Y-41147D01*
X39105Y-41147D01*
X39133Y-41119D01*
X39162Y-41147D01*
X39479Y-41147D01*
X39479Y-41139D01*
X39497Y-41139D01*
X39497Y-41147D01*
X39505Y-41147D01*
X39505Y-41165D01*
X39505Y-41165D01*
G37*
G54D34*
X39505Y-41165D02*
X39497Y-41165D01*
X39497Y-41173D01*
X39479Y-41173D01*
X39479Y-41165D01*
X39162Y-41165D01*
X39133Y-41193D01*
X39105Y-41165D01*
X38788Y-41165D01*
X38788Y-41173D01*
X38770Y-41173D01*
X38770Y-41165D01*
X38453Y-41165D01*
X38411Y-41207D01*
X38411Y-41364D01*
X38436Y-41426D01*
X38466Y-41456D01*
X38437Y-41486D01*
X38411Y-41548D01*
X38411Y-41549D01*
X38163Y-41549D01*
X38163Y-41548D01*
X38137Y-41486D01*
X38108Y-41456D01*
X38137Y-41427D01*
X38163Y-41365D01*
X38163Y-41298D01*
X38163Y-40987D01*
X38212Y-40973D01*
X38281Y-41002D01*
X38411Y-41002D01*
X38411Y-41105D01*
X38453Y-41147D01*
X38770Y-41147D01*
X38770Y-40855D01*
X38728Y-40813D01*
X38659Y-40813D01*
X38695Y-40726D01*
X38695Y-40589D01*
X38651Y-40483D01*
X38734Y-40483D01*
X38795Y-40457D01*
X38843Y-40410D01*
X38863Y-40362D01*
X38870Y-40378D01*
X38917Y-40426D01*
X38979Y-40451D01*
X39024Y-40451D01*
X39025Y-40454D01*
X39027Y-40458D01*
X39028Y-40463D01*
X39054Y-40501D01*
X39079Y-40542D01*
X39083Y-40545D01*
X39086Y-40549D01*
X39196Y-40659D01*
X39227Y-40680D01*
X39256Y-40704D01*
X39270Y-40709D01*
X39282Y-40717D01*
X39319Y-40724D01*
X39355Y-40736D01*
X39379Y-40738D01*
X39479Y-40829D01*
X39479Y-40855D01*
X39437Y-40813D01*
X39321Y-40813D01*
X39254Y-40813D01*
X39192Y-40839D01*
X39145Y-40886D01*
X39133Y-40914D01*
X39122Y-40886D01*
X39074Y-40839D01*
X39013Y-40813D01*
X38946Y-40813D01*
X38830Y-40813D01*
X38788Y-40855D01*
X38788Y-41147D01*
X39105Y-41147D01*
X39133Y-41119D01*
X39162Y-41147D01*
X39479Y-41147D01*
X39479Y-41139D01*
X39497Y-41139D01*
X39497Y-41147D01*
X39505Y-41147D01*
X39505Y-41165D01*
G54D10*
G36*
X42561Y-39724D02*
X42531Y-39754D01*
X42505Y-39816D01*
X42505Y-39946D01*
X42504Y-39944D01*
X42457Y-39896D01*
X42395Y-39871D01*
X42329Y-39871D01*
X41935Y-39871D01*
X41873Y-39896D01*
X41825Y-39944D01*
X41800Y-40005D01*
X41800Y-40072D01*
X41800Y-40265D01*
X41784Y-40254D01*
X41784Y-40001D01*
X41759Y-39939D01*
X41712Y-39892D01*
X41650Y-39866D01*
X41583Y-39866D01*
X41383Y-39866D01*
X41321Y-39892D01*
X41274Y-39939D01*
X41248Y-40001D01*
X41248Y-40068D01*
X41248Y-40368D01*
X41250Y-40372D01*
X41250Y-40376D01*
X41270Y-40478D01*
X41328Y-40564D01*
X41386Y-40623D01*
X41408Y-40637D01*
X41426Y-40656D01*
X41505Y-40709D01*
X41504Y-40710D01*
X41456Y-40757D01*
X41431Y-40819D01*
X41431Y-40886D01*
X41431Y-41928D01*
X41167Y-41928D01*
X41167Y-41869D01*
X41167Y-40819D01*
X41141Y-40757D01*
X41094Y-40710D01*
X41034Y-40685D01*
X41034Y-40301D01*
X41034Y-40068D01*
X41034Y-40001D01*
X41009Y-39939D01*
X40961Y-39892D01*
X40900Y-39866D01*
X40817Y-39866D01*
X40775Y-39908D01*
X40775Y-40175D01*
X40992Y-40175D01*
X41034Y-40133D01*
X41034Y-40068D01*
X41034Y-40301D01*
X41034Y-40236D01*
X40992Y-40194D01*
X40775Y-40194D01*
X40775Y-40461D01*
X40817Y-40503D01*
X40900Y-40503D01*
X40961Y-40477D01*
X41009Y-40430D01*
X41034Y-40368D01*
X41034Y-40301D01*
X41034Y-40685D01*
X41032Y-40684D01*
X40965Y-40684D01*
X40757Y-40684D01*
X40757Y-40461D01*
X40757Y-40194D01*
X40757Y-40175D01*
X40757Y-39908D01*
X40715Y-39866D01*
X40633Y-39866D01*
X40571Y-39892D01*
X40524Y-39939D01*
X40498Y-40001D01*
X40498Y-40068D01*
X40498Y-40133D01*
X40540Y-40175D01*
X40757Y-40175D01*
X40757Y-40194D01*
X40540Y-40194D01*
X40498Y-40236D01*
X40498Y-40301D01*
X40498Y-40368D01*
X40524Y-40430D01*
X40571Y-40477D01*
X40633Y-40503D01*
X40715Y-40503D01*
X40757Y-40461D01*
X40757Y-40684D01*
X40430Y-40684D01*
X40430Y-40250D01*
X40430Y-39767D01*
X40430Y-39700D01*
X40405Y-39638D01*
X40357Y-39591D01*
X40295Y-39565D01*
X40119Y-39565D01*
X40119Y-39262D01*
X40119Y-39146D01*
X40077Y-39104D01*
X39785Y-39104D01*
X39785Y-39421D01*
X39827Y-39463D01*
X39984Y-39463D01*
X40046Y-39438D01*
X40093Y-39391D01*
X40119Y-39329D01*
X40119Y-39262D01*
X40119Y-39565D01*
X40088Y-39565D01*
X40046Y-39607D01*
X40046Y-39999D01*
X40388Y-39999D01*
X40430Y-39957D01*
X40430Y-39767D01*
X40430Y-40250D01*
X40430Y-40059D01*
X40388Y-40017D01*
X40046Y-40017D01*
X40046Y-40409D01*
X40088Y-40451D01*
X40295Y-40451D01*
X40357Y-40426D01*
X40405Y-40379D01*
X40430Y-40317D01*
X40430Y-40250D01*
X40430Y-40684D01*
X40365Y-40684D01*
X40304Y-40710D01*
X40256Y-40757D01*
X40253Y-40764D01*
X40160Y-40729D01*
X39855Y-40451D01*
X39986Y-40451D01*
X40028Y-40409D01*
X40028Y-40017D01*
X40028Y-39999D01*
X40028Y-39607D01*
X39986Y-39565D01*
X39779Y-39565D01*
X39717Y-39591D01*
X39670Y-39638D01*
X39644Y-39700D01*
X39644Y-39767D01*
X39644Y-39957D01*
X39686Y-39999D01*
X40028Y-39999D01*
X40028Y-40017D01*
X39686Y-40017D01*
X39644Y-40059D01*
X39644Y-40250D01*
X39644Y-40268D01*
X39630Y-40256D01*
X39630Y-40250D01*
X39630Y-39700D01*
X39605Y-39638D01*
X39558Y-39591D01*
X39496Y-39565D01*
X39485Y-39565D01*
X39458Y-39426D01*
X39476Y-39408D01*
X39505Y-39438D01*
X39567Y-39463D01*
X39724Y-39463D01*
X39767Y-39421D01*
X39767Y-39104D01*
X39759Y-39104D01*
X39759Y-39086D01*
X39767Y-39086D01*
X39767Y-39078D01*
X39785Y-39078D01*
X39785Y-39086D01*
X40077Y-39086D01*
X40119Y-39044D01*
X40119Y-38929D01*
X40119Y-38862D01*
X40093Y-38800D01*
X40079Y-38786D01*
X41029Y-38734D01*
X41011Y-38746D01*
X40953Y-38805D01*
X40909Y-38870D01*
X40900Y-38866D01*
X40833Y-38866D01*
X40633Y-38866D01*
X40571Y-38892D01*
X40524Y-38939D01*
X40498Y-39001D01*
X40498Y-39068D01*
X40498Y-39368D01*
X40524Y-39430D01*
X40571Y-39477D01*
X40633Y-39503D01*
X40700Y-39503D01*
X40900Y-39503D01*
X40954Y-39480D01*
X41008Y-39503D01*
X41075Y-39503D01*
X41275Y-39503D01*
X41329Y-39480D01*
X41383Y-39503D01*
X41450Y-39503D01*
X41650Y-39503D01*
X41711Y-39477D01*
X41729Y-39460D01*
X41812Y-39471D01*
X41825Y-39504D01*
X41873Y-39551D01*
X41934Y-39577D01*
X42001Y-39577D01*
X42389Y-39577D01*
X42416Y-39604D01*
X42446Y-39624D01*
X42474Y-39648D01*
X42489Y-39653D01*
X42502Y-39662D01*
X42519Y-39665D01*
X42531Y-39694D01*
X42561Y-39724D01*
X42561Y-39724D01*
G37*
G54D34*
X42561Y-39724D02*
X42531Y-39754D01*
X42505Y-39816D01*
X42505Y-39946D01*
X42504Y-39944D01*
X42457Y-39896D01*
X42395Y-39871D01*
X42329Y-39871D01*
X41935Y-39871D01*
X41873Y-39896D01*
X41825Y-39944D01*
X41800Y-40005D01*
X41800Y-40072D01*
X41800Y-40265D01*
X41784Y-40254D01*
X41784Y-40001D01*
X41759Y-39939D01*
X41712Y-39892D01*
X41650Y-39866D01*
X41583Y-39866D01*
X41383Y-39866D01*
X41321Y-39892D01*
X41274Y-39939D01*
X41248Y-40001D01*
X41248Y-40068D01*
X41248Y-40368D01*
X41250Y-40372D01*
X41250Y-40376D01*
X41270Y-40478D01*
X41328Y-40564D01*
X41386Y-40623D01*
X41408Y-40637D01*
X41426Y-40656D01*
X41505Y-40709D01*
X41504Y-40710D01*
X41456Y-40757D01*
X41431Y-40819D01*
X41431Y-40886D01*
X41431Y-41928D01*
X41167Y-41928D01*
X41167Y-41869D01*
X41167Y-40819D01*
X41141Y-40757D01*
X41094Y-40710D01*
X41034Y-40685D01*
X41034Y-40301D01*
X41034Y-40068D01*
X41034Y-40001D01*
X41009Y-39939D01*
X40961Y-39892D01*
X40900Y-39866D01*
X40817Y-39866D01*
X40775Y-39908D01*
X40775Y-40175D01*
X40992Y-40175D01*
X41034Y-40133D01*
X41034Y-40068D01*
X41034Y-40301D01*
X41034Y-40236D01*
X40992Y-40194D01*
X40775Y-40194D01*
X40775Y-40461D01*
X40817Y-40503D01*
X40900Y-40503D01*
X40961Y-40477D01*
X41009Y-40430D01*
X41034Y-40368D01*
X41034Y-40301D01*
X41034Y-40685D01*
X41032Y-40684D01*
X40965Y-40684D01*
X40757Y-40684D01*
X40757Y-40461D01*
X40757Y-40194D01*
X40757Y-40175D01*
X40757Y-39908D01*
X40715Y-39866D01*
X40633Y-39866D01*
X40571Y-39892D01*
X40524Y-39939D01*
X40498Y-40001D01*
X40498Y-40068D01*
X40498Y-40133D01*
X40540Y-40175D01*
X40757Y-40175D01*
X40757Y-40194D01*
X40540Y-40194D01*
X40498Y-40236D01*
X40498Y-40301D01*
X40498Y-40368D01*
X40524Y-40430D01*
X40571Y-40477D01*
X40633Y-40503D01*
X40715Y-40503D01*
X40757Y-40461D01*
X40757Y-40684D01*
X40430Y-40684D01*
X40430Y-40250D01*
X40430Y-39767D01*
X40430Y-39700D01*
X40405Y-39638D01*
X40357Y-39591D01*
X40295Y-39565D01*
X40119Y-39565D01*
X40119Y-39262D01*
X40119Y-39146D01*
X40077Y-39104D01*
X39785Y-39104D01*
X39785Y-39421D01*
X39827Y-39463D01*
X39984Y-39463D01*
X40046Y-39438D01*
X40093Y-39391D01*
X40119Y-39329D01*
X40119Y-39262D01*
X40119Y-39565D01*
X40088Y-39565D01*
X40046Y-39607D01*
X40046Y-39999D01*
X40388Y-39999D01*
X40430Y-39957D01*
X40430Y-39767D01*
X40430Y-40250D01*
X40430Y-40059D01*
X40388Y-40017D01*
X40046Y-40017D01*
X40046Y-40409D01*
X40088Y-40451D01*
X40295Y-40451D01*
X40357Y-40426D01*
X40405Y-40379D01*
X40430Y-40317D01*
X40430Y-40250D01*
X40430Y-40684D01*
X40365Y-40684D01*
X40304Y-40710D01*
X40256Y-40757D01*
X40253Y-40764D01*
X40160Y-40729D01*
X39855Y-40451D01*
X39986Y-40451D01*
X40028Y-40409D01*
X40028Y-40017D01*
X40028Y-39999D01*
X40028Y-39607D01*
X39986Y-39565D01*
X39779Y-39565D01*
X39717Y-39591D01*
X39670Y-39638D01*
X39644Y-39700D01*
X39644Y-39767D01*
X39644Y-39957D01*
X39686Y-39999D01*
X40028Y-39999D01*
X40028Y-40017D01*
X39686Y-40017D01*
X39644Y-40059D01*
X39644Y-40250D01*
X39644Y-40268D01*
X39630Y-40256D01*
X39630Y-40250D01*
X39630Y-39700D01*
X39605Y-39638D01*
X39558Y-39591D01*
X39496Y-39565D01*
X39485Y-39565D01*
X39458Y-39426D01*
X39476Y-39408D01*
X39505Y-39438D01*
X39567Y-39463D01*
X39724Y-39463D01*
X39767Y-39421D01*
X39767Y-39104D01*
X39759Y-39104D01*
X39759Y-39086D01*
X39767Y-39086D01*
X39767Y-39078D01*
X39785Y-39078D01*
X39785Y-39086D01*
X40077Y-39086D01*
X40119Y-39044D01*
X40119Y-38929D01*
X40119Y-38862D01*
X40093Y-38800D01*
X40079Y-38786D01*
X41029Y-38734D01*
X41011Y-38746D01*
X40953Y-38805D01*
X40909Y-38870D01*
X40900Y-38866D01*
X40833Y-38866D01*
X40633Y-38866D01*
X40571Y-38892D01*
X40524Y-38939D01*
X40498Y-39001D01*
X40498Y-39068D01*
X40498Y-39368D01*
X40524Y-39430D01*
X40571Y-39477D01*
X40633Y-39503D01*
X40700Y-39503D01*
X40900Y-39503D01*
X40954Y-39480D01*
X41008Y-39503D01*
X41075Y-39503D01*
X41275Y-39503D01*
X41329Y-39480D01*
X41383Y-39503D01*
X41450Y-39503D01*
X41650Y-39503D01*
X41711Y-39477D01*
X41729Y-39460D01*
X41812Y-39471D01*
X41825Y-39504D01*
X41873Y-39551D01*
X41934Y-39577D01*
X42001Y-39577D01*
X42389Y-39577D01*
X42416Y-39604D01*
X42446Y-39624D01*
X42474Y-39648D01*
X42489Y-39653D01*
X42502Y-39662D01*
X42519Y-39665D01*
X42531Y-39694D01*
X42561Y-39724D01*
G54D10*
G36*
X43824Y-37599D02*
X43722Y-37701D01*
X43654Y-37864D01*
X43654Y-38040D01*
X43709Y-38173D01*
X43484Y-38176D01*
X43540Y-38049D01*
X43543Y-37873D01*
X43479Y-37708D01*
X43469Y-37694D01*
X43394Y-37669D01*
X43111Y-37952D01*
X43116Y-37958D01*
X43103Y-37971D01*
X43098Y-37965D01*
X43092Y-37971D01*
X43080Y-37958D01*
X43085Y-37952D01*
X42801Y-37669D01*
X42727Y-37694D01*
X42656Y-37855D01*
X42653Y-38032D01*
X42706Y-38168D01*
X42493Y-38159D01*
X42541Y-38041D01*
X42542Y-37864D01*
X42474Y-37701D01*
X42372Y-37599D01*
X42834Y-37599D01*
X42814Y-37656D01*
X43098Y-37939D01*
X43382Y-37656D01*
X43362Y-37599D01*
X43824Y-37599D01*
X43824Y-37599D01*
G37*
G54D34*
X43824Y-37599D02*
X43722Y-37701D01*
X43654Y-37864D01*
X43654Y-38040D01*
X43709Y-38173D01*
X43484Y-38176D01*
X43540Y-38049D01*
X43543Y-37873D01*
X43479Y-37708D01*
X43469Y-37694D01*
X43394Y-37669D01*
X43111Y-37952D01*
X43116Y-37958D01*
X43103Y-37971D01*
X43098Y-37965D01*
X43092Y-37971D01*
X43080Y-37958D01*
X43085Y-37952D01*
X42801Y-37669D01*
X42727Y-37694D01*
X42656Y-37855D01*
X42653Y-38032D01*
X42706Y-38168D01*
X42493Y-38159D01*
X42541Y-38041D01*
X42542Y-37864D01*
X42474Y-37701D01*
X42372Y-37599D01*
X42834Y-37599D01*
X42814Y-37656D01*
X43098Y-37939D01*
X43382Y-37656D01*
X43362Y-37599D01*
X43824Y-37599D01*
G54D10*
G36*
X46113Y-41408D02*
X46102Y-41419D01*
X46072Y-41389D01*
X46010Y-41364D01*
X45853Y-41364D01*
X45811Y-41406D01*
X45811Y-41723D01*
X45819Y-41723D01*
X45819Y-41741D01*
X45811Y-41741D01*
X45811Y-41749D01*
X45793Y-41749D01*
X45793Y-41741D01*
X45793Y-41723D01*
X45793Y-41406D01*
X45751Y-41364D01*
X45594Y-41364D01*
X45532Y-41389D01*
X45484Y-41436D01*
X45459Y-41498D01*
X45459Y-41565D01*
X45459Y-41681D01*
X45501Y-41723D01*
X45793Y-41723D01*
X45793Y-41741D01*
X45501Y-41741D01*
X45459Y-41783D01*
X45459Y-41898D01*
X45459Y-41928D01*
X45292Y-41928D01*
X45315Y-41905D01*
X45340Y-41844D01*
X45340Y-41777D01*
X45340Y-41227D01*
X45315Y-41165D01*
X45267Y-41117D01*
X45206Y-41092D01*
X45139Y-41092D01*
X44589Y-41092D01*
X44527Y-41117D01*
X44480Y-41165D01*
X44454Y-41226D01*
X44454Y-41293D01*
X44454Y-41843D01*
X44480Y-41905D01*
X44502Y-41928D01*
X44107Y-41928D01*
X44148Y-41911D01*
X44273Y-41786D01*
X44340Y-41623D01*
X44340Y-41447D01*
X44273Y-41284D01*
X44148Y-41160D01*
X44104Y-41141D01*
X44104Y-40382D01*
X44104Y-39866D01*
X44079Y-39804D01*
X44031Y-39756D01*
X43970Y-39731D01*
X43903Y-39731D01*
X43712Y-39731D01*
X43670Y-39773D01*
X43670Y-40115D01*
X44062Y-40115D01*
X44104Y-40073D01*
X44104Y-39866D01*
X44104Y-40382D01*
X44104Y-40175D01*
X44062Y-40133D01*
X43670Y-40133D01*
X43670Y-40475D01*
X43712Y-40517D01*
X43903Y-40517D01*
X43970Y-40517D01*
X44031Y-40491D01*
X44079Y-40444D01*
X44104Y-40382D01*
X44104Y-41141D01*
X43986Y-41092D01*
X43809Y-41092D01*
X43646Y-41159D01*
X43522Y-41284D01*
X43454Y-41446D01*
X43454Y-41623D01*
X43521Y-41786D01*
X43646Y-41910D01*
X43688Y-41928D01*
X43342Y-41928D01*
X43342Y-41455D01*
X43278Y-41291D01*
X43268Y-41277D01*
X43193Y-41252D01*
X43180Y-41264D01*
X43180Y-41239D01*
X43155Y-41164D01*
X42994Y-41094D01*
X42818Y-41090D01*
X42653Y-41155D01*
X42639Y-41164D01*
X42614Y-41239D01*
X42897Y-41522D01*
X43180Y-41239D01*
X43180Y-41264D01*
X42910Y-41535D01*
X43193Y-41818D01*
X43268Y-41793D01*
X43338Y-41632D01*
X43342Y-41455D01*
X43342Y-41928D01*
X43109Y-41928D01*
X43141Y-41915D01*
X43155Y-41906D01*
X43180Y-41831D01*
X42897Y-41548D01*
X42884Y-41561D01*
X42884Y-41535D01*
X42601Y-41252D01*
X42526Y-41277D01*
X42456Y-41438D01*
X42452Y-41615D01*
X42517Y-41779D01*
X42526Y-41793D01*
X42601Y-41818D01*
X42884Y-41535D01*
X42884Y-41561D01*
X42614Y-41831D01*
X42639Y-41906D01*
X42690Y-41928D01*
X42367Y-41928D01*
X42367Y-41869D01*
X42367Y-40819D01*
X42341Y-40757D01*
X42320Y-40736D01*
X42353Y-40703D01*
X42353Y-40703D01*
X42411Y-40617D01*
X42416Y-40592D01*
X42457Y-40576D01*
X42504Y-40528D01*
X42530Y-40466D01*
X42530Y-40400D01*
X42530Y-40292D01*
X42531Y-40294D01*
X42578Y-40341D01*
X42640Y-40367D01*
X42707Y-40367D01*
X42822Y-40367D01*
X42864Y-40325D01*
X42864Y-40033D01*
X42857Y-40033D01*
X42857Y-40015D01*
X42864Y-40015D01*
X42864Y-40007D01*
X42883Y-40007D01*
X42883Y-40015D01*
X42890Y-40015D01*
X42890Y-40033D01*
X42883Y-40033D01*
X42883Y-40325D01*
X42925Y-40367D01*
X43040Y-40367D01*
X43107Y-40367D01*
X43169Y-40341D01*
X43216Y-40294D01*
X43218Y-40290D01*
X43218Y-40382D01*
X43243Y-40444D01*
X43291Y-40491D01*
X43352Y-40517D01*
X43419Y-40517D01*
X43610Y-40517D01*
X43652Y-40475D01*
X43652Y-40133D01*
X43644Y-40133D01*
X43644Y-40115D01*
X43652Y-40115D01*
X43652Y-39773D01*
X43610Y-39731D01*
X43419Y-39731D01*
X43352Y-39731D01*
X43291Y-39756D01*
X43243Y-39804D01*
X43240Y-39812D01*
X43216Y-39754D01*
X43186Y-39724D01*
X43216Y-39694D01*
X43224Y-39675D01*
X43248Y-39670D01*
X43261Y-39662D01*
X43291Y-39691D01*
X43352Y-39717D01*
X43419Y-39717D01*
X43969Y-39717D01*
X44031Y-39692D01*
X44057Y-39665D01*
X44491Y-39934D01*
X44588Y-39971D01*
X44591Y-39971D01*
X45048Y-40047D01*
X45053Y-40071D01*
X45062Y-40095D01*
X45067Y-40121D01*
X45082Y-40143D01*
X45092Y-40167D01*
X45110Y-40186D01*
X45124Y-40208D01*
X45938Y-41035D01*
X45938Y-41076D01*
X45990Y-41203D01*
X46083Y-41296D01*
X46113Y-41408D01*
X46113Y-41408D01*
G37*
G54D34*
X46113Y-41408D02*
X46102Y-41419D01*
X46072Y-41389D01*
X46010Y-41364D01*
X45853Y-41364D01*
X45811Y-41406D01*
X45811Y-41723D01*
X45819Y-41723D01*
X45819Y-41741D01*
X45811Y-41741D01*
X45811Y-41749D01*
X45793Y-41749D01*
X45793Y-41741D01*
X45793Y-41723D01*
X45793Y-41406D01*
X45751Y-41364D01*
X45594Y-41364D01*
X45532Y-41389D01*
X45484Y-41436D01*
X45459Y-41498D01*
X45459Y-41565D01*
X45459Y-41681D01*
X45501Y-41723D01*
X45793Y-41723D01*
X45793Y-41741D01*
X45501Y-41741D01*
X45459Y-41783D01*
X45459Y-41898D01*
X45459Y-41928D01*
X45292Y-41928D01*
X45315Y-41905D01*
X45340Y-41844D01*
X45340Y-41777D01*
X45340Y-41227D01*
X45315Y-41165D01*
X45267Y-41117D01*
X45206Y-41092D01*
X45139Y-41092D01*
X44589Y-41092D01*
X44527Y-41117D01*
X44480Y-41165D01*
X44454Y-41226D01*
X44454Y-41293D01*
X44454Y-41843D01*
X44480Y-41905D01*
X44502Y-41928D01*
X44107Y-41928D01*
X44148Y-41911D01*
X44273Y-41786D01*
X44340Y-41623D01*
X44340Y-41447D01*
X44273Y-41284D01*
X44148Y-41160D01*
X44104Y-41141D01*
X44104Y-40382D01*
X44104Y-39866D01*
X44079Y-39804D01*
X44031Y-39756D01*
X43970Y-39731D01*
X43903Y-39731D01*
X43712Y-39731D01*
X43670Y-39773D01*
X43670Y-40115D01*
X44062Y-40115D01*
X44104Y-40073D01*
X44104Y-39866D01*
X44104Y-40382D01*
X44104Y-40175D01*
X44062Y-40133D01*
X43670Y-40133D01*
X43670Y-40475D01*
X43712Y-40517D01*
X43903Y-40517D01*
X43970Y-40517D01*
X44031Y-40491D01*
X44079Y-40444D01*
X44104Y-40382D01*
X44104Y-41141D01*
X43986Y-41092D01*
X43809Y-41092D01*
X43646Y-41159D01*
X43522Y-41284D01*
X43454Y-41446D01*
X43454Y-41623D01*
X43521Y-41786D01*
X43646Y-41910D01*
X43688Y-41928D01*
X43342Y-41928D01*
X43342Y-41455D01*
X43278Y-41291D01*
X43268Y-41277D01*
X43193Y-41252D01*
X43180Y-41264D01*
X43180Y-41239D01*
X43155Y-41164D01*
X42994Y-41094D01*
X42818Y-41090D01*
X42653Y-41155D01*
X42639Y-41164D01*
X42614Y-41239D01*
X42897Y-41522D01*
X43180Y-41239D01*
X43180Y-41264D01*
X42910Y-41535D01*
X43193Y-41818D01*
X43268Y-41793D01*
X43338Y-41632D01*
X43342Y-41455D01*
X43342Y-41928D01*
X43109Y-41928D01*
X43141Y-41915D01*
X43155Y-41906D01*
X43180Y-41831D01*
X42897Y-41548D01*
X42884Y-41561D01*
X42884Y-41535D01*
X42601Y-41252D01*
X42526Y-41277D01*
X42456Y-41438D01*
X42452Y-41615D01*
X42517Y-41779D01*
X42526Y-41793D01*
X42601Y-41818D01*
X42884Y-41535D01*
X42884Y-41561D01*
X42614Y-41831D01*
X42639Y-41906D01*
X42690Y-41928D01*
X42367Y-41928D01*
X42367Y-41869D01*
X42367Y-40819D01*
X42341Y-40757D01*
X42320Y-40736D01*
X42353Y-40703D01*
X42353Y-40703D01*
X42411Y-40617D01*
X42416Y-40592D01*
X42457Y-40576D01*
X42504Y-40528D01*
X42530Y-40466D01*
X42530Y-40400D01*
X42530Y-40292D01*
X42531Y-40294D01*
X42578Y-40341D01*
X42640Y-40367D01*
X42707Y-40367D01*
X42822Y-40367D01*
X42864Y-40325D01*
X42864Y-40033D01*
X42857Y-40033D01*
X42857Y-40015D01*
X42864Y-40015D01*
X42864Y-40007D01*
X42883Y-40007D01*
X42883Y-40015D01*
X42890Y-40015D01*
X42890Y-40033D01*
X42883Y-40033D01*
X42883Y-40325D01*
X42925Y-40367D01*
X43040Y-40367D01*
X43107Y-40367D01*
X43169Y-40341D01*
X43216Y-40294D01*
X43218Y-40290D01*
X43218Y-40382D01*
X43243Y-40444D01*
X43291Y-40491D01*
X43352Y-40517D01*
X43419Y-40517D01*
X43610Y-40517D01*
X43652Y-40475D01*
X43652Y-40133D01*
X43644Y-40133D01*
X43644Y-40115D01*
X43652Y-40115D01*
X43652Y-39773D01*
X43610Y-39731D01*
X43419Y-39731D01*
X43352Y-39731D01*
X43291Y-39756D01*
X43243Y-39804D01*
X43240Y-39812D01*
X43216Y-39754D01*
X43186Y-39724D01*
X43216Y-39694D01*
X43224Y-39675D01*
X43248Y-39670D01*
X43261Y-39662D01*
X43291Y-39691D01*
X43352Y-39717D01*
X43419Y-39717D01*
X43969Y-39717D01*
X44031Y-39692D01*
X44057Y-39665D01*
X44491Y-39934D01*
X44588Y-39971D01*
X44591Y-39971D01*
X45048Y-40047D01*
X45053Y-40071D01*
X45062Y-40095D01*
X45067Y-40121D01*
X45082Y-40143D01*
X45092Y-40167D01*
X45110Y-40186D01*
X45124Y-40208D01*
X45938Y-41035D01*
X45938Y-41076D01*
X45990Y-41203D01*
X46083Y-41296D01*
X46113Y-41408D01*
G54D10*
G36*
X47390Y-37599D02*
X47388Y-37610D01*
X47374Y-37613D01*
X47301Y-37662D01*
X47251Y-37735D01*
X47249Y-37749D01*
X47235Y-37752D01*
X47161Y-37801D01*
X47112Y-37875D01*
X47109Y-37888D01*
X47096Y-37891D01*
X47022Y-37940D01*
X46973Y-38014D01*
X46970Y-38028D01*
X46956Y-38030D01*
X46883Y-38080D01*
X46833Y-38153D01*
X46831Y-38167D01*
X46817Y-38170D01*
X46743Y-38219D01*
X46694Y-38293D01*
X46691Y-38306D01*
X46678Y-38309D01*
X46604Y-38358D01*
X46555Y-38432D01*
X46552Y-38445D01*
X46539Y-38448D01*
X46465Y-38497D01*
X46445Y-38528D01*
X46422Y-38473D01*
X46325Y-38376D01*
X46198Y-38324D01*
X46061Y-38323D01*
X45934Y-38376D01*
X45837Y-38473D01*
X45784Y-38600D01*
X45784Y-38737D01*
X45837Y-38864D01*
X45934Y-38961D01*
X46006Y-38991D01*
X46004Y-39000D01*
X45982Y-39005D01*
X45908Y-39054D01*
X45897Y-39072D01*
X45856Y-39045D01*
X45855Y-39044D01*
X45855Y-39044D01*
X45832Y-39040D01*
X45814Y-38996D01*
X45767Y-38948D01*
X45705Y-38923D01*
X45638Y-38923D01*
X45288Y-38923D01*
X45226Y-38948D01*
X45196Y-38978D01*
X45166Y-38948D01*
X45105Y-38923D01*
X44947Y-38923D01*
X44905Y-38965D01*
X44905Y-39282D01*
X44913Y-39282D01*
X44913Y-39300D01*
X44905Y-39300D01*
X44905Y-39308D01*
X44887Y-39308D01*
X44887Y-39300D01*
X44887Y-39282D01*
X44887Y-38965D01*
X44845Y-38923D01*
X44688Y-38923D01*
X44626Y-38948D01*
X44579Y-38995D01*
X44553Y-39057D01*
X44553Y-39124D01*
X44553Y-39240D01*
X44595Y-39282D01*
X44887Y-39282D01*
X44887Y-39300D01*
X44595Y-39300D01*
X44553Y-39342D01*
X44553Y-39346D01*
X44166Y-39106D01*
X44146Y-39098D01*
X44128Y-39086D01*
X44104Y-39081D01*
X44104Y-39066D01*
X44079Y-39004D01*
X44031Y-38956D01*
X43970Y-38931D01*
X43903Y-38931D01*
X43353Y-38931D01*
X43291Y-38956D01*
X43243Y-39004D01*
X43218Y-39065D01*
X43218Y-39081D01*
X43194Y-39086D01*
X43177Y-39097D01*
X43161Y-39103D01*
X43107Y-39081D01*
X43040Y-39081D01*
X42647Y-39081D01*
X42619Y-39054D01*
X42580Y-39027D01*
X42538Y-38998D01*
X42530Y-38994D01*
X42530Y-38982D01*
X42504Y-38920D01*
X42457Y-38872D01*
X42416Y-38855D01*
X42411Y-38831D01*
X42353Y-38745D01*
X42353Y-38745D01*
X42292Y-38683D01*
X42882Y-38710D01*
X42886Y-38709D01*
X42894Y-38711D01*
X43302Y-38711D01*
X43303Y-38711D01*
X43305Y-38711D01*
X43874Y-38705D01*
X43874Y-38705D01*
X44299Y-38705D01*
X44345Y-38696D01*
X44392Y-38688D01*
X44397Y-38686D01*
X44401Y-38685D01*
X44440Y-38659D01*
X44481Y-38634D01*
X45004Y-38147D01*
X45042Y-38163D01*
X45109Y-38163D01*
X45459Y-38163D01*
X45521Y-38137D01*
X45551Y-38108D01*
X45580Y-38137D01*
X45642Y-38163D01*
X45709Y-38163D01*
X46059Y-38163D01*
X46107Y-38143D01*
X46126Y-38162D01*
X46253Y-38215D01*
X46391Y-38215D01*
X46518Y-38162D01*
X46615Y-38065D01*
X46668Y-37939D01*
X46668Y-37801D01*
X46615Y-37674D01*
X46540Y-37599D01*
X47390Y-37599D01*
X47390Y-37599D01*
G37*
G54D34*
X47390Y-37599D02*
X47388Y-37610D01*
X47374Y-37613D01*
X47301Y-37662D01*
X47251Y-37735D01*
X47249Y-37749D01*
X47235Y-37752D01*
X47161Y-37801D01*
X47112Y-37875D01*
X47109Y-37888D01*
X47096Y-37891D01*
X47022Y-37940D01*
X46973Y-38014D01*
X46970Y-38028D01*
X46956Y-38030D01*
X46883Y-38080D01*
X46833Y-38153D01*
X46831Y-38167D01*
X46817Y-38170D01*
X46743Y-38219D01*
X46694Y-38293D01*
X46691Y-38306D01*
X46678Y-38309D01*
X46604Y-38358D01*
X46555Y-38432D01*
X46552Y-38445D01*
X46539Y-38448D01*
X46465Y-38497D01*
X46445Y-38528D01*
X46422Y-38473D01*
X46325Y-38376D01*
X46198Y-38324D01*
X46061Y-38323D01*
X45934Y-38376D01*
X45837Y-38473D01*
X45784Y-38600D01*
X45784Y-38737D01*
X45837Y-38864D01*
X45934Y-38961D01*
X46006Y-38991D01*
X46004Y-39000D01*
X45982Y-39005D01*
X45908Y-39054D01*
X45897Y-39072D01*
X45856Y-39045D01*
X45855Y-39044D01*
X45855Y-39044D01*
X45832Y-39040D01*
X45814Y-38996D01*
X45767Y-38948D01*
X45705Y-38923D01*
X45638Y-38923D01*
X45288Y-38923D01*
X45226Y-38948D01*
X45196Y-38978D01*
X45166Y-38948D01*
X45105Y-38923D01*
X44947Y-38923D01*
X44905Y-38965D01*
X44905Y-39282D01*
X44913Y-39282D01*
X44913Y-39300D01*
X44905Y-39300D01*
X44905Y-39308D01*
X44887Y-39308D01*
X44887Y-39300D01*
X44887Y-39282D01*
X44887Y-38965D01*
X44845Y-38923D01*
X44688Y-38923D01*
X44626Y-38948D01*
X44579Y-38995D01*
X44553Y-39057D01*
X44553Y-39124D01*
X44553Y-39240D01*
X44595Y-39282D01*
X44887Y-39282D01*
X44887Y-39300D01*
X44595Y-39300D01*
X44553Y-39342D01*
X44553Y-39346D01*
X44166Y-39106D01*
X44146Y-39098D01*
X44128Y-39086D01*
X44104Y-39081D01*
X44104Y-39066D01*
X44079Y-39004D01*
X44031Y-38956D01*
X43970Y-38931D01*
X43903Y-38931D01*
X43353Y-38931D01*
X43291Y-38956D01*
X43243Y-39004D01*
X43218Y-39065D01*
X43218Y-39081D01*
X43194Y-39086D01*
X43177Y-39097D01*
X43161Y-39103D01*
X43107Y-39081D01*
X43040Y-39081D01*
X42647Y-39081D01*
X42619Y-39054D01*
X42580Y-39027D01*
X42538Y-38998D01*
X42530Y-38994D01*
X42530Y-38982D01*
X42504Y-38920D01*
X42457Y-38872D01*
X42416Y-38855D01*
X42411Y-38831D01*
X42353Y-38745D01*
X42353Y-38745D01*
X42292Y-38683D01*
X42882Y-38710D01*
X42886Y-38709D01*
X42894Y-38711D01*
X43302Y-38711D01*
X43303Y-38711D01*
X43305Y-38711D01*
X43874Y-38705D01*
X43874Y-38705D01*
X44299Y-38705D01*
X44345Y-38696D01*
X44392Y-38688D01*
X44397Y-38686D01*
X44401Y-38685D01*
X44440Y-38659D01*
X44481Y-38634D01*
X45004Y-38147D01*
X45042Y-38163D01*
X45109Y-38163D01*
X45459Y-38163D01*
X45521Y-38137D01*
X45551Y-38108D01*
X45580Y-38137D01*
X45642Y-38163D01*
X45709Y-38163D01*
X46059Y-38163D01*
X46107Y-38143D01*
X46126Y-38162D01*
X46253Y-38215D01*
X46391Y-38215D01*
X46518Y-38162D01*
X46615Y-38065D01*
X46668Y-37939D01*
X46668Y-37801D01*
X46615Y-37674D01*
X46540Y-37599D01*
X47390Y-37599D01*
G54D10*
G36*
X48557Y-38386D02*
X48503Y-38386D01*
X48423Y-38402D01*
X48421Y-38404D01*
X47850Y-38638D01*
X47738Y-38591D01*
X47600Y-38591D01*
X47480Y-38641D01*
X47515Y-38589D01*
X47517Y-38575D01*
X47531Y-38572D01*
X47605Y-38523D01*
X47654Y-38449D01*
X47657Y-38436D01*
X47670Y-38433D01*
X47744Y-38384D01*
X47793Y-38310D01*
X47796Y-38296D01*
X47810Y-38294D01*
X47883Y-38244D01*
X47932Y-38171D01*
X47935Y-38157D01*
X47949Y-38154D01*
X48023Y-38105D01*
X48072Y-38031D01*
X48089Y-37945D01*
X48072Y-37858D01*
X48023Y-37784D01*
X47837Y-37599D01*
X48461Y-37599D01*
X48275Y-37785D01*
X48226Y-37858D01*
X48208Y-37945D01*
X48226Y-38032D01*
X48275Y-38106D01*
X48349Y-38155D01*
X48371Y-38159D01*
X48374Y-38174D01*
X48392Y-38205D01*
X48443Y-38203D01*
X48484Y-38163D01*
X48499Y-38160D01*
X48496Y-38177D01*
X48456Y-38216D01*
X48454Y-38268D01*
X48485Y-38285D01*
X48499Y-38289D01*
X48504Y-38310D01*
X48553Y-38384D01*
X48557Y-38386D01*
X48557Y-38386D01*
G37*
G54D34*
X48557Y-38386D02*
X48503Y-38386D01*
X48423Y-38402D01*
X48421Y-38404D01*
X47850Y-38638D01*
X47738Y-38591D01*
X47600Y-38591D01*
X47480Y-38641D01*
X47515Y-38589D01*
X47517Y-38575D01*
X47531Y-38572D01*
X47605Y-38523D01*
X47654Y-38449D01*
X47657Y-38436D01*
X47670Y-38433D01*
X47744Y-38384D01*
X47793Y-38310D01*
X47796Y-38296D01*
X47810Y-38294D01*
X47883Y-38244D01*
X47932Y-38171D01*
X47935Y-38157D01*
X47949Y-38154D01*
X48023Y-38105D01*
X48072Y-38031D01*
X48089Y-37945D01*
X48072Y-37858D01*
X48023Y-37784D01*
X47837Y-37599D01*
X48461Y-37599D01*
X48275Y-37785D01*
X48226Y-37858D01*
X48208Y-37945D01*
X48226Y-38032D01*
X48275Y-38106D01*
X48349Y-38155D01*
X48371Y-38159D01*
X48374Y-38174D01*
X48392Y-38205D01*
X48443Y-38203D01*
X48484Y-38163D01*
X48499Y-38160D01*
X48496Y-38177D01*
X48456Y-38216D01*
X48454Y-38268D01*
X48485Y-38285D01*
X48499Y-38289D01*
X48504Y-38310D01*
X48553Y-38384D01*
X48557Y-38386D01*
G54D10*
G36*
X52173Y-39330D02*
X52170Y-39336D01*
X52122Y-39316D01*
X52055Y-39316D01*
X51705Y-39316D01*
X51644Y-39342D01*
X51614Y-39372D01*
X51584Y-39342D01*
X51522Y-39316D01*
X51455Y-39316D01*
X51105Y-39316D01*
X51044Y-39342D01*
X50996Y-39389D01*
X50971Y-39451D01*
X50971Y-39518D01*
X50971Y-39550D01*
X50957Y-39556D01*
X50265Y-40028D01*
X50128Y-39891D01*
X50054Y-39841D01*
X49967Y-39824D01*
X49880Y-39841D01*
X49807Y-39891D01*
X49757Y-39964D01*
X49755Y-39977D01*
X49740Y-39980D01*
X49667Y-40029D01*
X49617Y-40103D01*
X49615Y-40116D01*
X49601Y-40119D01*
X49527Y-40168D01*
X49478Y-40242D01*
X49475Y-40256D01*
X49462Y-40259D01*
X49388Y-40308D01*
X49339Y-40381D01*
X49334Y-40403D01*
X49320Y-40406D01*
X49289Y-40424D01*
X49291Y-40475D01*
X49331Y-40515D01*
X49334Y-40532D01*
X49319Y-40529D01*
X49278Y-40488D01*
X49227Y-40486D01*
X49209Y-40517D01*
X49206Y-40532D01*
X49184Y-40536D01*
X49110Y-40586D01*
X49061Y-40659D01*
X49058Y-40673D01*
X49044Y-40676D01*
X48971Y-40725D01*
X48922Y-40799D01*
X48919Y-40812D01*
X48905Y-40815D01*
X48831Y-40864D01*
X48782Y-40938D01*
X48779Y-40952D01*
X48766Y-40954D01*
X48692Y-41004D01*
X48643Y-41077D01*
X48640Y-41091D01*
X48627Y-41094D01*
X48553Y-41143D01*
X48504Y-41217D01*
X48501Y-41230D01*
X48487Y-41233D01*
X48414Y-41282D01*
X48367Y-41352D01*
X48346Y-41361D01*
X48299Y-41408D01*
X48215Y-41492D01*
X48190Y-41553D01*
X48190Y-41620D01*
X48215Y-41682D01*
X48262Y-41729D01*
X48461Y-41928D01*
X47837Y-41928D01*
X48023Y-41742D01*
X48072Y-41668D01*
X48090Y-41581D01*
X48072Y-41494D01*
X48023Y-41421D01*
X47950Y-41371D01*
X47928Y-41367D01*
X47924Y-41352D01*
X47907Y-41322D01*
X47855Y-41323D01*
X47814Y-41364D01*
X47798Y-41367D01*
X47802Y-41351D01*
X47842Y-41310D01*
X47844Y-41259D01*
X47813Y-41241D01*
X47798Y-41238D01*
X47794Y-41216D01*
X47785Y-41203D01*
X47805Y-41211D01*
X47942Y-41211D01*
X48069Y-41159D01*
X48166Y-41061D01*
X48168Y-41058D01*
X48261Y-41097D01*
X48399Y-41097D01*
X48526Y-41044D01*
X48623Y-40947D01*
X48675Y-40820D01*
X48676Y-40683D01*
X48623Y-40556D01*
X48536Y-40469D01*
X48581Y-40360D01*
X48581Y-40222D01*
X48529Y-40096D01*
X48432Y-39998D01*
X48305Y-39946D01*
X48167Y-39946D01*
X48040Y-39998D01*
X47958Y-40081D01*
X47071Y-40071D01*
X47105Y-39990D01*
X47105Y-39852D01*
X47077Y-39786D01*
X47206Y-39786D01*
X47333Y-39733D01*
X47430Y-39636D01*
X47483Y-39509D01*
X47483Y-39372D01*
X47432Y-39249D01*
X47448Y-39204D01*
X47473Y-39229D01*
X47600Y-39282D01*
X47737Y-39282D01*
X47864Y-39229D01*
X47961Y-39132D01*
X48007Y-39022D01*
X48296Y-38904D01*
X48296Y-38997D01*
X48348Y-39124D01*
X48445Y-39221D01*
X48572Y-39274D01*
X48710Y-39274D01*
X48837Y-39222D01*
X48934Y-39124D01*
X48938Y-39114D01*
X49176Y-39096D01*
X49213Y-39086D01*
X49240Y-39081D01*
X49245Y-39077D01*
X49247Y-39077D01*
X49249Y-39080D01*
X49322Y-39129D01*
X49336Y-39131D01*
X49339Y-39145D01*
X49388Y-39219D01*
X49462Y-39268D01*
X49475Y-39271D01*
X49478Y-39284D01*
X49527Y-39358D01*
X49601Y-39407D01*
X49615Y-39410D01*
X49617Y-39424D01*
X49667Y-39497D01*
X49740Y-39547D01*
X49753Y-39549D01*
X49756Y-39562D01*
X49805Y-39636D01*
X49879Y-39685D01*
X49966Y-39703D01*
X50053Y-39685D01*
X50126Y-39636D01*
X50388Y-39375D01*
X50390Y-39372D01*
X50802Y-39187D01*
X50978Y-39187D01*
X50996Y-39232D01*
X51043Y-39279D01*
X51105Y-39305D01*
X51172Y-39305D01*
X51522Y-39305D01*
X51584Y-39279D01*
X51614Y-39249D01*
X51643Y-39279D01*
X51705Y-39305D01*
X51772Y-39305D01*
X52122Y-39305D01*
X52156Y-39290D01*
X52173Y-39330D01*
X52173Y-39330D01*
G37*
G54D34*
X52173Y-39330D02*
X52170Y-39336D01*
X52122Y-39316D01*
X52055Y-39316D01*
X51705Y-39316D01*
X51644Y-39342D01*
X51614Y-39372D01*
X51584Y-39342D01*
X51522Y-39316D01*
X51455Y-39316D01*
X51105Y-39316D01*
X51044Y-39342D01*
X50996Y-39389D01*
X50971Y-39451D01*
X50971Y-39518D01*
X50971Y-39550D01*
X50957Y-39556D01*
X50265Y-40028D01*
X50128Y-39891D01*
X50054Y-39841D01*
X49967Y-39824D01*
X49880Y-39841D01*
X49807Y-39891D01*
X49757Y-39964D01*
X49755Y-39977D01*
X49740Y-39980D01*
X49667Y-40029D01*
X49617Y-40103D01*
X49615Y-40116D01*
X49601Y-40119D01*
X49527Y-40168D01*
X49478Y-40242D01*
X49475Y-40256D01*
X49462Y-40259D01*
X49388Y-40308D01*
X49339Y-40381D01*
X49334Y-40403D01*
X49320Y-40406D01*
X49289Y-40424D01*
X49291Y-40475D01*
X49331Y-40515D01*
X49334Y-40532D01*
X49319Y-40529D01*
X49278Y-40488D01*
X49227Y-40486D01*
X49209Y-40517D01*
X49206Y-40532D01*
X49184Y-40536D01*
X49110Y-40586D01*
X49061Y-40659D01*
X49058Y-40673D01*
X49044Y-40676D01*
X48971Y-40725D01*
X48922Y-40799D01*
X48919Y-40812D01*
X48905Y-40815D01*
X48831Y-40864D01*
X48782Y-40938D01*
X48779Y-40952D01*
X48766Y-40954D01*
X48692Y-41004D01*
X48643Y-41077D01*
X48640Y-41091D01*
X48627Y-41094D01*
X48553Y-41143D01*
X48504Y-41217D01*
X48501Y-41230D01*
X48487Y-41233D01*
X48414Y-41282D01*
X48367Y-41352D01*
X48346Y-41361D01*
X48299Y-41408D01*
X48215Y-41492D01*
X48190Y-41553D01*
X48190Y-41620D01*
X48215Y-41682D01*
X48262Y-41729D01*
X48461Y-41928D01*
X47837Y-41928D01*
X48023Y-41742D01*
X48072Y-41668D01*
X48090Y-41581D01*
X48072Y-41494D01*
X48023Y-41421D01*
X47950Y-41371D01*
X47928Y-41367D01*
X47924Y-41352D01*
X47907Y-41322D01*
X47855Y-41323D01*
X47814Y-41364D01*
X47798Y-41367D01*
X47802Y-41351D01*
X47842Y-41310D01*
X47844Y-41259D01*
X47813Y-41241D01*
X47798Y-41238D01*
X47794Y-41216D01*
X47785Y-41203D01*
X47805Y-41211D01*
X47942Y-41211D01*
X48069Y-41159D01*
X48166Y-41061D01*
X48168Y-41058D01*
X48261Y-41097D01*
X48399Y-41097D01*
X48526Y-41044D01*
X48623Y-40947D01*
X48675Y-40820D01*
X48676Y-40683D01*
X48623Y-40556D01*
X48536Y-40469D01*
X48581Y-40360D01*
X48581Y-40222D01*
X48529Y-40096D01*
X48432Y-39998D01*
X48305Y-39946D01*
X48167Y-39946D01*
X48040Y-39998D01*
X47958Y-40081D01*
X47071Y-40071D01*
X47105Y-39990D01*
X47105Y-39852D01*
X47077Y-39786D01*
X47206Y-39786D01*
X47333Y-39733D01*
X47430Y-39636D01*
X47483Y-39509D01*
X47483Y-39372D01*
X47432Y-39249D01*
X47448Y-39204D01*
X47473Y-39229D01*
X47600Y-39282D01*
X47737Y-39282D01*
X47864Y-39229D01*
X47961Y-39132D01*
X48007Y-39022D01*
X48296Y-38904D01*
X48296Y-38997D01*
X48348Y-39124D01*
X48445Y-39221D01*
X48572Y-39274D01*
X48710Y-39274D01*
X48837Y-39222D01*
X48934Y-39124D01*
X48938Y-39114D01*
X49176Y-39096D01*
X49213Y-39086D01*
X49240Y-39081D01*
X49245Y-39077D01*
X49247Y-39077D01*
X49249Y-39080D01*
X49322Y-39129D01*
X49336Y-39131D01*
X49339Y-39145D01*
X49388Y-39219D01*
X49462Y-39268D01*
X49475Y-39271D01*
X49478Y-39284D01*
X49527Y-39358D01*
X49601Y-39407D01*
X49615Y-39410D01*
X49617Y-39424D01*
X49667Y-39497D01*
X49740Y-39547D01*
X49753Y-39549D01*
X49756Y-39562D01*
X49805Y-39636D01*
X49879Y-39685D01*
X49966Y-39703D01*
X50053Y-39685D01*
X50126Y-39636D01*
X50388Y-39375D01*
X50390Y-39372D01*
X50802Y-39187D01*
X50978Y-39187D01*
X50996Y-39232D01*
X51043Y-39279D01*
X51105Y-39305D01*
X51172Y-39305D01*
X51522Y-39305D01*
X51584Y-39279D01*
X51614Y-39249D01*
X51643Y-39279D01*
X51705Y-39305D01*
X51772Y-39305D01*
X52122Y-39305D01*
X52156Y-39290D01*
X52173Y-39330D01*
G54D10*
G36*
X56041Y-39769D02*
X56029Y-39782D01*
X56023Y-39776D01*
X56018Y-39782D01*
X56005Y-39769D01*
X56010Y-39763D01*
X56005Y-39758D01*
X56018Y-39745D01*
X56023Y-39750D01*
X56029Y-39745D01*
X56041Y-39758D01*
X56036Y-39763D01*
X56041Y-39769D01*
X56041Y-39769D01*
G37*
G54D34*
X56041Y-39769D02*
X56029Y-39782D01*
X56023Y-39776D01*
X56018Y-39782D01*
X56005Y-39769D01*
X56010Y-39763D01*
X56005Y-39758D01*
X56018Y-39745D01*
X56023Y-39750D01*
X56029Y-39745D01*
X56041Y-39758D01*
X56036Y-39763D01*
X56041Y-39769D01*
G54D10*
G36*
X56424Y-40422D02*
X56219Y-41067D01*
X56194Y-41067D01*
X56022Y-41138D01*
X55890Y-41269D01*
X55819Y-41441D01*
X55819Y-41628D01*
X55890Y-41800D01*
X56018Y-41928D01*
X55798Y-41928D01*
X55798Y-40793D01*
X55797Y-40562D01*
X55755Y-40520D01*
X55048Y-40520D01*
X55048Y-40952D01*
X55090Y-40994D01*
X55663Y-40994D01*
X55724Y-40969D01*
X55772Y-40921D01*
X55797Y-40859D01*
X55798Y-40793D01*
X55798Y-41928D01*
X55556Y-41928D01*
X55684Y-41800D01*
X55755Y-41628D01*
X55755Y-41442D01*
X55684Y-41270D01*
X55552Y-41138D01*
X55380Y-41067D01*
X55194Y-41067D01*
X55030Y-41135D01*
X55030Y-40952D01*
X55030Y-40520D01*
X55030Y-40502D01*
X55030Y-40165D01*
X55030Y-40070D01*
X55030Y-39733D01*
X55022Y-39733D01*
X55022Y-39715D01*
X55030Y-39715D01*
X55030Y-39378D01*
X55030Y-39283D01*
X55030Y-38946D01*
X54322Y-38946D01*
X54280Y-38988D01*
X54280Y-39219D01*
X54280Y-39250D01*
X54163Y-39296D01*
X54145Y-39308D01*
X54114Y-39388D01*
X54280Y-39555D01*
X54280Y-39580D01*
X54101Y-39401D01*
X54020Y-39433D01*
X53941Y-39614D01*
X53936Y-39812D01*
X54008Y-39997D01*
X54020Y-40015D01*
X54101Y-40047D01*
X54280Y-39867D01*
X54280Y-39893D01*
X54114Y-40060D01*
X54145Y-40140D01*
X54280Y-40199D01*
X54280Y-40229D01*
X54280Y-40460D01*
X54322Y-40502D01*
X55030Y-40502D01*
X55030Y-40520D01*
X54322Y-40520D01*
X54280Y-40562D01*
X54280Y-40793D01*
X54280Y-40859D01*
X54306Y-40921D01*
X54353Y-40969D01*
X54415Y-40994D01*
X54988Y-40994D01*
X55030Y-40952D01*
X55030Y-41135D01*
X55022Y-41138D01*
X54890Y-41269D01*
X54819Y-41441D01*
X54819Y-41628D01*
X54890Y-41800D01*
X55018Y-41928D01*
X54556Y-41928D01*
X54684Y-41800D01*
X54755Y-41628D01*
X54755Y-41442D01*
X54684Y-41270D01*
X54552Y-41138D01*
X54380Y-41067D01*
X54194Y-41067D01*
X54022Y-41138D01*
X53890Y-41269D01*
X53819Y-41441D01*
X53819Y-41628D01*
X53890Y-41800D01*
X54018Y-41928D01*
X53556Y-41928D01*
X53684Y-41800D01*
X53755Y-41628D01*
X53755Y-41442D01*
X53684Y-41270D01*
X53552Y-41138D01*
X53380Y-41067D01*
X53194Y-41067D01*
X53022Y-41138D01*
X52890Y-41269D01*
X52819Y-41441D01*
X52819Y-41628D01*
X52890Y-41800D01*
X53018Y-41928D01*
X52682Y-41928D01*
X52704Y-41905D01*
X52730Y-41844D01*
X52730Y-41777D01*
X52730Y-41293D01*
X52730Y-41226D01*
X52704Y-41165D01*
X52657Y-41117D01*
X52595Y-41092D01*
X52338Y-41092D01*
X52296Y-41134D01*
X52296Y-41526D01*
X52688Y-41526D01*
X52730Y-41484D01*
X52730Y-41293D01*
X52730Y-41777D01*
X52730Y-41586D01*
X52688Y-41544D01*
X52296Y-41544D01*
X52296Y-41552D01*
X52278Y-41552D01*
X52278Y-41544D01*
X52278Y-41526D01*
X52278Y-41134D01*
X52236Y-41092D01*
X51979Y-41092D01*
X51917Y-41117D01*
X51869Y-41165D01*
X51844Y-41226D01*
X51844Y-41293D01*
X51844Y-41484D01*
X51886Y-41526D01*
X52278Y-41526D01*
X52278Y-41544D01*
X51886Y-41544D01*
X51844Y-41586D01*
X51844Y-41777D01*
X51844Y-41844D01*
X51869Y-41905D01*
X51892Y-41928D01*
X51627Y-41928D01*
X51627Y-41269D01*
X51627Y-41153D01*
X51585Y-41111D01*
X51293Y-41111D01*
X51293Y-41428D01*
X51335Y-41470D01*
X51492Y-41470D01*
X51554Y-41444D01*
X51601Y-41397D01*
X51627Y-41335D01*
X51627Y-41269D01*
X51627Y-41928D01*
X50800Y-41928D01*
X50800Y-41898D01*
X50800Y-41783D01*
X50758Y-41741D01*
X50466Y-41741D01*
X50466Y-41749D01*
X50448Y-41749D01*
X50448Y-41741D01*
X50440Y-41741D01*
X50440Y-41723D01*
X50448Y-41723D01*
X50448Y-41715D01*
X50466Y-41715D01*
X50466Y-41723D01*
X50758Y-41723D01*
X50800Y-41681D01*
X50800Y-41565D01*
X50800Y-41498D01*
X50788Y-41470D01*
X50892Y-41470D01*
X50954Y-41444D01*
X50984Y-41415D01*
X51014Y-41444D01*
X51075Y-41470D01*
X51233Y-41470D01*
X51275Y-41428D01*
X51275Y-41111D01*
X51267Y-41111D01*
X51267Y-41093D01*
X51275Y-41093D01*
X51275Y-41085D01*
X51293Y-41085D01*
X51293Y-41093D01*
X51585Y-41093D01*
X51627Y-41051D01*
X51627Y-40935D01*
X51627Y-40868D01*
X51601Y-40807D01*
X51574Y-40779D01*
X51584Y-40775D01*
X51614Y-40745D01*
X51643Y-40775D01*
X51705Y-40801D01*
X51772Y-40801D01*
X52122Y-40801D01*
X52154Y-40787D01*
X52154Y-40859D01*
X52180Y-40921D01*
X52227Y-40968D01*
X52289Y-40994D01*
X52356Y-40994D01*
X53537Y-40994D01*
X53598Y-40969D01*
X53646Y-40921D01*
X53671Y-40859D01*
X53672Y-40793D01*
X53672Y-40222D01*
X53800Y-40222D01*
X53862Y-40197D01*
X53909Y-40149D01*
X53935Y-40087D01*
X53935Y-40021D01*
X53935Y-39361D01*
X53909Y-39299D01*
X53862Y-39251D01*
X53800Y-39226D01*
X53733Y-39226D01*
X53672Y-39226D01*
X53672Y-39219D01*
X53672Y-38750D01*
X53700Y-38755D01*
X54251Y-38755D01*
X54280Y-38750D01*
X54280Y-38886D01*
X54322Y-38928D01*
X55030Y-38928D01*
X55030Y-38920D01*
X55048Y-38920D01*
X55048Y-38928D01*
X55755Y-38928D01*
X55797Y-38886D01*
X55797Y-38829D01*
X55999Y-39004D01*
X55893Y-39001D01*
X55797Y-39037D01*
X55797Y-38988D01*
X55755Y-38946D01*
X55048Y-38946D01*
X55048Y-39283D01*
X55048Y-39378D01*
X55048Y-39715D01*
X55056Y-39715D01*
X55056Y-39733D01*
X55048Y-39733D01*
X55048Y-40070D01*
X55048Y-40165D01*
X55048Y-40502D01*
X55755Y-40502D01*
X55774Y-40483D01*
X55851Y-40517D01*
X56153Y-40526D01*
X56424Y-40422D01*
X56424Y-40422D01*
G37*
G54D34*
X56424Y-40422D02*
X56219Y-41067D01*
X56194Y-41067D01*
X56022Y-41138D01*
X55890Y-41269D01*
X55819Y-41441D01*
X55819Y-41628D01*
X55890Y-41800D01*
X56018Y-41928D01*
X55798Y-41928D01*
X55798Y-40793D01*
X55797Y-40562D01*
X55755Y-40520D01*
X55048Y-40520D01*
X55048Y-40952D01*
X55090Y-40994D01*
X55663Y-40994D01*
X55724Y-40969D01*
X55772Y-40921D01*
X55797Y-40859D01*
X55798Y-40793D01*
X55798Y-41928D01*
X55556Y-41928D01*
X55684Y-41800D01*
X55755Y-41628D01*
X55755Y-41442D01*
X55684Y-41270D01*
X55552Y-41138D01*
X55380Y-41067D01*
X55194Y-41067D01*
X55030Y-41135D01*
X55030Y-40952D01*
X55030Y-40520D01*
X55030Y-40502D01*
X55030Y-40165D01*
X55030Y-40070D01*
X55030Y-39733D01*
X55022Y-39733D01*
X55022Y-39715D01*
X55030Y-39715D01*
X55030Y-39378D01*
X55030Y-39283D01*
X55030Y-38946D01*
X54322Y-38946D01*
X54280Y-38988D01*
X54280Y-39219D01*
X54280Y-39250D01*
X54163Y-39296D01*
X54145Y-39308D01*
X54114Y-39388D01*
X54280Y-39555D01*
X54280Y-39580D01*
X54101Y-39401D01*
X54020Y-39433D01*
X53941Y-39614D01*
X53936Y-39812D01*
X54008Y-39997D01*
X54020Y-40015D01*
X54101Y-40047D01*
X54280Y-39867D01*
X54280Y-39893D01*
X54114Y-40060D01*
X54145Y-40140D01*
X54280Y-40199D01*
X54280Y-40229D01*
X54280Y-40460D01*
X54322Y-40502D01*
X55030Y-40502D01*
X55030Y-40520D01*
X54322Y-40520D01*
X54280Y-40562D01*
X54280Y-40793D01*
X54280Y-40859D01*
X54306Y-40921D01*
X54353Y-40969D01*
X54415Y-40994D01*
X54988Y-40994D01*
X55030Y-40952D01*
X55030Y-41135D01*
X55022Y-41138D01*
X54890Y-41269D01*
X54819Y-41441D01*
X54819Y-41628D01*
X54890Y-41800D01*
X55018Y-41928D01*
X54556Y-41928D01*
X54684Y-41800D01*
X54755Y-41628D01*
X54755Y-41442D01*
X54684Y-41270D01*
X54552Y-41138D01*
X54380Y-41067D01*
X54194Y-41067D01*
X54022Y-41138D01*
X53890Y-41269D01*
X53819Y-41441D01*
X53819Y-41628D01*
X53890Y-41800D01*
X54018Y-41928D01*
X53556Y-41928D01*
X53684Y-41800D01*
X53755Y-41628D01*
X53755Y-41442D01*
X53684Y-41270D01*
X53552Y-41138D01*
X53380Y-41067D01*
X53194Y-41067D01*
X53022Y-41138D01*
X52890Y-41269D01*
X52819Y-41441D01*
X52819Y-41628D01*
X52890Y-41800D01*
X53018Y-41928D01*
X52682Y-41928D01*
X52704Y-41905D01*
X52730Y-41844D01*
X52730Y-41777D01*
X52730Y-41293D01*
X52730Y-41226D01*
X52704Y-41165D01*
X52657Y-41117D01*
X52595Y-41092D01*
X52338Y-41092D01*
X52296Y-41134D01*
X52296Y-41526D01*
X52688Y-41526D01*
X52730Y-41484D01*
X52730Y-41293D01*
X52730Y-41777D01*
X52730Y-41586D01*
X52688Y-41544D01*
X52296Y-41544D01*
X52296Y-41552D01*
X52278Y-41552D01*
X52278Y-41544D01*
X52278Y-41526D01*
X52278Y-41134D01*
X52236Y-41092D01*
X51979Y-41092D01*
X51917Y-41117D01*
X51869Y-41165D01*
X51844Y-41226D01*
X51844Y-41293D01*
X51844Y-41484D01*
X51886Y-41526D01*
X52278Y-41526D01*
X52278Y-41544D01*
X51886Y-41544D01*
X51844Y-41586D01*
X51844Y-41777D01*
X51844Y-41844D01*
X51869Y-41905D01*
X51892Y-41928D01*
X51627Y-41928D01*
X51627Y-41269D01*
X51627Y-41153D01*
X51585Y-41111D01*
X51293Y-41111D01*
X51293Y-41428D01*
X51335Y-41470D01*
X51492Y-41470D01*
X51554Y-41444D01*
X51601Y-41397D01*
X51627Y-41335D01*
X51627Y-41269D01*
X51627Y-41928D01*
X50800Y-41928D01*
X50800Y-41898D01*
X50800Y-41783D01*
X50758Y-41741D01*
X50466Y-41741D01*
X50466Y-41749D01*
X50448Y-41749D01*
X50448Y-41741D01*
X50440Y-41741D01*
X50440Y-41723D01*
X50448Y-41723D01*
X50448Y-41715D01*
X50466Y-41715D01*
X50466Y-41723D01*
X50758Y-41723D01*
X50800Y-41681D01*
X50800Y-41565D01*
X50800Y-41498D01*
X50788Y-41470D01*
X50892Y-41470D01*
X50954Y-41444D01*
X50984Y-41415D01*
X51014Y-41444D01*
X51075Y-41470D01*
X51233Y-41470D01*
X51275Y-41428D01*
X51275Y-41111D01*
X51267Y-41111D01*
X51267Y-41093D01*
X51275Y-41093D01*
X51275Y-41085D01*
X51293Y-41085D01*
X51293Y-41093D01*
X51585Y-41093D01*
X51627Y-41051D01*
X51627Y-40935D01*
X51627Y-40868D01*
X51601Y-40807D01*
X51574Y-40779D01*
X51584Y-40775D01*
X51614Y-40745D01*
X51643Y-40775D01*
X51705Y-40801D01*
X51772Y-40801D01*
X52122Y-40801D01*
X52154Y-40787D01*
X52154Y-40859D01*
X52180Y-40921D01*
X52227Y-40968D01*
X52289Y-40994D01*
X52356Y-40994D01*
X53537Y-40994D01*
X53598Y-40969D01*
X53646Y-40921D01*
X53671Y-40859D01*
X53672Y-40793D01*
X53672Y-40222D01*
X53800Y-40222D01*
X53862Y-40197D01*
X53909Y-40149D01*
X53935Y-40087D01*
X53935Y-40021D01*
X53935Y-39361D01*
X53909Y-39299D01*
X53862Y-39251D01*
X53800Y-39226D01*
X53733Y-39226D01*
X53672Y-39226D01*
X53672Y-39219D01*
X53672Y-38750D01*
X53700Y-38755D01*
X54251Y-38755D01*
X54280Y-38750D01*
X54280Y-38886D01*
X54322Y-38928D01*
X55030Y-38928D01*
X55030Y-38920D01*
X55048Y-38920D01*
X55048Y-38928D01*
X55755Y-38928D01*
X55797Y-38886D01*
X55797Y-38829D01*
X55999Y-39004D01*
X55893Y-39001D01*
X55797Y-39037D01*
X55797Y-38988D01*
X55755Y-38946D01*
X55048Y-38946D01*
X55048Y-39283D01*
X55048Y-39378D01*
X55048Y-39715D01*
X55056Y-39715D01*
X55056Y-39733D01*
X55048Y-39733D01*
X55048Y-40070D01*
X55048Y-40165D01*
X55048Y-40502D01*
X55755Y-40502D01*
X55774Y-40483D01*
X55851Y-40517D01*
X56153Y-40526D01*
X56424Y-40422D01*
G54D10*
G36*
X58018Y-41928D02*
X57556Y-41928D01*
X57684Y-41800D01*
X57755Y-41628D01*
X57755Y-41442D01*
X57684Y-41270D01*
X57552Y-41138D01*
X57404Y-41077D01*
X57356Y-40845D01*
X57356Y-40844D01*
X57240Y-39955D01*
X57635Y-40691D01*
X57636Y-40693D01*
X57912Y-41248D01*
X57890Y-41269D01*
X57819Y-41441D01*
X57819Y-41628D01*
X57890Y-41800D01*
X58018Y-41928D01*
X58018Y-41928D01*
G37*
G54D34*
X58018Y-41928D02*
X57556Y-41928D01*
X57684Y-41800D01*
X57755Y-41628D01*
X57755Y-41442D01*
X57684Y-41270D01*
X57552Y-41138D01*
X57404Y-41077D01*
X57356Y-40845D01*
X57356Y-40844D01*
X57240Y-39955D01*
X57635Y-40691D01*
X57636Y-40693D01*
X57912Y-41248D01*
X57890Y-41269D01*
X57819Y-41441D01*
X57819Y-41628D01*
X57890Y-41800D01*
X58018Y-41928D01*
G54D10*
G36*
X59644Y-41230D02*
X59605Y-41191D01*
X59605Y-40287D01*
X59094Y-39776D01*
X59081Y-39789D01*
X59081Y-39763D01*
X58570Y-39253D01*
X58463Y-39316D01*
X58340Y-39592D01*
X58332Y-39893D01*
X58439Y-40175D01*
X58463Y-40211D01*
X58570Y-40274D01*
X59081Y-39763D01*
X59081Y-39789D01*
X58583Y-40287D01*
X58647Y-40394D01*
X58922Y-40517D01*
X59224Y-40526D01*
X59506Y-40418D01*
X59541Y-40394D01*
X59605Y-40287D01*
X59605Y-41191D01*
X59552Y-41138D01*
X59380Y-41067D01*
X59194Y-41067D01*
X59172Y-41076D01*
X57393Y-38947D01*
X57385Y-38942D01*
X57380Y-38934D01*
X56853Y-38406D01*
X56849Y-38404D01*
X56843Y-38396D01*
X56115Y-37756D01*
X56085Y-37739D01*
X56057Y-37720D01*
X55964Y-37682D01*
X55885Y-37666D01*
X54921Y-37666D01*
X54409Y-37666D01*
X54368Y-37675D01*
X54335Y-37680D01*
X54330Y-37682D01*
X54330Y-37682D01*
X54330Y-37682D01*
X54134Y-37758D01*
X54131Y-37759D01*
X54129Y-37760D01*
X54065Y-37786D01*
X54065Y-37786D01*
X54032Y-37808D01*
X53923Y-37808D01*
X53912Y-37798D01*
X53798Y-37733D01*
X53785Y-37728D01*
X53774Y-37720D01*
X53681Y-37682D01*
X53602Y-37666D01*
X52578Y-37666D01*
X52067Y-37666D01*
X52057Y-37668D01*
X52044Y-37667D01*
X51017Y-37782D01*
X50995Y-37789D01*
X50970Y-37793D01*
X50823Y-37846D01*
X50819Y-37849D01*
X50814Y-37850D01*
X50741Y-37880D01*
X50740Y-37881D01*
X50736Y-37882D01*
X50643Y-37923D01*
X50643Y-37846D01*
X50601Y-37804D01*
X50309Y-37804D01*
X50309Y-37812D01*
X50290Y-37812D01*
X50290Y-37804D01*
X50283Y-37804D01*
X50283Y-37786D01*
X50290Y-37786D01*
X50290Y-37778D01*
X50309Y-37778D01*
X50309Y-37786D01*
X50601Y-37786D01*
X50643Y-37744D01*
X50643Y-37628D01*
X50643Y-37599D01*
X59644Y-37599D01*
X59644Y-39268D01*
X59618Y-39253D01*
X59605Y-39265D01*
X59605Y-39240D01*
X59541Y-39132D01*
X59266Y-39009D01*
X58964Y-39001D01*
X58682Y-39109D01*
X58647Y-39132D01*
X58583Y-39240D01*
X59094Y-39750D01*
X59605Y-39240D01*
X59605Y-39265D01*
X59107Y-39763D01*
X59618Y-40274D01*
X59644Y-40258D01*
X59644Y-41230D01*
X59644Y-41230D01*
G37*
G54D34*
X59644Y-41230D02*
X59605Y-41191D01*
X59605Y-40287D01*
X59094Y-39776D01*
X59081Y-39789D01*
X59081Y-39763D01*
X58570Y-39253D01*
X58463Y-39316D01*
X58340Y-39592D01*
X58332Y-39893D01*
X58439Y-40175D01*
X58463Y-40211D01*
X58570Y-40274D01*
X59081Y-39763D01*
X59081Y-39789D01*
X58583Y-40287D01*
X58647Y-40394D01*
X58922Y-40517D01*
X59224Y-40526D01*
X59506Y-40418D01*
X59541Y-40394D01*
X59605Y-40287D01*
X59605Y-41191D01*
X59552Y-41138D01*
X59380Y-41067D01*
X59194Y-41067D01*
X59172Y-41076D01*
X57393Y-38947D01*
X57385Y-38942D01*
X57380Y-38934D01*
X56853Y-38406D01*
X56849Y-38404D01*
X56843Y-38396D01*
X56115Y-37756D01*
X56085Y-37739D01*
X56057Y-37720D01*
X55964Y-37682D01*
X55885Y-37666D01*
X54921Y-37666D01*
X54409Y-37666D01*
X54368Y-37675D01*
X54335Y-37680D01*
X54330Y-37682D01*
X54330Y-37682D01*
X54330Y-37682D01*
X54134Y-37758D01*
X54131Y-37759D01*
X54129Y-37760D01*
X54065Y-37786D01*
X54065Y-37786D01*
X54032Y-37808D01*
X53923Y-37808D01*
X53912Y-37798D01*
X53798Y-37733D01*
X53785Y-37728D01*
X53774Y-37720D01*
X53681Y-37682D01*
X53602Y-37666D01*
X52578Y-37666D01*
X52067Y-37666D01*
X52057Y-37668D01*
X52044Y-37667D01*
X51017Y-37782D01*
X50995Y-37789D01*
X50970Y-37793D01*
X50823Y-37846D01*
X50819Y-37849D01*
X50814Y-37850D01*
X50741Y-37880D01*
X50740Y-37881D01*
X50736Y-37882D01*
X50643Y-37923D01*
X50643Y-37846D01*
X50601Y-37804D01*
X50309Y-37804D01*
X50309Y-37812D01*
X50290Y-37812D01*
X50290Y-37804D01*
X50283Y-37804D01*
X50283Y-37786D01*
X50290Y-37786D01*
X50290Y-37778D01*
X50309Y-37778D01*
X50309Y-37786D01*
X50601Y-37786D01*
X50643Y-37744D01*
X50643Y-37628D01*
X50643Y-37599D01*
X59644Y-37599D01*
X59644Y-39268D01*
X59618Y-39253D01*
X59605Y-39265D01*
X59605Y-39240D01*
X59541Y-39132D01*
X59266Y-39009D01*
X58964Y-39001D01*
X58682Y-39109D01*
X58647Y-39132D01*
X58583Y-39240D01*
X59094Y-39750D01*
X59605Y-39240D01*
X59605Y-39265D01*
X59107Y-39763D01*
X59618Y-40274D01*
X59644Y-40258D01*
X59644Y-41230D01*
M02*
