G04 (created by PCBNEW (2013-03-19 BZR 4004)-stable) date 24/05/2013 23:59:16*
%MOIN*%
G04 Gerber Fmt 3.4, Leading zero omitted, Abs format*
%FSLAX34Y34*%
G01*
G70*
G90*
G04 APERTURE LIST*
%ADD10C,0.006*%
%ADD11R,0.1181X0.1181*%
%ADD12C,0.1181*%
%ADD13R,0.055X0.055*%
%ADD14C,0.06*%
%ADD15R,0.0551X0.0551*%
%ADD16C,0.0551*%
%ADD17C,0.055*%
%ADD18R,0.066X0.066*%
%ADD19C,0.066*%
%ADD20C,0.0354331*%
%ADD21C,0.019685*%
%ADD22C,0.00787402*%
%ADD23C,0.01*%
G04 APERTURE END LIST*
G54D10*
G54D11*
X38110Y-39724D03*
G54D12*
X56023Y-39763D03*
X59094Y-39763D03*
G54D13*
X52287Y-41535D03*
G54D14*
X53287Y-41535D03*
X54287Y-41535D03*
X55287Y-41535D03*
X56287Y-41535D03*
X57287Y-41535D03*
X58287Y-41535D03*
X59287Y-41535D03*
G54D15*
X41098Y-37952D03*
G54D16*
X42098Y-37952D03*
X43098Y-37952D03*
X44098Y-37952D03*
G54D13*
X44897Y-41535D03*
G54D17*
X43897Y-41535D03*
X42897Y-41535D03*
G54D13*
X37976Y-37992D03*
G54D17*
X38976Y-37992D03*
X39976Y-37992D03*
G54D18*
X53437Y-39724D03*
G54D19*
X54437Y-39724D03*
G54D20*
X49720Y-38263D03*
X49968Y-41141D03*
X38350Y-40657D03*
X41893Y-38759D03*
X46283Y-41007D03*
X47874Y-40866D03*
X48330Y-40751D03*
X48236Y-40291D03*
X46759Y-39921D03*
X45708Y-39858D03*
X46129Y-38669D03*
X47137Y-39440D03*
X48271Y-38244D03*
X50748Y-37720D03*
X39149Y-40751D03*
X40181Y-40566D03*
X44212Y-40011D03*
X44035Y-38826D03*
X49688Y-39838D03*
X49133Y-40397D03*
X46881Y-37937D03*
X45822Y-41236D03*
X48145Y-41795D03*
X43248Y-38838D03*
X48897Y-39610D03*
X48460Y-39425D03*
X41141Y-39925D03*
X42877Y-40547D03*
X50897Y-39314D03*
X51374Y-41594D03*
X45653Y-38767D03*
X57236Y-38053D03*
X58503Y-38351D03*
X53976Y-37700D03*
X57484Y-40732D03*
X48641Y-38929D03*
X46322Y-37870D03*
X47669Y-38937D03*
X40098Y-41633D03*
G54D21*
X41157Y-38317D02*
X41204Y-38507D01*
X41157Y-38228D02*
X41157Y-38317D01*
X41157Y-38129D02*
X41157Y-38228D01*
X41098Y-37952D02*
X41157Y-38129D01*
X49060Y-40003D02*
X49224Y-39929D01*
X48734Y-40003D02*
X49060Y-40003D01*
X48399Y-39897D02*
X48734Y-40003D01*
X48073Y-39897D02*
X48399Y-39897D01*
X46283Y-41007D02*
X48073Y-39897D01*
X41893Y-38759D02*
X41204Y-38507D01*
X38986Y-40358D02*
X41204Y-38507D01*
X38790Y-40531D02*
X38986Y-40358D01*
X38350Y-40657D02*
X38790Y-40531D01*
X49295Y-39675D02*
X49720Y-38263D01*
X49291Y-39773D02*
X49295Y-39675D01*
X49224Y-39929D02*
X49291Y-39773D01*
X49527Y-40234D02*
X49968Y-41141D01*
X49295Y-40001D02*
X49527Y-40234D01*
X49224Y-39929D02*
X49295Y-40001D01*
G54D22*
X52627Y-41102D02*
X53287Y-41535D01*
X52077Y-41102D02*
X52627Y-41102D01*
X51947Y-41102D02*
X52077Y-41102D01*
X51235Y-41259D02*
X51947Y-41102D01*
X50305Y-41834D02*
X51235Y-41259D01*
X50220Y-41870D02*
X50305Y-41834D01*
X49716Y-41870D02*
X50220Y-41870D01*
X49631Y-41834D02*
X49716Y-41870D01*
X48192Y-41086D02*
X49631Y-41834D01*
X47874Y-40866D02*
X48192Y-41086D01*
X53476Y-41077D02*
X54287Y-41535D01*
X52709Y-40906D02*
X53476Y-41077D01*
X52159Y-40906D02*
X52709Y-40906D01*
X51865Y-40906D02*
X52159Y-40906D01*
X51161Y-41062D02*
X51865Y-40906D01*
X51148Y-41068D02*
X51161Y-41062D01*
X50194Y-41667D02*
X51148Y-41068D01*
X50181Y-41673D02*
X50194Y-41667D01*
X49755Y-41673D02*
X50181Y-41673D01*
X49742Y-41667D02*
X49755Y-41673D01*
X48330Y-40751D02*
X49742Y-41667D01*
X54476Y-41077D02*
X55287Y-41535D01*
X52778Y-40709D02*
X54476Y-41077D01*
X52228Y-40709D02*
X52778Y-40709D01*
X51795Y-40709D02*
X52228Y-40709D01*
X51122Y-40866D02*
X51795Y-40709D01*
X51036Y-40901D02*
X51122Y-40866D01*
X50107Y-41476D02*
X51036Y-40901D01*
X49829Y-41476D02*
X50107Y-41476D01*
X48469Y-40417D02*
X49829Y-41476D01*
X48236Y-40291D02*
X48469Y-40417D01*
X45133Y-41417D02*
X44897Y-41535D01*
X45172Y-41417D02*
X45133Y-41417D01*
X45237Y-41417D02*
X45172Y-41417D01*
X45330Y-41325D02*
X45237Y-41417D01*
X45488Y-41097D02*
X45330Y-41325D01*
X45684Y-40901D02*
X45488Y-41097D01*
X46759Y-39921D02*
X45684Y-40901D01*
X43896Y-39161D02*
X45708Y-39858D01*
X43700Y-38965D02*
X43896Y-39161D01*
X43582Y-38699D02*
X43700Y-38965D01*
X43386Y-38503D02*
X43582Y-38699D01*
X42919Y-38385D02*
X43386Y-38503D01*
X42098Y-37952D02*
X42919Y-38385D01*
X45792Y-38433D02*
X44098Y-37952D01*
X46129Y-38669D02*
X45792Y-38433D01*
X44557Y-41102D02*
X43897Y-41535D01*
X45934Y-40384D02*
X44557Y-41102D01*
X46234Y-40083D02*
X45934Y-40384D01*
X46425Y-39782D02*
X46234Y-40083D01*
X46621Y-39586D02*
X46425Y-39782D01*
X47137Y-39440D02*
X46621Y-39586D01*
G54D21*
X56023Y-39763D02*
X57484Y-40732D01*
X53017Y-40270D02*
X50897Y-39314D01*
X53677Y-40270D02*
X53017Y-40270D01*
X53856Y-40270D02*
X53677Y-40270D01*
X54652Y-40270D02*
X53856Y-40270D01*
X56023Y-39763D02*
X54652Y-40270D01*
X59094Y-39763D02*
X57484Y-40732D01*
X55287Y-38346D02*
X56023Y-39763D01*
X53976Y-37700D02*
X55287Y-38346D01*
X58503Y-38351D02*
X59094Y-39763D01*
X57236Y-38053D02*
X58503Y-38351D01*
X57236Y-38053D02*
X55287Y-38346D01*
X50897Y-39314D02*
X51240Y-38271D01*
X48897Y-39610D02*
X48460Y-39425D01*
X46120Y-41401D02*
X48145Y-41795D01*
X45822Y-41236D02*
X46120Y-41401D01*
X46881Y-37937D02*
X48271Y-38244D01*
X49688Y-39838D02*
X50897Y-39314D01*
X43507Y-38262D02*
X43098Y-37952D01*
X43824Y-38579D02*
X43507Y-38262D01*
X44035Y-38826D02*
X43824Y-38579D01*
X44212Y-40011D02*
X43248Y-38838D01*
X39149Y-40751D02*
X40181Y-40566D01*
X50748Y-37720D02*
X51240Y-38271D01*
X49557Y-37870D02*
X50748Y-37720D01*
X48271Y-38244D02*
X49557Y-37870D01*
X51240Y-38271D02*
X53976Y-37700D01*
G54D22*
X46743Y-38271D02*
X46322Y-37870D01*
X47807Y-38602D02*
X46743Y-38271D01*
X48641Y-38929D02*
X47807Y-38602D01*
X45847Y-40192D02*
X40098Y-41633D01*
X46043Y-39996D02*
X45847Y-40192D01*
X46233Y-39695D02*
X46043Y-39996D01*
X46534Y-39395D02*
X46233Y-39695D01*
X46999Y-39106D02*
X46534Y-39395D01*
X47669Y-38937D02*
X46999Y-39106D01*
G54D10*
G36*
X45076Y-40597D02*
X44461Y-40919D01*
X44451Y-40926D01*
X44444Y-40929D01*
X44114Y-41145D01*
X43986Y-41092D01*
X43809Y-41092D01*
X43646Y-41159D01*
X43522Y-41284D01*
X43454Y-41446D01*
X43454Y-41623D01*
X43521Y-41786D01*
X43646Y-41910D01*
X43688Y-41928D01*
X43342Y-41928D01*
X43342Y-41455D01*
X43278Y-41291D01*
X43268Y-41277D01*
X43193Y-41252D01*
X42910Y-41535D01*
X43193Y-41818D01*
X43268Y-41793D01*
X43338Y-41632D01*
X43342Y-41455D01*
X43342Y-41928D01*
X43109Y-41928D01*
X43141Y-41915D01*
X43155Y-41906D01*
X43180Y-41831D01*
X42897Y-41548D01*
X42884Y-41561D01*
X42614Y-41831D01*
X42639Y-41906D01*
X42690Y-41928D01*
X40289Y-41928D01*
X40293Y-41926D01*
X40390Y-41829D01*
X40416Y-41767D01*
X42575Y-41225D01*
X42601Y-41252D01*
X42526Y-41277D01*
X42456Y-41438D01*
X42452Y-41615D01*
X42517Y-41779D01*
X42526Y-41793D01*
X42601Y-41818D01*
X42884Y-41535D01*
X42879Y-41529D01*
X42892Y-41517D01*
X42897Y-41522D01*
X43180Y-41239D01*
X43155Y-41164D01*
X43032Y-41110D01*
X45076Y-40597D01*
X45076Y-40597D01*
G37*
G54D23*
X45076Y-40597D02*
X44461Y-40919D01*
X44451Y-40926D01*
X44444Y-40929D01*
X44114Y-41145D01*
X43986Y-41092D01*
X43809Y-41092D01*
X43646Y-41159D01*
X43522Y-41284D01*
X43454Y-41446D01*
X43454Y-41623D01*
X43521Y-41786D01*
X43646Y-41910D01*
X43688Y-41928D01*
X43342Y-41928D01*
X43342Y-41455D01*
X43278Y-41291D01*
X43268Y-41277D01*
X43193Y-41252D01*
X42910Y-41535D01*
X43193Y-41818D01*
X43268Y-41793D01*
X43338Y-41632D01*
X43342Y-41455D01*
X43342Y-41928D01*
X43109Y-41928D01*
X43141Y-41915D01*
X43155Y-41906D01*
X43180Y-41831D01*
X42897Y-41548D01*
X42884Y-41561D01*
X42614Y-41831D01*
X42639Y-41906D01*
X42690Y-41928D01*
X40289Y-41928D01*
X40293Y-41926D01*
X40390Y-41829D01*
X40416Y-41767D01*
X42575Y-41225D01*
X42601Y-41252D01*
X42526Y-41277D01*
X42456Y-41438D01*
X42452Y-41615D01*
X42517Y-41779D01*
X42526Y-41793D01*
X42601Y-41818D01*
X42884Y-41535D01*
X42879Y-41529D01*
X42892Y-41517D01*
X42897Y-41522D01*
X43180Y-41239D01*
X43155Y-41164D01*
X43032Y-41110D01*
X45076Y-40597D01*
G54D10*
G36*
X45440Y-40078D02*
X40317Y-41364D01*
X40294Y-41341D01*
X40167Y-41288D01*
X40030Y-41288D01*
X39903Y-41340D01*
X39805Y-41438D01*
X39753Y-41564D01*
X39753Y-41702D01*
X39805Y-41829D01*
X39902Y-41926D01*
X39907Y-41928D01*
X37599Y-41928D01*
X37599Y-40483D01*
X38048Y-40483D01*
X38005Y-40588D01*
X38005Y-40725D01*
X38057Y-40852D01*
X38154Y-40950D01*
X38281Y-41002D01*
X38418Y-41002D01*
X38545Y-40950D01*
X38642Y-40853D01*
X38644Y-40850D01*
X38863Y-40787D01*
X38869Y-40784D01*
X38877Y-40783D01*
X38919Y-40758D01*
X38956Y-40739D01*
X38960Y-40734D01*
X38967Y-40731D01*
X39157Y-40563D01*
X39157Y-40563D01*
X41259Y-38811D01*
X41591Y-38933D01*
X41600Y-38955D01*
X41697Y-39052D01*
X41824Y-39105D01*
X41962Y-39105D01*
X42089Y-39052D01*
X42186Y-38955D01*
X42238Y-38828D01*
X42239Y-38691D01*
X42186Y-38564D01*
X42089Y-38467D01*
X41962Y-38414D01*
X41825Y-38414D01*
X41778Y-38433D01*
X41505Y-38334D01*
X41516Y-38323D01*
X41542Y-38261D01*
X41542Y-38194D01*
X41542Y-37643D01*
X41523Y-37599D01*
X41824Y-37599D01*
X41722Y-37701D01*
X41654Y-37864D01*
X41654Y-38040D01*
X41722Y-38203D01*
X41846Y-38328D01*
X42009Y-38396D01*
X42186Y-38396D01*
X42349Y-38329D01*
X42355Y-38322D01*
X42822Y-38569D01*
X42844Y-38575D01*
X42868Y-38586D01*
X43280Y-38691D01*
X43408Y-38819D01*
X43509Y-39044D01*
X43509Y-39044D01*
X43509Y-39045D01*
X43511Y-39049D01*
X43530Y-39076D01*
X43554Y-39112D01*
X43750Y-39308D01*
X43752Y-39309D01*
X43753Y-39311D01*
X43785Y-39332D01*
X43817Y-39353D01*
X43820Y-39353D01*
X43822Y-39355D01*
X45373Y-39950D01*
X45415Y-40053D01*
X45440Y-40078D01*
X45440Y-40078D01*
G37*
G54D23*
X45440Y-40078D02*
X40317Y-41364D01*
X40294Y-41341D01*
X40167Y-41288D01*
X40030Y-41288D01*
X39903Y-41340D01*
X39805Y-41438D01*
X39753Y-41564D01*
X39753Y-41702D01*
X39805Y-41829D01*
X39902Y-41926D01*
X39907Y-41928D01*
X37599Y-41928D01*
X37599Y-40483D01*
X38048Y-40483D01*
X38005Y-40588D01*
X38005Y-40725D01*
X38057Y-40852D01*
X38154Y-40950D01*
X38281Y-41002D01*
X38418Y-41002D01*
X38545Y-40950D01*
X38642Y-40853D01*
X38644Y-40850D01*
X38863Y-40787D01*
X38869Y-40784D01*
X38877Y-40783D01*
X38919Y-40758D01*
X38956Y-40739D01*
X38960Y-40734D01*
X38967Y-40731D01*
X39157Y-40563D01*
X39157Y-40563D01*
X41259Y-38811D01*
X41591Y-38933D01*
X41600Y-38955D01*
X41697Y-39052D01*
X41824Y-39105D01*
X41962Y-39105D01*
X42089Y-39052D01*
X42186Y-38955D01*
X42238Y-38828D01*
X42239Y-38691D01*
X42186Y-38564D01*
X42089Y-38467D01*
X41962Y-38414D01*
X41825Y-38414D01*
X41778Y-38433D01*
X41505Y-38334D01*
X41516Y-38323D01*
X41542Y-38261D01*
X41542Y-38194D01*
X41542Y-37643D01*
X41523Y-37599D01*
X41824Y-37599D01*
X41722Y-37701D01*
X41654Y-37864D01*
X41654Y-38040D01*
X41722Y-38203D01*
X41846Y-38328D01*
X42009Y-38396D01*
X42186Y-38396D01*
X42349Y-38329D01*
X42355Y-38322D01*
X42822Y-38569D01*
X42844Y-38575D01*
X42868Y-38586D01*
X43280Y-38691D01*
X43408Y-38819D01*
X43509Y-39044D01*
X43509Y-39044D01*
X43509Y-39045D01*
X43511Y-39049D01*
X43530Y-39076D01*
X43554Y-39112D01*
X43750Y-39308D01*
X43752Y-39309D01*
X43753Y-39311D01*
X43785Y-39332D01*
X43817Y-39353D01*
X43820Y-39353D01*
X43822Y-39355D01*
X45373Y-39950D01*
X45415Y-40053D01*
X45440Y-40078D01*
G54D10*
G36*
X47418Y-38699D02*
X47376Y-38741D01*
X47350Y-38803D01*
X46948Y-38905D01*
X46914Y-38921D01*
X46890Y-38930D01*
X46424Y-39218D01*
X46407Y-39235D01*
X46387Y-39248D01*
X46086Y-39548D01*
X46073Y-39568D01*
X46058Y-39584D01*
X46004Y-39670D01*
X46001Y-39662D01*
X45904Y-39565D01*
X45777Y-39513D01*
X45640Y-39512D01*
X45520Y-39562D01*
X44012Y-38983D01*
X43874Y-38846D01*
X43772Y-38615D01*
X43750Y-38584D01*
X43729Y-38553D01*
X43543Y-38367D01*
X43543Y-37873D01*
X43479Y-37708D01*
X43469Y-37694D01*
X43394Y-37669D01*
X43111Y-37952D01*
X43394Y-38236D01*
X43469Y-38211D01*
X43540Y-38049D01*
X43543Y-37873D01*
X43543Y-38367D01*
X43533Y-38357D01*
X43520Y-38348D01*
X43510Y-38337D01*
X43488Y-38327D01*
X43466Y-38312D01*
X43450Y-38309D01*
X43437Y-38302D01*
X43369Y-38285D01*
X43382Y-38249D01*
X43098Y-37965D01*
X43092Y-37971D01*
X43080Y-37958D01*
X43085Y-37952D01*
X42801Y-37669D01*
X42727Y-37694D01*
X42656Y-37855D01*
X42653Y-38010D01*
X42542Y-37952D01*
X42542Y-37864D01*
X42474Y-37701D01*
X42372Y-37599D01*
X42834Y-37599D01*
X42814Y-37656D01*
X43098Y-37939D01*
X43382Y-37656D01*
X43362Y-37599D01*
X43824Y-37599D01*
X43722Y-37701D01*
X43654Y-37864D01*
X43654Y-38040D01*
X43722Y-38203D01*
X43846Y-38328D01*
X44009Y-38396D01*
X44186Y-38396D01*
X44349Y-38329D01*
X44419Y-38259D01*
X45699Y-38621D01*
X45784Y-38681D01*
X45784Y-38737D01*
X45837Y-38864D01*
X45934Y-38961D01*
X46060Y-39014D01*
X46198Y-39014D01*
X46325Y-38962D01*
X46422Y-38865D01*
X46475Y-38738D01*
X46475Y-38600D01*
X46422Y-38473D01*
X46325Y-38376D01*
X46198Y-38324D01*
X46061Y-38323D01*
X46021Y-38340D01*
X45922Y-38270D01*
X45921Y-38269D01*
X45917Y-38267D01*
X45911Y-38263D01*
X45894Y-38255D01*
X45848Y-38232D01*
X44541Y-37862D01*
X44474Y-37701D01*
X44372Y-37599D01*
X46105Y-37599D01*
X46030Y-37674D01*
X45977Y-37801D01*
X45977Y-37938D01*
X46029Y-38065D01*
X46126Y-38162D01*
X46253Y-38215D01*
X46383Y-38215D01*
X46599Y-38421D01*
X46606Y-38425D01*
X46610Y-38431D01*
X46638Y-38446D01*
X46668Y-38465D01*
X46675Y-38466D01*
X46681Y-38469D01*
X47418Y-38699D01*
X47418Y-38699D01*
G37*
G54D23*
X47418Y-38699D02*
X47376Y-38741D01*
X47350Y-38803D01*
X46948Y-38905D01*
X46914Y-38921D01*
X46890Y-38930D01*
X46424Y-39218D01*
X46407Y-39235D01*
X46387Y-39248D01*
X46086Y-39548D01*
X46073Y-39568D01*
X46058Y-39584D01*
X46004Y-39670D01*
X46001Y-39662D01*
X45904Y-39565D01*
X45777Y-39513D01*
X45640Y-39512D01*
X45520Y-39562D01*
X44012Y-38983D01*
X43874Y-38846D01*
X43772Y-38615D01*
X43750Y-38584D01*
X43729Y-38553D01*
X43543Y-38367D01*
X43543Y-37873D01*
X43479Y-37708D01*
X43469Y-37694D01*
X43394Y-37669D01*
X43111Y-37952D01*
X43394Y-38236D01*
X43469Y-38211D01*
X43540Y-38049D01*
X43543Y-37873D01*
X43543Y-38367D01*
X43533Y-38357D01*
X43520Y-38348D01*
X43510Y-38337D01*
X43488Y-38327D01*
X43466Y-38312D01*
X43450Y-38309D01*
X43437Y-38302D01*
X43369Y-38285D01*
X43382Y-38249D01*
X43098Y-37965D01*
X43092Y-37971D01*
X43080Y-37958D01*
X43085Y-37952D01*
X42801Y-37669D01*
X42727Y-37694D01*
X42656Y-37855D01*
X42653Y-38010D01*
X42542Y-37952D01*
X42542Y-37864D01*
X42474Y-37701D01*
X42372Y-37599D01*
X42834Y-37599D01*
X42814Y-37656D01*
X43098Y-37939D01*
X43382Y-37656D01*
X43362Y-37599D01*
X43824Y-37599D01*
X43722Y-37701D01*
X43654Y-37864D01*
X43654Y-38040D01*
X43722Y-38203D01*
X43846Y-38328D01*
X44009Y-38396D01*
X44186Y-38396D01*
X44349Y-38329D01*
X44419Y-38259D01*
X45699Y-38621D01*
X45784Y-38681D01*
X45784Y-38737D01*
X45837Y-38864D01*
X45934Y-38961D01*
X46060Y-39014D01*
X46198Y-39014D01*
X46325Y-38962D01*
X46422Y-38865D01*
X46475Y-38738D01*
X46475Y-38600D01*
X46422Y-38473D01*
X46325Y-38376D01*
X46198Y-38324D01*
X46061Y-38323D01*
X46021Y-38340D01*
X45922Y-38270D01*
X45921Y-38269D01*
X45917Y-38267D01*
X45911Y-38263D01*
X45894Y-38255D01*
X45848Y-38232D01*
X44541Y-37862D01*
X44474Y-37701D01*
X44372Y-37599D01*
X46105Y-37599D01*
X46030Y-37674D01*
X45977Y-37801D01*
X45977Y-37938D01*
X46029Y-38065D01*
X46126Y-38162D01*
X46253Y-38215D01*
X46383Y-38215D01*
X46599Y-38421D01*
X46606Y-38425D01*
X46610Y-38431D01*
X46638Y-38446D01*
X46668Y-38465D01*
X46675Y-38466D01*
X46681Y-38469D01*
X47418Y-38699D01*
G54D10*
G36*
X49359Y-41928D02*
X45292Y-41928D01*
X45315Y-41905D01*
X45340Y-41844D01*
X45340Y-41777D01*
X45340Y-41593D01*
X45384Y-41564D01*
X45476Y-41472D01*
X45487Y-41456D01*
X45500Y-41443D01*
X45647Y-41231D01*
X45827Y-41051D01*
X45938Y-40950D01*
X45938Y-41076D01*
X45990Y-41203D01*
X46087Y-41300D01*
X46214Y-41353D01*
X46351Y-41353D01*
X46478Y-41300D01*
X46576Y-41203D01*
X46611Y-41118D01*
X47890Y-40324D01*
X47890Y-40359D01*
X47943Y-40486D01*
X48001Y-40545D01*
X47942Y-40520D01*
X47805Y-40520D01*
X47678Y-40573D01*
X47581Y-40670D01*
X47528Y-40797D01*
X47528Y-40934D01*
X47581Y-41061D01*
X47678Y-41158D01*
X47805Y-41211D01*
X47942Y-41211D01*
X47983Y-41194D01*
X48074Y-41257D01*
X48085Y-41261D01*
X48096Y-41270D01*
X49359Y-41928D01*
X49359Y-41928D01*
G37*
G54D23*
X49359Y-41928D02*
X45292Y-41928D01*
X45315Y-41905D01*
X45340Y-41844D01*
X45340Y-41777D01*
X45340Y-41593D01*
X45384Y-41564D01*
X45476Y-41472D01*
X45487Y-41456D01*
X45500Y-41443D01*
X45647Y-41231D01*
X45827Y-41051D01*
X45938Y-40950D01*
X45938Y-41076D01*
X45990Y-41203D01*
X46087Y-41300D01*
X46214Y-41353D01*
X46351Y-41353D01*
X46478Y-41300D01*
X46576Y-41203D01*
X46611Y-41118D01*
X47890Y-40324D01*
X47890Y-40359D01*
X47943Y-40486D01*
X48001Y-40545D01*
X47942Y-40520D01*
X47805Y-40520D01*
X47678Y-40573D01*
X47581Y-40670D01*
X47528Y-40797D01*
X47528Y-40934D01*
X47581Y-41061D01*
X47678Y-41158D01*
X47805Y-41211D01*
X47942Y-41211D01*
X47983Y-41194D01*
X48074Y-41257D01*
X48085Y-41261D01*
X48096Y-41270D01*
X49359Y-41928D01*
G54D10*
G36*
X49630Y-41056D02*
X49629Y-41057D01*
X48596Y-40253D01*
X48581Y-40245D01*
X48581Y-40235D01*
X48653Y-40258D01*
X48694Y-40262D01*
X48734Y-40270D01*
X49060Y-40270D01*
X49065Y-40269D01*
X49070Y-40270D01*
X49116Y-40259D01*
X49162Y-40250D01*
X49165Y-40248D01*
X49307Y-40391D01*
X49630Y-41056D01*
X49630Y-41056D01*
G37*
G54D23*
X49630Y-41056D02*
X49629Y-41057D01*
X48596Y-40253D01*
X48581Y-40245D01*
X48581Y-40235D01*
X48653Y-40258D01*
X48694Y-40262D01*
X48734Y-40270D01*
X49060Y-40270D01*
X49065Y-40269D01*
X49070Y-40270D01*
X49116Y-40259D01*
X49162Y-40250D01*
X49165Y-40248D01*
X49307Y-40391D01*
X49630Y-41056D01*
G54D10*
G36*
X53018Y-41928D02*
X52682Y-41928D01*
X52704Y-41905D01*
X52730Y-41844D01*
X52730Y-41777D01*
X52730Y-41586D01*
X52688Y-41544D01*
X52296Y-41544D01*
X52296Y-41552D01*
X52278Y-41552D01*
X52278Y-41544D01*
X51886Y-41544D01*
X51844Y-41586D01*
X51844Y-41777D01*
X51844Y-41844D01*
X51869Y-41905D01*
X51892Y-41928D01*
X50549Y-41928D01*
X51316Y-41454D01*
X51844Y-41338D01*
X51844Y-41484D01*
X51886Y-41526D01*
X52278Y-41526D01*
X52278Y-41518D01*
X52296Y-41518D01*
X52296Y-41526D01*
X52688Y-41526D01*
X52730Y-41484D01*
X52730Y-41418D01*
X52819Y-41476D01*
X52819Y-41628D01*
X52890Y-41800D01*
X53018Y-41928D01*
X53018Y-41928D01*
G37*
G54D23*
X53018Y-41928D02*
X52682Y-41928D01*
X52704Y-41905D01*
X52730Y-41844D01*
X52730Y-41777D01*
X52730Y-41586D01*
X52688Y-41544D01*
X52296Y-41544D01*
X52296Y-41552D01*
X52278Y-41552D01*
X52278Y-41544D01*
X51886Y-41544D01*
X51844Y-41586D01*
X51844Y-41777D01*
X51844Y-41844D01*
X51869Y-41905D01*
X51892Y-41928D01*
X50549Y-41928D01*
X51316Y-41454D01*
X51844Y-41338D01*
X51844Y-41484D01*
X51886Y-41526D01*
X52278Y-41526D01*
X52278Y-41518D01*
X52296Y-41518D01*
X52296Y-41526D01*
X52688Y-41526D01*
X52730Y-41484D01*
X52730Y-41418D01*
X52819Y-41476D01*
X52819Y-41628D01*
X52890Y-41800D01*
X53018Y-41928D01*
G54D10*
G36*
X59644Y-41230D02*
X59605Y-41191D01*
X59605Y-40287D01*
X59094Y-39776D01*
X59081Y-39789D01*
X59081Y-39763D01*
X58570Y-39253D01*
X58463Y-39316D01*
X58340Y-39592D01*
X58332Y-39893D01*
X58439Y-40175D01*
X58463Y-40211D01*
X58570Y-40274D01*
X59081Y-39763D01*
X59081Y-39789D01*
X58583Y-40287D01*
X58647Y-40394D01*
X58922Y-40517D01*
X59224Y-40526D01*
X59506Y-40418D01*
X59541Y-40394D01*
X59605Y-40287D01*
X59605Y-41191D01*
X59552Y-41138D01*
X59380Y-41067D01*
X59194Y-41067D01*
X59022Y-41138D01*
X58890Y-41269D01*
X58819Y-41441D01*
X58819Y-41628D01*
X58890Y-41800D01*
X59018Y-41928D01*
X58556Y-41928D01*
X58684Y-41800D01*
X58755Y-41628D01*
X58755Y-41442D01*
X58684Y-41270D01*
X58552Y-41138D01*
X58380Y-41067D01*
X58194Y-41067D01*
X58022Y-41138D01*
X57890Y-41269D01*
X57819Y-41441D01*
X57819Y-41628D01*
X57890Y-41800D01*
X58018Y-41928D01*
X57556Y-41928D01*
X57684Y-41800D01*
X57755Y-41628D01*
X57755Y-41442D01*
X57684Y-41270D01*
X57552Y-41138D01*
X57380Y-41067D01*
X57194Y-41067D01*
X57022Y-41138D01*
X56890Y-41269D01*
X56819Y-41441D01*
X56819Y-41628D01*
X56890Y-41800D01*
X57018Y-41928D01*
X56786Y-41928D01*
X56786Y-39633D01*
X56678Y-39351D01*
X56654Y-39316D01*
X56547Y-39253D01*
X56534Y-39265D01*
X56534Y-39240D01*
X56470Y-39132D01*
X56195Y-39009D01*
X55893Y-39001D01*
X55611Y-39109D01*
X55576Y-39132D01*
X55512Y-39240D01*
X56023Y-39750D01*
X56534Y-39240D01*
X56534Y-39265D01*
X56036Y-39763D01*
X56547Y-40274D01*
X56654Y-40211D01*
X56777Y-39935D01*
X56786Y-39633D01*
X56786Y-41928D01*
X56556Y-41928D01*
X56684Y-41800D01*
X56755Y-41628D01*
X56755Y-41442D01*
X56684Y-41270D01*
X56552Y-41138D01*
X56534Y-41131D01*
X56534Y-40287D01*
X56023Y-39776D01*
X56010Y-39789D01*
X56010Y-39763D01*
X55500Y-39253D01*
X55392Y-39316D01*
X55269Y-39592D01*
X55261Y-39893D01*
X55368Y-40175D01*
X55392Y-40211D01*
X55500Y-40274D01*
X56010Y-39763D01*
X56010Y-39789D01*
X55512Y-40287D01*
X55576Y-40394D01*
X55851Y-40517D01*
X56153Y-40526D01*
X56435Y-40418D01*
X56470Y-40394D01*
X56534Y-40287D01*
X56534Y-41131D01*
X56380Y-41067D01*
X56194Y-41067D01*
X56022Y-41138D01*
X55890Y-41269D01*
X55819Y-41441D01*
X55819Y-41628D01*
X55890Y-41800D01*
X56018Y-41928D01*
X55556Y-41928D01*
X55684Y-41800D01*
X55755Y-41628D01*
X55755Y-41442D01*
X55684Y-41270D01*
X55552Y-41138D01*
X55380Y-41067D01*
X55194Y-41067D01*
X55022Y-41138D01*
X55016Y-41144D01*
X54937Y-41099D01*
X54937Y-39636D01*
X54865Y-39451D01*
X54853Y-39433D01*
X54772Y-39401D01*
X54759Y-39414D01*
X54759Y-39388D01*
X54728Y-39308D01*
X54546Y-39228D01*
X54348Y-39224D01*
X54163Y-39296D01*
X54145Y-39308D01*
X54114Y-39388D01*
X54437Y-39711D01*
X54759Y-39388D01*
X54759Y-39414D01*
X54449Y-39724D01*
X54772Y-40047D01*
X54853Y-40015D01*
X54932Y-39834D01*
X54937Y-39636D01*
X54937Y-41099D01*
X54759Y-40999D01*
X54759Y-40060D01*
X54437Y-39737D01*
X54424Y-39750D01*
X54424Y-39724D01*
X54101Y-39401D01*
X54020Y-39433D01*
X53941Y-39614D01*
X53936Y-39812D01*
X54008Y-39997D01*
X54020Y-40015D01*
X54101Y-40047D01*
X54424Y-39724D01*
X54424Y-39750D01*
X54114Y-40060D01*
X54145Y-40140D01*
X54327Y-40220D01*
X54525Y-40224D01*
X54710Y-40152D01*
X54728Y-40140D01*
X54759Y-40060D01*
X54759Y-40999D01*
X54578Y-40897D01*
X54535Y-40882D01*
X54520Y-40876D01*
X54506Y-40873D01*
X54501Y-40871D01*
X54500Y-40872D01*
X53935Y-40748D01*
X53935Y-40021D01*
X53935Y-39361D01*
X53909Y-39299D01*
X53862Y-39251D01*
X53800Y-39226D01*
X53733Y-39226D01*
X53073Y-39226D01*
X53011Y-39251D01*
X52964Y-39299D01*
X52938Y-39360D01*
X52938Y-39427D01*
X52938Y-40087D01*
X52964Y-40149D01*
X53011Y-40196D01*
X53073Y-40222D01*
X53140Y-40222D01*
X53800Y-40222D01*
X53862Y-40197D01*
X53909Y-40149D01*
X53935Y-40087D01*
X53935Y-40021D01*
X53935Y-40748D01*
X52823Y-40506D01*
X52800Y-40506D01*
X52778Y-40501D01*
X52228Y-40501D01*
X51795Y-40501D01*
X51771Y-40506D01*
X51748Y-40507D01*
X51075Y-40663D01*
X51059Y-40671D01*
X51042Y-40674D01*
X50957Y-40709D01*
X50941Y-40720D01*
X50928Y-40725D01*
X50313Y-41104D01*
X50313Y-41073D01*
X50261Y-40946D01*
X50164Y-40849D01*
X50111Y-40827D01*
X49767Y-40118D01*
X49738Y-40079D01*
X49716Y-40046D01*
X49538Y-39868D01*
X49547Y-39827D01*
X49557Y-39784D01*
X49557Y-39777D01*
X49557Y-39777D01*
X49557Y-39777D01*
X49560Y-39719D01*
X49910Y-38558D01*
X49915Y-38556D01*
X50013Y-38459D01*
X50065Y-38332D01*
X50065Y-38195D01*
X50013Y-38068D01*
X49916Y-37971D01*
X49789Y-37918D01*
X49652Y-37918D01*
X49525Y-37970D01*
X49427Y-38067D01*
X49375Y-38194D01*
X49375Y-38332D01*
X49402Y-38398D01*
X49040Y-39598D01*
X49036Y-39632D01*
X49028Y-39664D01*
X49027Y-39713D01*
X49020Y-39729D01*
X49002Y-39737D01*
X48775Y-39737D01*
X48479Y-39643D01*
X48439Y-39639D01*
X48399Y-39631D01*
X48073Y-39631D01*
X48049Y-39635D01*
X48030Y-39635D01*
X48004Y-39644D01*
X47971Y-39651D01*
X47951Y-39664D01*
X47932Y-39671D01*
X46334Y-40662D01*
X46255Y-40662D01*
X46690Y-40266D01*
X46690Y-40266D01*
X46828Y-40266D01*
X46955Y-40214D01*
X47052Y-40117D01*
X47105Y-39990D01*
X47105Y-39852D01*
X47077Y-39786D01*
X47206Y-39786D01*
X47333Y-39733D01*
X47430Y-39636D01*
X47483Y-39509D01*
X47483Y-39372D01*
X47430Y-39245D01*
X47403Y-39218D01*
X47450Y-39206D01*
X47473Y-39229D01*
X47600Y-39282D01*
X47737Y-39282D01*
X47864Y-39229D01*
X47961Y-39132D01*
X48014Y-39005D01*
X48014Y-38906D01*
X48305Y-39020D01*
X48348Y-39124D01*
X48445Y-39221D01*
X48572Y-39274D01*
X48710Y-39274D01*
X48837Y-39222D01*
X48934Y-39124D01*
X48986Y-38998D01*
X48987Y-38860D01*
X48934Y-38733D01*
X48837Y-38636D01*
X48710Y-38583D01*
X48573Y-38583D01*
X48454Y-38632D01*
X47883Y-38409D01*
X47873Y-38407D01*
X47869Y-38405D01*
X46851Y-38087D01*
X46668Y-37913D01*
X46668Y-37801D01*
X46615Y-37674D01*
X46540Y-37599D01*
X59644Y-37599D01*
X59644Y-39268D01*
X59618Y-39253D01*
X59605Y-39265D01*
X59605Y-39240D01*
X59541Y-39132D01*
X59266Y-39009D01*
X58964Y-39001D01*
X58682Y-39109D01*
X58647Y-39132D01*
X58583Y-39240D01*
X59094Y-39750D01*
X59605Y-39240D01*
X59605Y-39265D01*
X59107Y-39763D01*
X59618Y-40274D01*
X59644Y-40258D01*
X59644Y-41230D01*
X59644Y-41230D01*
G37*
G54D23*
X59644Y-41230D02*
X59605Y-41191D01*
X59605Y-40287D01*
X59094Y-39776D01*
X59081Y-39789D01*
X59081Y-39763D01*
X58570Y-39253D01*
X58463Y-39316D01*
X58340Y-39592D01*
X58332Y-39893D01*
X58439Y-40175D01*
X58463Y-40211D01*
X58570Y-40274D01*
X59081Y-39763D01*
X59081Y-39789D01*
X58583Y-40287D01*
X58647Y-40394D01*
X58922Y-40517D01*
X59224Y-40526D01*
X59506Y-40418D01*
X59541Y-40394D01*
X59605Y-40287D01*
X59605Y-41191D01*
X59552Y-41138D01*
X59380Y-41067D01*
X59194Y-41067D01*
X59022Y-41138D01*
X58890Y-41269D01*
X58819Y-41441D01*
X58819Y-41628D01*
X58890Y-41800D01*
X59018Y-41928D01*
X58556Y-41928D01*
X58684Y-41800D01*
X58755Y-41628D01*
X58755Y-41442D01*
X58684Y-41270D01*
X58552Y-41138D01*
X58380Y-41067D01*
X58194Y-41067D01*
X58022Y-41138D01*
X57890Y-41269D01*
X57819Y-41441D01*
X57819Y-41628D01*
X57890Y-41800D01*
X58018Y-41928D01*
X57556Y-41928D01*
X57684Y-41800D01*
X57755Y-41628D01*
X57755Y-41442D01*
X57684Y-41270D01*
X57552Y-41138D01*
X57380Y-41067D01*
X57194Y-41067D01*
X57022Y-41138D01*
X56890Y-41269D01*
X56819Y-41441D01*
X56819Y-41628D01*
X56890Y-41800D01*
X57018Y-41928D01*
X56786Y-41928D01*
X56786Y-39633D01*
X56678Y-39351D01*
X56654Y-39316D01*
X56547Y-39253D01*
X56534Y-39265D01*
X56534Y-39240D01*
X56470Y-39132D01*
X56195Y-39009D01*
X55893Y-39001D01*
X55611Y-39109D01*
X55576Y-39132D01*
X55512Y-39240D01*
X56023Y-39750D01*
X56534Y-39240D01*
X56534Y-39265D01*
X56036Y-39763D01*
X56547Y-40274D01*
X56654Y-40211D01*
X56777Y-39935D01*
X56786Y-39633D01*
X56786Y-41928D01*
X56556Y-41928D01*
X56684Y-41800D01*
X56755Y-41628D01*
X56755Y-41442D01*
X56684Y-41270D01*
X56552Y-41138D01*
X56534Y-41131D01*
X56534Y-40287D01*
X56023Y-39776D01*
X56010Y-39789D01*
X56010Y-39763D01*
X55500Y-39253D01*
X55392Y-39316D01*
X55269Y-39592D01*
X55261Y-39893D01*
X55368Y-40175D01*
X55392Y-40211D01*
X55500Y-40274D01*
X56010Y-39763D01*
X56010Y-39789D01*
X55512Y-40287D01*
X55576Y-40394D01*
X55851Y-40517D01*
X56153Y-40526D01*
X56435Y-40418D01*
X56470Y-40394D01*
X56534Y-40287D01*
X56534Y-41131D01*
X56380Y-41067D01*
X56194Y-41067D01*
X56022Y-41138D01*
X55890Y-41269D01*
X55819Y-41441D01*
X55819Y-41628D01*
X55890Y-41800D01*
X56018Y-41928D01*
X55556Y-41928D01*
X55684Y-41800D01*
X55755Y-41628D01*
X55755Y-41442D01*
X55684Y-41270D01*
X55552Y-41138D01*
X55380Y-41067D01*
X55194Y-41067D01*
X55022Y-41138D01*
X55016Y-41144D01*
X54937Y-41099D01*
X54937Y-39636D01*
X54865Y-39451D01*
X54853Y-39433D01*
X54772Y-39401D01*
X54759Y-39414D01*
X54759Y-39388D01*
X54728Y-39308D01*
X54546Y-39228D01*
X54348Y-39224D01*
X54163Y-39296D01*
X54145Y-39308D01*
X54114Y-39388D01*
X54437Y-39711D01*
X54759Y-39388D01*
X54759Y-39414D01*
X54449Y-39724D01*
X54772Y-40047D01*
X54853Y-40015D01*
X54932Y-39834D01*
X54937Y-39636D01*
X54937Y-41099D01*
X54759Y-40999D01*
X54759Y-40060D01*
X54437Y-39737D01*
X54424Y-39750D01*
X54424Y-39724D01*
X54101Y-39401D01*
X54020Y-39433D01*
X53941Y-39614D01*
X53936Y-39812D01*
X54008Y-39997D01*
X54020Y-40015D01*
X54101Y-40047D01*
X54424Y-39724D01*
X54424Y-39750D01*
X54114Y-40060D01*
X54145Y-40140D01*
X54327Y-40220D01*
X54525Y-40224D01*
X54710Y-40152D01*
X54728Y-40140D01*
X54759Y-40060D01*
X54759Y-40999D01*
X54578Y-40897D01*
X54535Y-40882D01*
X54520Y-40876D01*
X54506Y-40873D01*
X54501Y-40871D01*
X54500Y-40872D01*
X53935Y-40748D01*
X53935Y-40021D01*
X53935Y-39361D01*
X53909Y-39299D01*
X53862Y-39251D01*
X53800Y-39226D01*
X53733Y-39226D01*
X53073Y-39226D01*
X53011Y-39251D01*
X52964Y-39299D01*
X52938Y-39360D01*
X52938Y-39427D01*
X52938Y-40087D01*
X52964Y-40149D01*
X53011Y-40196D01*
X53073Y-40222D01*
X53140Y-40222D01*
X53800Y-40222D01*
X53862Y-40197D01*
X53909Y-40149D01*
X53935Y-40087D01*
X53935Y-40021D01*
X53935Y-40748D01*
X52823Y-40506D01*
X52800Y-40506D01*
X52778Y-40501D01*
X52228Y-40501D01*
X51795Y-40501D01*
X51771Y-40506D01*
X51748Y-40507D01*
X51075Y-40663D01*
X51059Y-40671D01*
X51042Y-40674D01*
X50957Y-40709D01*
X50941Y-40720D01*
X50928Y-40725D01*
X50313Y-41104D01*
X50313Y-41073D01*
X50261Y-40946D01*
X50164Y-40849D01*
X50111Y-40827D01*
X49767Y-40118D01*
X49738Y-40079D01*
X49716Y-40046D01*
X49538Y-39868D01*
X49547Y-39827D01*
X49557Y-39784D01*
X49557Y-39777D01*
X49557Y-39777D01*
X49557Y-39777D01*
X49560Y-39719D01*
X49910Y-38558D01*
X49915Y-38556D01*
X50013Y-38459D01*
X50065Y-38332D01*
X50065Y-38195D01*
X50013Y-38068D01*
X49916Y-37971D01*
X49789Y-37918D01*
X49652Y-37918D01*
X49525Y-37970D01*
X49427Y-38067D01*
X49375Y-38194D01*
X49375Y-38332D01*
X49402Y-38398D01*
X49040Y-39598D01*
X49036Y-39632D01*
X49028Y-39664D01*
X49027Y-39713D01*
X49020Y-39729D01*
X49002Y-39737D01*
X48775Y-39737D01*
X48479Y-39643D01*
X48439Y-39639D01*
X48399Y-39631D01*
X48073Y-39631D01*
X48049Y-39635D01*
X48030Y-39635D01*
X48004Y-39644D01*
X47971Y-39651D01*
X47951Y-39664D01*
X47932Y-39671D01*
X46334Y-40662D01*
X46255Y-40662D01*
X46690Y-40266D01*
X46690Y-40266D01*
X46828Y-40266D01*
X46955Y-40214D01*
X47052Y-40117D01*
X47105Y-39990D01*
X47105Y-39852D01*
X47077Y-39786D01*
X47206Y-39786D01*
X47333Y-39733D01*
X47430Y-39636D01*
X47483Y-39509D01*
X47483Y-39372D01*
X47430Y-39245D01*
X47403Y-39218D01*
X47450Y-39206D01*
X47473Y-39229D01*
X47600Y-39282D01*
X47737Y-39282D01*
X47864Y-39229D01*
X47961Y-39132D01*
X48014Y-39005D01*
X48014Y-38906D01*
X48305Y-39020D01*
X48348Y-39124D01*
X48445Y-39221D01*
X48572Y-39274D01*
X48710Y-39274D01*
X48837Y-39222D01*
X48934Y-39124D01*
X48986Y-38998D01*
X48987Y-38860D01*
X48934Y-38733D01*
X48837Y-38636D01*
X48710Y-38583D01*
X48573Y-38583D01*
X48454Y-38632D01*
X47883Y-38409D01*
X47873Y-38407D01*
X47869Y-38405D01*
X46851Y-38087D01*
X46668Y-37913D01*
X46668Y-37801D01*
X46615Y-37674D01*
X46540Y-37599D01*
X59644Y-37599D01*
X59644Y-39268D01*
X59618Y-39253D01*
X59605Y-39265D01*
X59605Y-39240D01*
X59541Y-39132D01*
X59266Y-39009D01*
X58964Y-39001D01*
X58682Y-39109D01*
X58647Y-39132D01*
X58583Y-39240D01*
X59094Y-39750D01*
X59605Y-39240D01*
X59605Y-39265D01*
X59107Y-39763D01*
X59618Y-40274D01*
X59644Y-40258D01*
X59644Y-41230D01*
M02*
