M48
;DRILL file {Pcbnew (2013-03-19 BZR 4004)-stable} date 24/05/2013 23:56:02
;FORMAT={-:-/ absolute / metric / decimal}
FMAT,2
METRIC,TZ
T1C0.400
T2C0.800
T3C0.813
T4C0.899
T5C1.501
%
G90
G05
M71
T1
X97.41Y-103.27
X99.44Y-103.51
X101.85Y-105.75
X102.06Y-103.04
X104.5Y-101.41
X106.41Y-98.45
X108.91Y-102.99
X109.85Y-98.65
X111.85Y-98.62
X112.3Y-101.63
X115.96Y-98.47
X116.1Y-101.24
X116.39Y-104.74
X117.17Y-98.22
X117.56Y-104.16
X117.66Y-96.19
X118.77Y-101.4
X119.08Y-96.36
X119.73Y-100.18
X121.08Y-98.9
X121.6Y-103.8
X122.29Y-106.16
X122.52Y-102.34
X122.61Y-97.14
X122.76Y-103.51
X123.09Y-100.14
X123.55Y-98.88
X124.2Y-100.61
X124.8Y-102.61
X126.21Y-101.19
X126.29Y-97.19
X126.92Y-104.5
X128.9Y-95.81
X129.28Y-99.86
X130.49Y-105.65
X137.1Y-95.76
X145.38Y-96.655
X146.01Y-103.46
X148.598Y-97.412
T2
X132.81Y-105.5
X135.35Y-105.5
X137.89Y-105.5
X140.43Y-105.5
X142.97Y-105.5
X145.51Y-105.5
X148.05Y-105.5
X150.59Y-105.5
T3
X96.46Y-96.5
X99.Y-96.5
X101.54Y-96.5
X108.96Y-105.5
X111.5Y-105.5
X114.04Y-105.5
X135.73Y-100.9
X138.27Y-100.9
T4
X104.39Y-96.4
X106.93Y-96.4
X109.47Y-96.4
X112.01Y-96.4
T5
X96.8Y-100.9
X142.3Y-101.
X150.1Y-101.
T0
M30
