G04 (created by PCBNEW (2013-03-19 BZR 4004)-stable) date 24/05/2013 23:59:16*
%MOIN*%
G04 Gerber Fmt 3.4, Leading zero omitted, Abs format*
%FSLAX34Y34*%
G01*
G70*
G90*
G04 APERTURE LIST*
%ADD10C,0.006*%
%ADD11C,0.00787402*%
%ADD12C,0.005*%
%ADD13C,0.01*%
%ADD14C,0.00590551*%
%ADD15C,0.0059*%
%ADD16C,0.00625*%
%ADD17C,0.0063*%
G04 APERTURE END LIST*
G54D10*
G54D11*
X48149Y-41692D02*
X48070Y-41811D01*
X48228Y-42047D02*
X48070Y-42047D01*
X48149Y-41692D02*
X48149Y-42047D01*
G54D12*
X40541Y-40035D02*
X40541Y-39335D01*
X40541Y-39335D02*
X41741Y-39335D01*
X41741Y-39335D02*
X41741Y-40035D01*
X41741Y-40035D02*
X40541Y-40035D01*
X38053Y-37742D02*
X38953Y-37742D01*
X38953Y-37742D02*
X38953Y-38242D01*
X38953Y-38242D02*
X38053Y-38242D01*
X38053Y-38242D02*
X38053Y-37742D01*
G54D13*
X52787Y-42035D02*
X52787Y-41035D01*
X51787Y-42035D02*
X59787Y-42035D01*
X59787Y-42035D02*
X59787Y-41035D01*
X59787Y-41035D02*
X51787Y-41035D01*
X51787Y-41035D02*
X51787Y-42035D01*
X41598Y-37452D02*
X41598Y-38452D01*
X40598Y-37452D02*
X44598Y-37452D01*
X44598Y-37452D02*
X44598Y-38452D01*
X44598Y-38452D02*
X40598Y-38452D01*
X40598Y-38452D02*
X40598Y-37452D01*
X45397Y-42035D02*
X42397Y-42035D01*
X42397Y-42035D02*
X42397Y-41035D01*
X42397Y-41035D02*
X45397Y-41035D01*
X45397Y-41035D02*
X45397Y-42035D01*
X37476Y-37492D02*
X40476Y-37492D01*
X40476Y-37492D02*
X40476Y-38492D01*
X40476Y-38492D02*
X37476Y-38492D01*
X37476Y-38492D02*
X37476Y-37492D01*
G54D14*
X51023Y-39685D02*
X51023Y-39370D01*
X51023Y-39370D02*
X52204Y-39370D01*
X52204Y-39370D02*
X52204Y-40000D01*
X52204Y-40000D02*
X51023Y-40000D01*
X51023Y-40000D02*
X51023Y-39685D01*
X44960Y-37795D02*
X44960Y-37480D01*
X44960Y-37480D02*
X46141Y-37480D01*
X46141Y-37480D02*
X46141Y-38110D01*
X46141Y-38110D02*
X44960Y-38110D01*
X44960Y-38110D02*
X44960Y-37795D01*
X51023Y-38937D02*
X51023Y-38622D01*
X51023Y-38622D02*
X52204Y-38622D01*
X52204Y-38622D02*
X52204Y-39251D01*
X52204Y-39251D02*
X51023Y-39251D01*
X51023Y-39251D02*
X51023Y-38937D01*
X51023Y-40433D02*
X51023Y-40118D01*
X51023Y-40118D02*
X52204Y-40118D01*
X52204Y-40118D02*
X52204Y-40748D01*
X52204Y-40748D02*
X51023Y-40748D01*
X51023Y-40748D02*
X51023Y-40433D01*
X37795Y-40866D02*
X38110Y-40866D01*
X38110Y-40866D02*
X38110Y-42047D01*
X38110Y-42047D02*
X37480Y-42047D01*
X37480Y-42047D02*
X37480Y-40866D01*
X37480Y-40866D02*
X37795Y-40866D01*
X39488Y-42047D02*
X39173Y-42047D01*
X39173Y-42047D02*
X39173Y-40866D01*
X39173Y-40866D02*
X39803Y-40866D01*
X39803Y-40866D02*
X39803Y-42047D01*
X39803Y-42047D02*
X39488Y-42047D01*
G54D12*
X48163Y-37857D02*
X50084Y-39777D01*
X50084Y-39777D02*
X48288Y-41573D01*
X48274Y-41559D02*
X48024Y-41559D01*
X48024Y-41559D02*
X46229Y-39763D01*
X46229Y-39763D02*
X48136Y-37856D01*
X48346Y-41155D02*
G75*
G03X48346Y-41155I-196J0D01*
G74*
G01*
G54D15*
X54960Y-40511D02*
X54763Y-40708D01*
X54842Y-39724D02*
G75*
G03X54842Y-39724I-866J0D01*
G74*
G01*
X54960Y-38740D02*
X54960Y-40708D01*
X54960Y-40708D02*
X52992Y-40708D01*
X52992Y-40708D02*
X52992Y-38740D01*
X52992Y-38740D02*
X54960Y-38740D01*
G54D13*
X53543Y-40315D02*
X54331Y-40315D01*
X54331Y-40315D02*
X54528Y-40118D01*
X53346Y-40118D02*
X53543Y-40315D01*
X54528Y-39330D02*
X54331Y-39133D01*
X54331Y-39133D02*
X53543Y-39133D01*
X53543Y-39133D02*
X53346Y-39330D01*
G54D14*
X42322Y-41377D02*
X42322Y-42027D01*
X42322Y-42027D02*
X40275Y-42027D01*
X40275Y-42027D02*
X40275Y-40728D01*
X40275Y-40728D02*
X42322Y-40728D01*
X42322Y-40728D02*
X42322Y-41456D01*
G54D15*
X42015Y-39574D02*
X42315Y-39574D01*
X42165Y-39874D02*
X42315Y-39874D01*
X42315Y-39874D02*
X42165Y-39574D01*
X42165Y-39574D02*
X42015Y-39874D01*
X42015Y-39874D02*
X42165Y-39874D01*
G54D12*
X42441Y-38937D02*
X42441Y-38897D01*
G54D13*
X42441Y-38897D02*
X41889Y-38897D01*
G54D12*
X41889Y-38897D02*
X41889Y-38937D01*
X42441Y-39409D02*
X42441Y-38937D01*
X41889Y-38937D02*
X41889Y-39409D01*
X42441Y-40039D02*
X42441Y-40511D01*
X42441Y-40511D02*
X41889Y-40511D01*
X41889Y-40511D02*
X41889Y-40039D01*
G54D14*
X38889Y-39615D02*
X40385Y-39615D01*
X40385Y-39615D02*
X40385Y-40402D01*
X40385Y-40402D02*
X38889Y-40402D01*
X38889Y-40402D02*
X38889Y-39615D01*
X44055Y-38976D02*
X44055Y-40472D01*
X44055Y-40472D02*
X43267Y-40472D01*
X43267Y-40472D02*
X43267Y-38976D01*
X43267Y-38976D02*
X44055Y-38976D01*
X38885Y-39095D02*
X38885Y-38780D01*
X38885Y-38780D02*
X40066Y-38780D01*
X40066Y-38780D02*
X40066Y-39410D01*
X40066Y-39410D02*
X38885Y-39410D01*
X38885Y-39410D02*
X38885Y-39095D01*
X42874Y-39133D02*
X43188Y-39133D01*
X43188Y-39133D02*
X43188Y-40314D01*
X43188Y-40314D02*
X42559Y-40314D01*
X42559Y-40314D02*
X42559Y-39133D01*
X42559Y-39133D02*
X42874Y-39133D01*
X49409Y-37795D02*
X49409Y-37480D01*
X49409Y-37480D02*
X50590Y-37480D01*
X50590Y-37480D02*
X50590Y-38110D01*
X50590Y-38110D02*
X49409Y-38110D01*
X49409Y-38110D02*
X49409Y-37795D01*
X45787Y-39291D02*
X45787Y-39606D01*
X45787Y-39606D02*
X44606Y-39606D01*
X44606Y-39606D02*
X44606Y-38976D01*
X44606Y-38976D02*
X45787Y-38976D01*
X45787Y-38976D02*
X45787Y-39291D01*
X46692Y-41732D02*
X46692Y-42047D01*
X46692Y-42047D02*
X45511Y-42047D01*
X45511Y-42047D02*
X45511Y-41417D01*
X45511Y-41417D02*
X46692Y-41417D01*
X46692Y-41417D02*
X46692Y-41732D01*
X49566Y-41732D02*
X49566Y-41417D01*
X49566Y-41417D02*
X50748Y-41417D01*
X50748Y-41417D02*
X50748Y-42047D01*
X50748Y-42047D02*
X49566Y-42047D01*
X49566Y-42047D02*
X49566Y-41732D01*
X50393Y-41102D02*
X50393Y-40787D01*
X50393Y-40787D02*
X51574Y-40787D01*
X51574Y-40787D02*
X51574Y-41417D01*
X51574Y-41417D02*
X50393Y-41417D01*
X50393Y-41417D02*
X50393Y-41102D01*
X38779Y-42047D02*
X38464Y-42047D01*
X38464Y-42047D02*
X38464Y-40866D01*
X38464Y-40866D02*
X39094Y-40866D01*
X39094Y-40866D02*
X39094Y-42047D01*
X39094Y-42047D02*
X38779Y-42047D01*
X40269Y-38875D02*
X40269Y-38638D01*
X40404Y-38875D01*
X40404Y-38638D01*
X40652Y-38852D02*
X40641Y-38863D01*
X40607Y-38875D01*
X40584Y-38875D01*
X40551Y-38863D01*
X40528Y-38841D01*
X40517Y-38818D01*
X40506Y-38773D01*
X40506Y-38740D01*
X40517Y-38695D01*
X40528Y-38672D01*
X40551Y-38650D01*
X40584Y-38638D01*
X40607Y-38638D01*
X40641Y-38650D01*
X40652Y-38661D01*
X40753Y-38875D02*
X40753Y-38638D01*
X40843Y-38638D01*
X40866Y-38650D01*
X40877Y-38661D01*
X40888Y-38683D01*
X40888Y-38717D01*
X40877Y-38740D01*
X40866Y-38751D01*
X40843Y-38762D01*
X40753Y-38762D01*
X41113Y-38875D02*
X40978Y-38875D01*
X41046Y-38875D02*
X41046Y-38638D01*
X41023Y-38672D01*
X41001Y-38695D01*
X40978Y-38706D01*
X41316Y-38717D02*
X41316Y-38875D01*
X41259Y-38627D02*
X41203Y-38796D01*
X41349Y-38796D01*
X41484Y-38638D02*
X41507Y-38638D01*
X41529Y-38650D01*
X41541Y-38661D01*
X41552Y-38683D01*
X41563Y-38728D01*
X41563Y-38785D01*
X41552Y-38830D01*
X41541Y-38852D01*
X41529Y-38863D01*
X41507Y-38875D01*
X41484Y-38875D01*
X41462Y-38863D01*
X41451Y-38852D01*
X41439Y-38830D01*
X41428Y-38785D01*
X41428Y-38728D01*
X41439Y-38683D01*
X41451Y-38661D01*
X41462Y-38650D01*
X41484Y-38638D01*
X41709Y-38638D02*
X41732Y-38638D01*
X41754Y-38650D01*
X41766Y-38661D01*
X41777Y-38683D01*
X41788Y-38728D01*
X41788Y-38785D01*
X41777Y-38830D01*
X41766Y-38852D01*
X41754Y-38863D01*
X41732Y-38875D01*
X41709Y-38875D01*
X41687Y-38863D01*
X41676Y-38852D01*
X41664Y-38830D01*
X41653Y-38785D01*
X41653Y-38728D01*
X41664Y-38683D01*
X41676Y-38661D01*
X41687Y-38650D01*
X41709Y-38638D01*
G54D16*
X58515Y-41662D02*
X58681Y-41912D01*
X58681Y-41662D02*
X58515Y-41912D01*
X58896Y-41912D02*
X58777Y-41912D01*
X58777Y-41662D01*
X59098Y-41662D02*
X58979Y-41662D01*
X58967Y-41781D01*
X58979Y-41769D01*
X59003Y-41757D01*
X59062Y-41757D01*
X59086Y-41769D01*
X59098Y-41781D01*
X59110Y-41805D01*
X59110Y-41864D01*
X59098Y-41888D01*
X59086Y-41900D01*
X59062Y-41912D01*
X59003Y-41912D01*
X58979Y-41900D01*
X58967Y-41888D01*
G54D17*
G54D16*
X44105Y-41701D02*
X44272Y-41951D01*
X44272Y-41701D02*
X44105Y-41951D01*
X44486Y-41951D02*
X44367Y-41951D01*
X44367Y-41701D01*
X44701Y-41951D02*
X44558Y-41951D01*
X44629Y-41951D02*
X44629Y-41701D01*
X44605Y-41737D01*
X44582Y-41761D01*
X44558Y-41773D01*
G54D17*
G54D14*
X50646Y-39780D02*
X50646Y-39893D01*
X50759Y-39904D01*
X50748Y-39893D01*
X50736Y-39870D01*
X50736Y-39814D01*
X50748Y-39791D01*
X50759Y-39780D01*
X50781Y-39769D01*
X50838Y-39769D01*
X50860Y-39780D01*
X50871Y-39791D01*
X50883Y-39814D01*
X50883Y-39870D01*
X50871Y-39893D01*
X50860Y-39904D01*
X50883Y-39544D02*
X50883Y-39679D01*
X50883Y-39611D02*
X50646Y-39611D01*
X50680Y-39634D01*
X50703Y-39656D01*
X50714Y-39679D01*
X50883Y-39308D02*
X50770Y-39386D01*
X50883Y-39443D02*
X50646Y-39443D01*
X50646Y-39353D01*
X50658Y-39330D01*
X50669Y-39319D01*
X50691Y-39308D01*
X50725Y-39308D01*
X50748Y-39319D01*
X50759Y-39330D01*
X50770Y-39353D01*
X50770Y-39443D01*
X45449Y-38441D02*
X45314Y-38441D01*
X45382Y-38441D02*
X45382Y-38205D01*
X45359Y-38239D01*
X45337Y-38261D01*
X45314Y-38273D01*
X45595Y-38205D02*
X45618Y-38205D01*
X45640Y-38216D01*
X45652Y-38228D01*
X45663Y-38250D01*
X45674Y-38295D01*
X45674Y-38351D01*
X45663Y-38396D01*
X45652Y-38419D01*
X45640Y-38430D01*
X45618Y-38441D01*
X45595Y-38441D01*
X45573Y-38430D01*
X45562Y-38419D01*
X45550Y-38396D01*
X45539Y-38351D01*
X45539Y-38295D01*
X45550Y-38250D01*
X45562Y-38228D01*
X45573Y-38216D01*
X45595Y-38205D01*
X45775Y-38441D02*
X45775Y-38205D01*
X45798Y-38351D02*
X45865Y-38441D01*
X45865Y-38284D02*
X45775Y-38374D01*
X51400Y-38284D02*
X51287Y-38284D01*
X51276Y-38397D01*
X51287Y-38385D01*
X51310Y-38374D01*
X51366Y-38374D01*
X51389Y-38385D01*
X51400Y-38397D01*
X51411Y-38419D01*
X51411Y-38475D01*
X51400Y-38498D01*
X51389Y-38509D01*
X51366Y-38520D01*
X51310Y-38520D01*
X51287Y-38509D01*
X51276Y-38498D01*
X51636Y-38520D02*
X51501Y-38520D01*
X51569Y-38520D02*
X51569Y-38284D01*
X51546Y-38318D01*
X51524Y-38340D01*
X51501Y-38352D01*
X51872Y-38520D02*
X51794Y-38408D01*
X51737Y-38520D02*
X51737Y-38284D01*
X51827Y-38284D01*
X51850Y-38295D01*
X51861Y-38307D01*
X51872Y-38329D01*
X51872Y-38363D01*
X51861Y-38385D01*
X51850Y-38397D01*
X51827Y-38408D01*
X51737Y-38408D01*
X50646Y-40568D02*
X50646Y-40680D01*
X50759Y-40691D01*
X50748Y-40680D01*
X50736Y-40658D01*
X50736Y-40601D01*
X50748Y-40579D01*
X50759Y-40568D01*
X50781Y-40556D01*
X50838Y-40556D01*
X50860Y-40568D01*
X50871Y-40579D01*
X50883Y-40601D01*
X50883Y-40658D01*
X50871Y-40680D01*
X50860Y-40691D01*
X50883Y-40331D02*
X50883Y-40466D01*
X50883Y-40399D02*
X50646Y-40399D01*
X50680Y-40421D01*
X50703Y-40444D01*
X50714Y-40466D01*
X50883Y-40095D02*
X50770Y-40174D01*
X50883Y-40230D02*
X50646Y-40230D01*
X50646Y-40140D01*
X50658Y-40118D01*
X50669Y-40106D01*
X50691Y-40095D01*
X50725Y-40095D01*
X50748Y-40106D01*
X50759Y-40118D01*
X50770Y-40140D01*
X50770Y-40230D01*
X37491Y-40697D02*
X37604Y-40697D01*
X37469Y-40764D02*
X37547Y-40528D01*
X37626Y-40764D01*
X37817Y-40764D02*
X37705Y-40764D01*
X37705Y-40528D01*
X37885Y-40753D02*
X37919Y-40764D01*
X37975Y-40764D01*
X37997Y-40753D01*
X38008Y-40742D01*
X38020Y-40719D01*
X38020Y-40697D01*
X38008Y-40674D01*
X37997Y-40663D01*
X37975Y-40652D01*
X37930Y-40641D01*
X37907Y-40629D01*
X37896Y-40618D01*
X37885Y-40596D01*
X37885Y-40573D01*
X37896Y-40551D01*
X37907Y-40539D01*
X37930Y-40528D01*
X37986Y-40528D01*
X38020Y-40539D01*
X40134Y-41321D02*
X40134Y-41456D01*
X40134Y-41389D02*
X39898Y-41389D01*
X39932Y-41411D01*
X39955Y-41434D01*
X39966Y-41456D01*
X39898Y-41175D02*
X39898Y-41152D01*
X39910Y-41130D01*
X39921Y-41119D01*
X39943Y-41107D01*
X39988Y-41096D01*
X40044Y-41096D01*
X40089Y-41107D01*
X40112Y-41119D01*
X40123Y-41130D01*
X40134Y-41152D01*
X40134Y-41175D01*
X40123Y-41197D01*
X40112Y-41209D01*
X40089Y-41220D01*
X40044Y-41231D01*
X39988Y-41231D01*
X39943Y-41220D01*
X39921Y-41209D01*
X39910Y-41197D01*
X39898Y-41175D01*
X40134Y-40995D02*
X39898Y-40995D01*
X40044Y-40973D02*
X40134Y-40905D01*
X39977Y-40905D02*
X40067Y-40995D01*
G54D15*
X47068Y-40209D02*
X47235Y-40042D01*
X47275Y-40082D01*
X47291Y-40114D01*
X47291Y-40145D01*
X47283Y-40169D01*
X47259Y-40209D01*
X47235Y-40233D01*
X47195Y-40257D01*
X47171Y-40265D01*
X47140Y-40265D01*
X47108Y-40249D01*
X47068Y-40209D01*
X47235Y-40376D02*
X47402Y-40209D01*
X47442Y-40249D01*
X47458Y-40281D01*
X47458Y-40312D01*
X47450Y-40336D01*
X47426Y-40376D01*
X47402Y-40400D01*
X47362Y-40424D01*
X47338Y-40431D01*
X47307Y-40431D01*
X47275Y-40416D01*
X47235Y-40376D01*
X47489Y-40630D02*
X47394Y-40535D01*
X47442Y-40582D02*
X47609Y-40416D01*
X47569Y-40424D01*
X47537Y-40424D01*
X47513Y-40416D01*
X47172Y-38985D02*
X47188Y-39016D01*
X47228Y-39056D01*
X47252Y-39064D01*
X47268Y-39064D01*
X47292Y-39056D01*
X47307Y-39040D01*
X47315Y-39016D01*
X47315Y-39000D01*
X47307Y-38977D01*
X47284Y-38937D01*
X47276Y-38913D01*
X47276Y-38897D01*
X47284Y-38873D01*
X47300Y-38857D01*
X47323Y-38849D01*
X47339Y-38849D01*
X47363Y-38857D01*
X47403Y-38897D01*
X47419Y-38929D01*
X47474Y-38969D02*
X47570Y-39064D01*
X47355Y-39183D02*
X47522Y-39016D01*
X47458Y-39286D02*
X47625Y-39120D01*
X47562Y-39294D01*
X47737Y-39231D01*
X47570Y-39398D01*
X47800Y-39294D02*
X47903Y-39398D01*
X47784Y-39406D01*
X47808Y-39430D01*
X47816Y-39453D01*
X47816Y-39469D01*
X47808Y-39493D01*
X47768Y-39533D01*
X47745Y-39541D01*
X47729Y-39541D01*
X47705Y-39533D01*
X47657Y-39485D01*
X47649Y-39461D01*
X47649Y-39445D01*
X47951Y-39477D02*
X47967Y-39477D01*
X47991Y-39485D01*
X48031Y-39525D01*
X48039Y-39549D01*
X48039Y-39565D01*
X48031Y-39588D01*
X48015Y-39604D01*
X47983Y-39620D01*
X47792Y-39620D01*
X47896Y-39724D01*
X48110Y-39763D02*
X48054Y-39708D01*
X47967Y-39795D02*
X48134Y-39628D01*
X48213Y-39708D01*
X48198Y-40026D02*
X48102Y-39930D01*
X48150Y-39978D02*
X48317Y-39811D01*
X48277Y-39819D01*
X48245Y-39819D01*
X48221Y-39811D01*
X48468Y-39962D02*
X48484Y-39978D01*
X48492Y-40002D01*
X48492Y-40018D01*
X48484Y-40041D01*
X48460Y-40081D01*
X48420Y-40121D01*
X48380Y-40145D01*
X48356Y-40153D01*
X48341Y-40153D01*
X48317Y-40145D01*
X48301Y-40129D01*
X48293Y-40105D01*
X48293Y-40089D01*
X48301Y-40065D01*
X48325Y-40026D01*
X48364Y-39986D01*
X48404Y-39962D01*
X48428Y-39954D01*
X48444Y-39954D01*
X48468Y-39962D01*
X48627Y-40121D02*
X48643Y-40137D01*
X48650Y-40161D01*
X48650Y-40176D01*
X48643Y-40200D01*
X48619Y-40240D01*
X48579Y-40280D01*
X48539Y-40304D01*
X48515Y-40312D01*
X48499Y-40312D01*
X48476Y-40304D01*
X48460Y-40288D01*
X48452Y-40264D01*
X48452Y-40248D01*
X48460Y-40224D01*
X48484Y-40184D01*
X48523Y-40145D01*
X48563Y-40121D01*
X48587Y-40113D01*
X48603Y-40113D01*
X48627Y-40121D01*
X48698Y-40494D02*
X48682Y-40494D01*
X48650Y-40478D01*
X48635Y-40463D01*
X48619Y-40431D01*
X48619Y-40399D01*
X48627Y-40375D01*
X48650Y-40335D01*
X48674Y-40312D01*
X48714Y-40288D01*
X48738Y-40280D01*
X48770Y-40280D01*
X48801Y-40296D01*
X48817Y-40312D01*
X48833Y-40343D01*
X48833Y-40359D01*
X48937Y-40542D02*
X48825Y-40653D01*
X48960Y-40439D02*
X48801Y-40518D01*
X48905Y-40622D01*
X52920Y-38402D02*
X52807Y-38402D01*
X52807Y-38166D01*
X52998Y-38278D02*
X53077Y-38278D01*
X53111Y-38402D02*
X52998Y-38402D01*
X52998Y-38166D01*
X53111Y-38166D01*
X53212Y-38402D02*
X53212Y-38166D01*
X53268Y-38166D01*
X53302Y-38177D01*
X53324Y-38200D01*
X53335Y-38222D01*
X53347Y-38267D01*
X53347Y-38301D01*
X53335Y-38346D01*
X53324Y-38368D01*
X53302Y-38391D01*
X53268Y-38402D01*
X53212Y-38402D01*
X53392Y-38425D02*
X53571Y-38425D01*
X53762Y-38402D02*
X53684Y-38290D01*
X53628Y-38402D02*
X53628Y-38166D01*
X53717Y-38166D01*
X53740Y-38177D01*
X53751Y-38189D01*
X53762Y-38211D01*
X53762Y-38245D01*
X53751Y-38267D01*
X53740Y-38278D01*
X53717Y-38290D01*
X53628Y-38290D01*
X53987Y-38177D02*
X53965Y-38166D01*
X53931Y-38166D01*
X53897Y-38177D01*
X53875Y-38200D01*
X53864Y-38222D01*
X53852Y-38267D01*
X53852Y-38301D01*
X53864Y-38346D01*
X53875Y-38368D01*
X53897Y-38391D01*
X53931Y-38402D01*
X53953Y-38402D01*
X53987Y-38391D01*
X53998Y-38380D01*
X53998Y-38301D01*
X53953Y-38301D01*
X54178Y-38278D02*
X54212Y-38290D01*
X54223Y-38301D01*
X54234Y-38323D01*
X54234Y-38357D01*
X54223Y-38380D01*
X54212Y-38391D01*
X54189Y-38402D01*
X54100Y-38402D01*
X54100Y-38166D01*
X54178Y-38166D01*
X54201Y-38177D01*
X54212Y-38189D01*
X54223Y-38211D01*
X54223Y-38234D01*
X54212Y-38256D01*
X54201Y-38267D01*
X54178Y-38278D01*
X54100Y-38278D01*
X54628Y-38166D02*
X54515Y-38166D01*
X54504Y-38278D01*
X54515Y-38267D01*
X54538Y-38256D01*
X54594Y-38256D01*
X54617Y-38267D01*
X54628Y-38278D01*
X54639Y-38301D01*
X54639Y-38357D01*
X54628Y-38380D01*
X54617Y-38391D01*
X54594Y-38402D01*
X54538Y-38402D01*
X54515Y-38391D01*
X54504Y-38380D01*
X54785Y-38166D02*
X54808Y-38166D01*
X54830Y-38177D01*
X54841Y-38189D01*
X54853Y-38211D01*
X54864Y-38256D01*
X54864Y-38312D01*
X54853Y-38357D01*
X54841Y-38380D01*
X54830Y-38391D01*
X54808Y-38402D01*
X54785Y-38402D01*
X54763Y-38391D01*
X54751Y-38380D01*
X54740Y-38357D01*
X54729Y-38312D01*
X54729Y-38256D01*
X54740Y-38211D01*
X54751Y-38189D01*
X54763Y-38177D01*
X54785Y-38166D01*
X55077Y-38166D02*
X54965Y-38166D01*
X54954Y-38278D01*
X54965Y-38267D01*
X54987Y-38256D01*
X55044Y-38256D01*
X55066Y-38267D01*
X55077Y-38278D01*
X55089Y-38301D01*
X55089Y-38357D01*
X55077Y-38380D01*
X55066Y-38391D01*
X55044Y-38402D01*
X54987Y-38402D01*
X54965Y-38391D01*
X54954Y-38380D01*
X55235Y-38166D02*
X55257Y-38166D01*
X55280Y-38177D01*
X55291Y-38189D01*
X55302Y-38211D01*
X55313Y-38256D01*
X55313Y-38312D01*
X55302Y-38357D01*
X55291Y-38380D01*
X55280Y-38391D01*
X55257Y-38402D01*
X55235Y-38402D01*
X55212Y-38391D01*
X55201Y-38380D01*
X55190Y-38357D01*
X55178Y-38312D01*
X55178Y-38256D01*
X55190Y-38211D01*
X55201Y-38189D01*
X55212Y-38177D01*
X55235Y-38166D01*
G54D14*
X40849Y-40472D02*
X40860Y-40461D01*
X40883Y-40449D01*
X40939Y-40449D01*
X40961Y-40461D01*
X40973Y-40472D01*
X40984Y-40494D01*
X40984Y-40517D01*
X40973Y-40551D01*
X40838Y-40686D01*
X40984Y-40686D01*
X41074Y-40472D02*
X41085Y-40461D01*
X41107Y-40449D01*
X41164Y-40449D01*
X41186Y-40461D01*
X41197Y-40472D01*
X41209Y-40494D01*
X41209Y-40517D01*
X41197Y-40551D01*
X41062Y-40686D01*
X41209Y-40686D01*
X41411Y-40528D02*
X41411Y-40686D01*
X41310Y-40528D02*
X41310Y-40652D01*
X41321Y-40674D01*
X41344Y-40686D01*
X41377Y-40686D01*
X41400Y-40674D01*
X41411Y-40663D01*
X41524Y-40686D02*
X41524Y-40449D01*
X41524Y-40562D02*
X41659Y-40562D01*
X41659Y-40686D02*
X41659Y-40449D01*
G54D15*
X42188Y-38672D02*
X42222Y-38683D01*
X42233Y-38695D01*
X42244Y-38717D01*
X42244Y-38751D01*
X42233Y-38773D01*
X42222Y-38785D01*
X42199Y-38796D01*
X42109Y-38796D01*
X42109Y-38560D01*
X42188Y-38560D01*
X42210Y-38571D01*
X42222Y-38582D01*
X42233Y-38605D01*
X42233Y-38627D01*
X42222Y-38650D01*
X42210Y-38661D01*
X42188Y-38672D01*
X42109Y-38672D01*
X42334Y-38728D02*
X42446Y-38728D01*
X42312Y-38796D02*
X42390Y-38560D01*
X42469Y-38796D01*
X42514Y-38560D02*
X42649Y-38560D01*
X42581Y-38796D02*
X42581Y-38560D01*
X42840Y-38560D02*
X42727Y-38560D01*
X42716Y-38672D01*
X42727Y-38661D01*
X42750Y-38650D01*
X42806Y-38650D01*
X42829Y-38661D01*
X42840Y-38672D01*
X42851Y-38695D01*
X42851Y-38751D01*
X42840Y-38773D01*
X42829Y-38785D01*
X42806Y-38796D01*
X42750Y-38796D01*
X42727Y-38785D01*
X42716Y-38773D01*
X43053Y-38638D02*
X43053Y-38796D01*
X42997Y-38549D02*
X42941Y-38717D01*
X43087Y-38717D01*
X43154Y-38560D02*
X43211Y-38796D01*
X43256Y-38627D01*
X43301Y-38796D01*
X43357Y-38560D01*
X43435Y-38785D02*
X43469Y-38796D01*
X43525Y-38796D01*
X43548Y-38785D01*
X43559Y-38773D01*
X43570Y-38751D01*
X43570Y-38728D01*
X43559Y-38706D01*
X43548Y-38695D01*
X43525Y-38683D01*
X43480Y-38672D01*
X43458Y-38661D01*
X43447Y-38650D01*
X43435Y-38627D01*
X43435Y-38605D01*
X43447Y-38582D01*
X43458Y-38571D01*
X43480Y-38560D01*
X43537Y-38560D01*
X43570Y-38571D01*
G54D14*
X39493Y-40686D02*
X39358Y-40686D01*
X39426Y-40686D02*
X39426Y-40449D01*
X39403Y-40483D01*
X39381Y-40506D01*
X39358Y-40517D01*
X39640Y-40449D02*
X39662Y-40449D01*
X39685Y-40461D01*
X39696Y-40472D01*
X39707Y-40494D01*
X39718Y-40539D01*
X39718Y-40596D01*
X39707Y-40641D01*
X39696Y-40663D01*
X39685Y-40674D01*
X39662Y-40686D01*
X39640Y-40686D01*
X39617Y-40674D01*
X39606Y-40663D01*
X39595Y-40641D01*
X39583Y-40596D01*
X39583Y-40539D01*
X39595Y-40494D01*
X39606Y-40472D01*
X39617Y-40461D01*
X39640Y-40449D01*
X39921Y-40528D02*
X39921Y-40686D01*
X39820Y-40528D02*
X39820Y-40652D01*
X39831Y-40674D01*
X39853Y-40686D01*
X39887Y-40686D01*
X39910Y-40674D01*
X39921Y-40663D01*
X44347Y-39600D02*
X44347Y-39735D01*
X44347Y-39668D02*
X44111Y-39668D01*
X44145Y-39690D01*
X44167Y-39713D01*
X44178Y-39735D01*
X44111Y-39454D02*
X44111Y-39431D01*
X44122Y-39409D01*
X44133Y-39398D01*
X44156Y-39386D01*
X44201Y-39375D01*
X44257Y-39375D01*
X44302Y-39386D01*
X44325Y-39398D01*
X44336Y-39409D01*
X44347Y-39431D01*
X44347Y-39454D01*
X44336Y-39476D01*
X44325Y-39488D01*
X44302Y-39499D01*
X44257Y-39510D01*
X44201Y-39510D01*
X44156Y-39499D01*
X44133Y-39488D01*
X44122Y-39476D01*
X44111Y-39454D01*
X44190Y-39173D02*
X44347Y-39173D01*
X44190Y-39274D02*
X44313Y-39274D01*
X44336Y-39263D01*
X44347Y-39240D01*
X44347Y-39206D01*
X44336Y-39184D01*
X44325Y-39173D01*
X38098Y-38678D02*
X38121Y-38678D01*
X38143Y-38689D01*
X38155Y-38700D01*
X38166Y-38723D01*
X38177Y-38768D01*
X38177Y-38824D01*
X38166Y-38869D01*
X38155Y-38892D01*
X38143Y-38903D01*
X38121Y-38914D01*
X38098Y-38914D01*
X38076Y-38903D01*
X38065Y-38892D01*
X38053Y-38869D01*
X38042Y-38824D01*
X38042Y-38768D01*
X38053Y-38723D01*
X38065Y-38700D01*
X38076Y-38689D01*
X38098Y-38678D01*
X38278Y-38892D02*
X38290Y-38903D01*
X38278Y-38914D01*
X38267Y-38903D01*
X38278Y-38892D01*
X38278Y-38914D01*
X38515Y-38914D02*
X38380Y-38914D01*
X38447Y-38914D02*
X38447Y-38678D01*
X38425Y-38712D01*
X38402Y-38734D01*
X38380Y-38745D01*
X38717Y-38757D02*
X38717Y-38914D01*
X38616Y-38757D02*
X38616Y-38880D01*
X38627Y-38903D01*
X38650Y-38914D01*
X38683Y-38914D01*
X38706Y-38903D01*
X38717Y-38892D01*
X42705Y-40686D02*
X42727Y-40686D01*
X42750Y-40697D01*
X42761Y-40708D01*
X42772Y-40731D01*
X42784Y-40776D01*
X42784Y-40832D01*
X42772Y-40877D01*
X42761Y-40899D01*
X42750Y-40911D01*
X42727Y-40922D01*
X42705Y-40922D01*
X42682Y-40911D01*
X42671Y-40899D01*
X42660Y-40877D01*
X42649Y-40832D01*
X42649Y-40776D01*
X42660Y-40731D01*
X42671Y-40708D01*
X42682Y-40697D01*
X42705Y-40686D01*
X42885Y-40899D02*
X42896Y-40911D01*
X42885Y-40922D01*
X42874Y-40911D01*
X42885Y-40899D01*
X42885Y-40922D01*
X43121Y-40922D02*
X42986Y-40922D01*
X43053Y-40922D02*
X43053Y-40686D01*
X43031Y-40719D01*
X43008Y-40742D01*
X42986Y-40753D01*
X43323Y-40764D02*
X43323Y-40922D01*
X43222Y-40764D02*
X43222Y-40888D01*
X43233Y-40911D01*
X43256Y-40922D01*
X43290Y-40922D01*
X43312Y-40911D01*
X43323Y-40899D01*
X50106Y-38166D02*
X50129Y-38166D01*
X50151Y-38177D01*
X50163Y-38188D01*
X50174Y-38211D01*
X50185Y-38256D01*
X50185Y-38312D01*
X50174Y-38357D01*
X50163Y-38380D01*
X50151Y-38391D01*
X50129Y-38402D01*
X50106Y-38402D01*
X50084Y-38391D01*
X50073Y-38380D01*
X50061Y-38357D01*
X50050Y-38312D01*
X50050Y-38256D01*
X50061Y-38211D01*
X50073Y-38188D01*
X50084Y-38177D01*
X50106Y-38166D01*
X50286Y-38380D02*
X50298Y-38391D01*
X50286Y-38402D01*
X50275Y-38391D01*
X50286Y-38380D01*
X50286Y-38402D01*
X50523Y-38402D02*
X50388Y-38402D01*
X50455Y-38402D02*
X50455Y-38166D01*
X50433Y-38200D01*
X50410Y-38222D01*
X50388Y-38233D01*
X50725Y-38245D02*
X50725Y-38402D01*
X50624Y-38245D02*
X50624Y-38368D01*
X50635Y-38391D01*
X50658Y-38402D01*
X50691Y-38402D01*
X50714Y-38391D01*
X50725Y-38380D01*
X44831Y-39701D02*
X44853Y-39701D01*
X44876Y-39713D01*
X44887Y-39724D01*
X44898Y-39746D01*
X44910Y-39791D01*
X44910Y-39848D01*
X44898Y-39893D01*
X44887Y-39915D01*
X44876Y-39926D01*
X44853Y-39938D01*
X44831Y-39938D01*
X44808Y-39926D01*
X44797Y-39915D01*
X44786Y-39893D01*
X44775Y-39848D01*
X44775Y-39791D01*
X44786Y-39746D01*
X44797Y-39724D01*
X44808Y-39713D01*
X44831Y-39701D01*
X45011Y-39915D02*
X45022Y-39926D01*
X45011Y-39938D01*
X45000Y-39926D01*
X45011Y-39915D01*
X45011Y-39938D01*
X45247Y-39938D02*
X45112Y-39938D01*
X45179Y-39938D02*
X45179Y-39701D01*
X45157Y-39735D01*
X45134Y-39758D01*
X45112Y-39769D01*
X45449Y-39780D02*
X45449Y-39938D01*
X45348Y-39780D02*
X45348Y-39904D01*
X45359Y-39926D01*
X45382Y-39938D01*
X45416Y-39938D01*
X45438Y-39926D01*
X45449Y-39915D01*
X46839Y-41788D02*
X46861Y-41788D01*
X46884Y-41799D01*
X46895Y-41811D01*
X46906Y-41833D01*
X46917Y-41878D01*
X46917Y-41934D01*
X46906Y-41979D01*
X46895Y-42002D01*
X46884Y-42013D01*
X46861Y-42024D01*
X46839Y-42024D01*
X46816Y-42013D01*
X46805Y-42002D01*
X46794Y-41979D01*
X46782Y-41934D01*
X46782Y-41878D01*
X46794Y-41833D01*
X46805Y-41811D01*
X46816Y-41799D01*
X46839Y-41788D01*
X47019Y-42002D02*
X47030Y-42013D01*
X47019Y-42024D01*
X47007Y-42013D01*
X47019Y-42002D01*
X47019Y-42024D01*
X47255Y-42024D02*
X47120Y-42024D01*
X47187Y-42024D02*
X47187Y-41788D01*
X47165Y-41822D01*
X47142Y-41844D01*
X47120Y-41856D01*
X47457Y-41867D02*
X47457Y-42024D01*
X47356Y-41867D02*
X47356Y-41991D01*
X47367Y-42013D01*
X47390Y-42024D01*
X47424Y-42024D01*
X47446Y-42013D01*
X47457Y-42002D01*
X50894Y-41788D02*
X50916Y-41788D01*
X50939Y-41799D01*
X50950Y-41811D01*
X50961Y-41833D01*
X50973Y-41878D01*
X50973Y-41934D01*
X50961Y-41979D01*
X50950Y-42002D01*
X50939Y-42013D01*
X50916Y-42024D01*
X50894Y-42024D01*
X50871Y-42013D01*
X50860Y-42002D01*
X50849Y-41979D01*
X50838Y-41934D01*
X50838Y-41878D01*
X50849Y-41833D01*
X50860Y-41811D01*
X50871Y-41799D01*
X50894Y-41788D01*
X51074Y-42002D02*
X51085Y-42013D01*
X51074Y-42024D01*
X51062Y-42013D01*
X51074Y-42002D01*
X51074Y-42024D01*
X51310Y-42024D02*
X51175Y-42024D01*
X51242Y-42024D02*
X51242Y-41788D01*
X51220Y-41822D01*
X51197Y-41844D01*
X51175Y-41856D01*
X51512Y-41867D02*
X51512Y-42024D01*
X51411Y-41867D02*
X51411Y-41991D01*
X51422Y-42013D01*
X51445Y-42024D01*
X51479Y-42024D01*
X51501Y-42013D01*
X51512Y-42002D01*
X50331Y-41102D02*
X50331Y-41237D01*
X50331Y-41169D02*
X50095Y-41169D01*
X50129Y-41192D01*
X50151Y-41214D01*
X50163Y-41237D01*
X50174Y-40899D02*
X50331Y-40899D01*
X50174Y-41001D02*
X50298Y-41001D01*
X50320Y-40989D01*
X50331Y-40967D01*
X50331Y-40933D01*
X50320Y-40911D01*
X50309Y-40899D01*
X38166Y-41704D02*
X38166Y-41681D01*
X38177Y-41659D01*
X38188Y-41647D01*
X38211Y-41636D01*
X38256Y-41625D01*
X38312Y-41625D01*
X38357Y-41636D01*
X38380Y-41647D01*
X38391Y-41659D01*
X38402Y-41681D01*
X38402Y-41704D01*
X38391Y-41726D01*
X38380Y-41737D01*
X38357Y-41749D01*
X38312Y-41760D01*
X38256Y-41760D01*
X38211Y-41749D01*
X38188Y-41737D01*
X38177Y-41726D01*
X38166Y-41704D01*
X38380Y-41524D02*
X38391Y-41512D01*
X38402Y-41524D01*
X38391Y-41535D01*
X38380Y-41524D01*
X38402Y-41524D01*
X38402Y-41287D02*
X38402Y-41422D01*
X38402Y-41355D02*
X38166Y-41355D01*
X38200Y-41377D01*
X38222Y-41400D01*
X38233Y-41422D01*
X38245Y-41085D02*
X38402Y-41085D01*
X38245Y-41186D02*
X38368Y-41186D01*
X38391Y-41175D01*
X38402Y-41152D01*
X38402Y-41119D01*
X38391Y-41096D01*
X38380Y-41085D01*
M02*
